<svg width="1920" height="988" viewBox="0 0 1920 988" fill="none" xmlns="http://www.w3.org/2000/svg">
<path d="M1920 487H1890.45C1861 487 1801.9 487 1743.11 487C1684.21 487 1625.51 487 1566.62 487C1507.82 487 1448.72 487 1389.93 487C1331.03 487 1272.33 487 1213.44 487C1154.64 487 1095.54 487 1036.74 487C977.847 487 919.153 487 860.255 487C801.459 487 742.36 487 683.564 487C624.667 487 565.972 487 507.075 487C448.279 487 389.179 487 330.383 487C271.486 487 212.791 487 153.894 487C95.098 487 35.9984 487 6.5498 487H-23V900.902L6.5498 906.675C35.9984 912.557 95.098 924.102 153.894 943.708C212.791 963.314 271.486 990.98 330.383 987.168C389.179 983.356 448.279 948.065 507.075 926.499C565.972 904.932 624.667 896.872 683.564 914.517C742.36 932.162 801.459 975.295 860.255 985.098C919.153 994.901 977.847 971.374 1036.74 943.926C1095.54 916.478 1154.64 885.326 1213.44 877.484C1272.33 869.642 1331.03 885.326 1389.93 879.336C1448.72 873.345 1516.7 865.503 1575.5 879.336C1634.4 893.169 1684.21 928.459 1743.11 948.065C1801.9 967.671 1861 951.768 1890.45 943.708L1920 935.757V487Z" fill="#800080"/>
<path d="M-23 500.523H6.54979C35.9984 500.523 95.098 500.523 153.894 500.523C212.791 500.523 271.486 500.523 330.383 500.523C389.179 500.523 448.279 500.523 507.075 500.523C565.972 500.523 624.667 500.523 683.564 500.523C742.36 500.523 801.459 500.523 860.255 500.523C919.153 500.523 977.847 500.523 1036.74 500.523C1095.54 500.523 1154.64 500.523 1213.44 500.523C1272.33 500.523 1331.03 500.523 1389.93 500.523C1448.72 500.523 1507.82 500.523 1566.62 500.523C1625.51 500.523 1684.21 500.523 1743.11 500.523C1801.9 500.523 1861 500.523 1890.45 500.523H1920V86.6215L1890.45 80.8486C1861 74.9669 1801.9 63.4212 1743.11 43.8153C1684.21 24.2094 1625.51 -3.45666 1566.62 0.35559C1507.82 4.16784 1448.72 39.4584 1389.93 61.0249C1331.03 82.5914 1272.33 90.6516 1213.44 73.0063C1154.64 55.361 1095.54 12.2281 1036.74 2.42513C977.847 -7.37781 919.153 16.1492 860.255 43.5975C801.459 71.0457 742.36 102.197 683.564 110.04C624.667 117.882 565.972 102.197 507.075 108.188C448.279 114.179 380.296 122.021 321.5 108.188C262.603 94.3549 212.791 59.0643 153.894 39.4584C95.098 19.8526 35.9984 35.7551 6.54979 43.8153L-23 51.7666V500.523Z" fill="#800080"/>
</svg>
