<svg width="220" height="233" viewBox="0 0 220 233" fill="none" xmlns="http://www.w3.org/2000/svg">
<path d="M119.318 34.0711C118.62 29.0295 111.295 30.0547 111.757 35.1355C111.877 36.4617 112.078 37.7897 112.254 39.0613C114.478 54.4404 111.61 70.232 108.288 85.505C107.445 89.288 106.513 93.1918 103.894 95.8281C109.75 87.951 113.433 78.5104 115.67 68.8408C117.906 59.1712 118.735 49.2791 119.435 39.3729C119.575 37.6052 119.536 35.8282 119.318 34.0711Z" fill="#F86D70"/>
<path d="M56.0722 29.2387C50.858 26.1585 45.8366 34.1834 50.909 37.5395C52.2351 38.4246 53.6277 39.233 54.9461 40.0006C71.0193 49.4355 83.2862 64.0813 94.7107 78.8583C97.5123 82.4801 100.36 86.3822 100.693 91.0245C98.1516 79.2786 92.3891 68.5359 85.2651 59.0403C78.1411 49.5447 69.6311 41.2119 61.0352 33.0725C59.5183 31.6137 57.8545 30.3284 56.0722 29.2387Z" fill="#F86D70"/>
<path d="M46.9393 50.6868C43.5008 48.9655 41.706 54.3625 45.0805 56.261C45.9602 56.7449 46.8505 57.2345 47.7275 57.6178C58.2401 62.8477 67.2657 71.6056 75.8097 80.4808C77.9132 82.657 80.0978 85.0193 80.9169 87.9754C77.7325 80.6272 73.272 73.9563 67.7574 68.2946C62.313 62.7344 56.4877 57.5908 50.3268 52.9039C49.2717 52.0499 48.1369 51.3073 46.9393 50.6868Z" fill="#F86D70"/>
<path d="M68.1966 181.159C67.4206 185.05 72.9043 185.49 73.8464 181.62C74.0939 180.609 74.2826 179.581 74.4699 178.608C76.7933 166.707 82.773 155.415 88.972 144.57C90.5058 141.903 92.172 139.11 94.736 137.534C88.6525 142.599 83.5132 148.78 79.575 155.765C75.7009 162.643 72.3162 169.804 69.4479 177.19C68.9051 178.468 68.4859 179.797 68.1966 181.159Z" fill="#F86D70"/>
<path d="M78.0722 5.39744C76.235 3.91984 74.5098 6.9063 76.2797 8.48844C76.7473 8.9013 77.2318 9.28106 77.6952 9.64916C83.3283 14.163 87.6414 20.5838 91.6582 27.0256C92.7711 28.5312 93.5003 30.3049 93.7789 32.184C92.7803 27.3676 90.9359 22.7879 88.3377 18.6735C85.7766 14.628 82.9298 10.7864 79.8206 7.1801C79.2979 6.52546 78.7121 5.92816 78.0722 5.39744Z" fill="#F86D70"/>
<path d="M4.9653 69.615C-1.59301 69.5468 -1.13271 79.4967 5.43293 79.8945C7.15107 79.9901 8.87712 79.9911 10.5275 80.0069C30.5801 80.1644 50.4044 87.0618 69.6586 94.5659C74.3577 96.4001 79.3195 98.4638 82.4592 102.512C73.0355 93.1532 61.3492 86.3717 49.2091 81.4783C37.0691 76.5848 24.4253 73.4385 11.8074 70.5329C9.56327 69.99 7.27108 69.6824 4.9653 69.615Z" fill="#F86D70"/>
<path d="M4.51793 107.122C-1.01374 108.681 2.61638 116.113 8.19509 114.807C9.71438 114.496 11.1242 114.054 12.5114 113.656C29.439 108.811 48.3133 109.198 66.829 110.124C71.3775 110.347 87.2674 116.779 91.2014 119.07C80.2732 114.305 57.2002 106.031 45.4563 105.234C33.802 104.727 22.1237 105.038 10.5013 106.167C8.4833 106.289 6.47989 106.609 4.51793 107.122Z" fill="#F86D70"/>
<path d="M6.72721 168.584C3.02997 173.133 10.0172 177.075 13.9688 172.666C14.9943 171.517 15.9675 170.312 16.896 169.166C28.2208 155.251 44.0188 144.377 59.8193 134.212C63.6984 131.716 80.3323 127.601 84.8449 127.153C73.2053 129.698 49.612 136.483 39.4946 142.837C29.5908 149.299 20.1142 156.444 11.1292 164.225C9.53677 165.535 8.06321 166.995 6.72721 168.584Z" fill="#F86D70"/>
<path d="M152.429 17.4167C152.652 10.6878 143.209 11.1279 142.685 17.861C142.541 19.6221 142.488 21.391 142.438 23.0761C141.797 43.66 134.764 63.9841 127.223 83.6319C125.373 88.447 123.302 93.5361 119.372 96.7395C128.485 87.1008 135.187 75.1447 140.132 62.7181C145.078 50.2914 148.354 37.3291 151.415 24.3897C151.976 22.105 152.316 19.769 152.429 17.4167Z" fill="#F86D70"/>
<path d="M107.688 4.45868C107.776 4.61475 107.9 4.74599 108.049 4.84116C108.335 4.99855 108.679 4.80551 108.931 4.60476C110.288 3.52502 110.898 1.43963 112.44 0.872309C112.791 2.6145 112.885 4.40344 112.718 6.17778L116.973 7.10279C116.767 7.94686 116.397 8.73935 115.886 9.43211C115.376 10.1249 114.736 10.7034 114.005 11.1325C114.505 11.7821 114.88 12.5264 115.108 13.3246C115.225 13.7228 115.231 14.1475 115.127 14.5506C115.023 14.9538 114.813 15.3193 114.52 15.6059C113.557 15.352 112.633 14.9584 111.777 14.4368C111.045 16.2019 110.078 17.8525 108.904 19.3398C108.831 19.4586 108.737 19.561 108.626 19.641C108.515 19.721 108.389 19.7768 108.257 19.805C107.901 19.8359 107.631 19.4611 107.435 19.155C106.578 17.6481 106.119 15.9312 106.106 14.177L102.975 16.8293C102.697 17.1285 102.326 17.3159 101.929 17.3579C101.68 17.3183 101.452 17.1926 101.281 17.0012C101.111 16.8097 101.008 16.5638 100.989 16.3031C100.959 15.7851 101.048 15.2665 101.25 14.7904L102.398 11.2601C102.479 11.087 102.503 10.8913 102.467 10.7033C102.375 10.4961 102.212 10.3315 102.011 10.2404C100.704 9.52148 99.4002 8.80446 98.1001 8.08939C98.2519 7.23859 99.2811 6.95533 100.108 7.01356C100.934 7.0718 101.832 7.28245 102.517 6.79578C103.904 5.78933 103.159 2.90197 104.486 2.14539C106.12 1.13351 106.854 3.25002 107.688 4.45868Z" fill="#F86D70"/>
<path d="M169.63 61.7431C174.061 59.5229 177.336 66.3775 173.007 68.8234C171.876 69.4617 170.7 70.0319 169.582 70.5923C156.015 77.2857 144.954 88.5712 134.583 99.9676C132.013 102.8 129.406 105.783 128.758 109.504C131.795 100.076 137.311 91.6439 143.809 84.3177C150.307 76.9915 157.798 70.6934 165.345 64.553C166.677 63.465 168.113 62.5233 169.63 61.7431Z" fill="#F86D70"/>
<path d="M208.863 113.275C214.248 116.024 210.636 124.824 205.099 122.345C203.648 121.703 202.232 120.967 200.88 120.265C184.319 111.751 165.734 109.428 147.503 107.894C143.034 107.517 138.314 107.257 134.408 109.568C145.231 105.173 157.062 104.107 168.666 104.912C180.27 105.716 191.691 108.36 202.978 111.156C205.008 111.641 206.982 112.351 208.863 113.275Z" fill="#F86D70"/>
<path d="M196.794 133.108C200.086 135.089 196.776 139.652 193.367 137.82C192.487 137.336 191.597 136.846 190.789 136.303C180.719 130.212 168.664 127.375 156.773 125.011C153.853 124.424 150.738 123.872 147.911 124.823C155.581 123.444 163.421 123.539 171.042 125.102C178.543 126.66 185.922 128.779 193.123 131.443C194.398 131.87 195.627 132.428 196.794 133.108Z" fill="#F86D70"/>
<path d="M215.665 81.0743C217.887 81.8293 216.458 84.979 214.201 84.346C213.608 84.1759 213.033 83.9727 212.468 83.7754C205.701 81.4688 198.154 81.3666 190.746 81.5244C188.917 81.412 187.088 81.7786 185.426 82.5905C189.843 80.7498 194.545 79.7703 199.296 79.7011C203.966 79.6332 208.633 79.9242 213.258 80.5718C214.075 80.6574 214.881 80.8257 215.665 81.0743Z" fill="#F86D70"/>
<path d="M87.0753 199.711C85.5419 201.557 83.2649 199.03 84.7702 197.027C85.1549 196.517 85.5494 196.04 85.9382 195.575C90.6367 189.977 93.6736 182.771 96.4346 175.627C97.245 173.914 97.6337 172.022 97.5656 170.119C97.4706 175.063 96.4979 179.951 94.6965 184.537C92.9267 189.042 90.8422 193.407 88.4598 197.599C88.0653 198.347 87.6015 199.055 87.0753 199.711Z" fill="#F86D70"/>
<path d="M145.63 214.122C145.774 217.783 141.997 215.451 141.725 211.72C141.644 210.741 141.616 209.791 141.599 208.819C141.171 197.642 138.176 185.165 134.99 172.952C134.327 169.873 133.226 166.915 131.724 164.177C135.402 171.445 138.299 179.114 140.362 187.047C142.445 194.818 143.87 202.495 145.209 210.126C145.438 211.446 145.578 212.781 145.63 214.122Z" fill="#F86D70"/>
<path d="M4.90006 136.72C1.8859 138.643 5.87771 140.584 9.01906 138.73C9.83854 138.247 10.6262 137.746 11.4041 137.211C20.6001 131.327 32.2734 126.918 43.8521 122.825C46.6866 121.67 49.6686 120.958 52.7001 120.713C44.8203 121.631 37.0553 123.436 29.5422 126.095C22.1502 128.654 15.2016 131.726 8.3483 134.851C7.15952 135.392 6.00741 136.016 4.90006 136.72Z" fill="#F86D70"/>
<path d="M49.238 178.9C48.6161 181.247 51.9034 181.781 52.6774 179.376C52.8713 178.761 53.022 178.15 53.1776 177.556C55.0463 170.402 59.1112 163.762 63.3031 157.404C64.2224 155.754 65.5171 154.361 67.0732 153.348C63.1646 156.194 59.7917 159.762 57.1241 163.872C54.5011 167.907 52.1651 172.134 50.135 176.52C49.7624 177.281 49.4619 178.078 49.238 178.9Z" fill="#F86D70"/>
<path d="M188.651 93.1125C190.868 93.8507 189.434 97.0114 187.182 96.3673C186.59 96.1973 186.009 96.0051 185.455 95.8136C178.687 93.5071 171.13 93.399 163.727 93.5457C161.899 93.4428 160.072 93.8089 158.407 94.6118C162.824 92.7784 167.524 91.8027 172.271 91.7335C176.947 91.6695 181.619 91.9588 186.25 92.599C187.066 92.6846 187.87 92.8567 188.651 93.1125Z" fill="#F86D70"/>
<path d="M190.92 41.5595C193.236 41.4177 193.052 44.8698 190.732 45.1511C190.112 45.2205 189.503 45.2678 188.916 45.2989C181.8 45.7873 174.739 48.6278 167.916 51.6413C166.176 52.2543 164.607 53.3014 163.345 54.6903C166.794 51.2813 170.812 48.5545 175.201 46.6451C179.507 44.7639 183.939 43.213 188.461 42.005C189.266 41.7757 190.089 41.6265 190.92 41.5595Z" fill="#F86D70"/>
<path d="M205.101 179.691C208.823 185.277 200.592 190.447 196.602 185.039C195.564 183.619 194.588 182.133 193.663 180.733C182.311 163.618 165.708 150.48 148.926 138.164C144.828 135.16 140.4 132.059 135.4 131.63C148.17 134.478 160.129 140.701 170.85 148.382C181.572 156.062 191.143 165.134 200.539 174.337C202.227 175.959 203.755 177.753 205.101 179.691Z" fill="#F86D70"/>
<path d="M175.316 201.063C177.161 206.678 169.175 207.721 167.101 202.207C166.501 200.73 166.067 199.274 165.61 197.862C160 180.606 149.183 164.62 138.054 149.241C135.332 145.465 121.291 135.435 117.244 133.337C127.185 140.05 146.718 155.21 153.925 164.836C160.849 174.547 167.131 184.737 172.727 195.335C173.764 197.153 174.631 199.071 175.316 201.063Z" fill="#F86D70"/>
<path d="M104.626 229.946C102.393 235.428 95.8071 230.758 97.8455 225.099C98.3687 223.631 98.9716 222.193 99.53 220.816C106.424 204.068 108.65 184.553 110.339 165.395C110.733 160.686 106.784 143.452 105.126 139.087C108.185 150.99 112.974 175.848 112.062 188.072C110.961 200.138 109.079 212.118 106.426 223.929C106.007 225.988 105.404 228.002 104.626 229.946Z" fill="#F86D70"/>
<path d="M199.854 55.1509C199.679 55.1643 199.504 55.1314 199.346 55.0553C199.07 54.9038 199.033 54.5008 199.052 54.1719C199.148 52.3984 200.478 50.7094 200.081 49.0753C198.488 49.7485 197.002 50.6686 195.674 51.8042L192.542 48.6662C191.984 49.3172 191.557 50.0778 191.287 50.9024C191.018 51.727 190.911 52.5987 190.973 53.4654C190.173 53.403 189.367 53.498 188.6 53.7454C188.218 53.873 187.877 54.1072 187.614 54.4223C187.352 54.7374 187.177 55.1211 187.111 55.5313C187.853 56.2155 188.685 56.7874 189.582 57.2301C188.572 58.8421 187.79 60.5955 187.26 62.4363C187.205 62.5646 187.176 62.703 187.174 62.8431C187.172 62.9832 187.197 63.122 187.249 63.2513C187.423 63.5736 187.874 63.5952 188.229 63.5923C189.914 63.474 191.544 62.908 192.962 61.9486L192.587 66.1166C192.493 66.522 192.55 66.9488 192.749 67.3097C192.92 67.5009 193.148 67.6263 193.397 67.6655C193.646 67.7047 193.9 67.6555 194.12 67.5257C194.548 67.2573 194.913 66.8915 195.186 66.456L197.373 63.497C197.466 63.3306 197.609 63.2005 197.781 63.1268C197.998 63.0898 198.221 63.1367 198.406 63.2585C199.713 63.9775 201.017 64.6945 202.317 65.4095C202.914 64.8036 202.565 63.7625 202.057 63.0862C201.548 62.41 200.866 61.752 200.884 60.8981C200.914 59.1455 203.645 58.1702 203.509 56.6092C203.406 54.6413 201.331 55.213 199.854 55.1509Z" fill="#F86D70"/>
<path d="M129.654 219.548C129.481 219.556 129.308 219.519 129.152 219.441C128.866 219.284 128.828 218.881 128.848 218.552C128.948 216.796 130.256 215.151 129.887 213.461C128.27 214.148 126.766 215.093 125.43 216.262L122.348 213.052C121.788 213.702 121.36 214.463 121.09 215.288C120.821 216.112 120.715 216.985 120.779 217.852C119.981 217.782 119.177 217.873 118.411 218.121C118.029 218.247 117.687 218.48 117.423 218.794C117.158 219.108 116.982 219.491 116.912 219.901C117.652 220.588 118.482 221.164 119.377 221.61C118.374 223.222 117.594 224.971 117.061 226.806C116.956 227.07 116.95 227.364 117.044 227.632C117.229 227.96 117.67 227.976 118.03 227.962C119.718 227.858 121.351 227.291 122.763 226.318L122.388 230.486C122.308 230.892 122.371 231.314 122.566 231.674C122.733 231.866 122.958 231.992 123.205 232.033C123.451 232.073 123.704 232.024 123.921 231.895C124.351 231.628 124.719 231.264 124.998 230.831L127.18 227.855C127.273 227.689 127.416 227.559 127.587 227.485C127.808 227.453 128.033 227.506 128.218 227.634C129.511 228.345 130.843 229.007 132.118 229.779C132.709 229.184 132.367 228.132 131.858 227.456C131.349 226.779 130.678 226.127 130.685 225.267C130.71 223.526 133.446 222.539 133.282 221.034C133.218 218.988 131.089 219.587 129.654 219.548Z" fill="#F86D70"/>
<path d="M215.465 130.637C215.291 130.651 215.117 130.614 214.963 130.531C214.676 130.373 214.633 129.981 214.653 129.652C214.759 127.885 216.089 126.196 215.681 124.556C214.068 125.253 212.566 126.203 211.229 127.373L208.153 124.152C207.593 124.802 207.165 125.563 206.896 126.388C206.626 127.213 206.52 128.085 206.584 128.952C205.786 128.887 204.983 128.979 204.216 129.221C203.831 129.346 203.486 129.58 203.221 129.896C202.955 130.212 202.779 130.599 202.711 131.012C203.454 131.696 204.286 132.268 205.183 132.711C204.178 134.326 203.396 136.078 202.86 137.917C202.806 138.045 202.776 138.183 202.774 138.324C202.773 138.464 202.798 138.603 202.849 138.732C203.024 139.054 203.475 139.076 203.83 139.073C205.517 138.965 207.149 138.398 208.562 137.429L208.188 141.597C208.104 142.003 208.161 142.426 208.349 142.79C208.521 142.979 208.75 143.103 208.998 143.143C209.246 143.182 209.5 143.134 209.72 143.006C210.152 142.742 210.518 142.376 210.787 141.936L213.007 138.911C213.101 138.75 213.242 138.624 213.41 138.552C213.627 138.515 213.85 138.562 214.035 138.684C215.339 139.401 216.642 140.118 217.946 140.835C218.537 140.24 218.194 139.188 217.68 138.523C217.165 137.857 216.5 137.194 216.507 136.334C216.538 134.582 219.268 133.607 219.104 132.101C219.012 130.111 216.91 130.71 215.465 130.637Z" fill="#F86D70"/>
<path d="M27.7317 183.846C27.4898 183.86 27.2486 183.811 27.0311 183.701C26.639 183.485 26.5839 182.931 26.6014 182.474C26.7533 180.009 28.5729 177.712 28.0833 175.305C25.8322 176.267 23.7391 177.59 21.881 179.226L17.5823 174.682C16.8088 175.589 16.2175 176.647 15.8433 177.793C15.4691 178.939 15.3197 180.15 15.4038 181.354C14.2874 181.266 13.1637 181.397 12.0919 181.741C11.5611 181.919 11.0867 182.244 10.7204 182.682C10.3541 183.119 10.1099 183.652 10.0146 184.223C11.0467 185.181 12.2035 185.984 13.4515 186.608C12.0523 188.853 10.9644 191.291 10.2201 193.848C10.143 194.027 10.102 194.221 10.0996 194.417C10.0971 194.613 10.1333 194.807 10.2058 194.987C10.4463 195.445 11.0749 195.465 11.5642 195.465C13.9357 195.299 16.227 194.49 18.2086 193.118L17.6824 198.929C17.5741 199.495 17.6573 200.081 17.9178 200.588C18.1523 200.854 18.4676 201.03 18.812 201.086C19.1563 201.141 19.5093 201.074 19.8131 200.894C20.4185 200.523 20.9329 200.011 21.3156 199.399L24.3511 195.264C24.4897 195.041 24.6891 194.865 24.9238 194.758C25.2309 194.7 25.5472 194.767 25.8061 194.946C27.6184 195.943 29.4649 196.874 31.2716 197.882C32.1056 197.052 31.6176 195.595 30.9061 194.651C30.1946 193.708 29.2618 192.799 29.2775 191.604C29.3049 189.17 33.1201 187.857 32.9321 185.63C32.7044 183.084 29.7412 183.903 27.7317 183.846Z" fill="#F86D70"/>
<path d="M36.7642 36.4412C36.5183 36.4555 36.2733 36.4037 36.053 36.2907C35.6715 36.0809 35.6057 35.521 35.6339 35.0693C35.7752 32.599 37.6054 30.3074 37.1158 27.9006C34.8616 28.8603 32.7649 30.1816 30.9028 31.816L26.6189 27.3223C25.8414 28.2257 25.2467 29.2819 24.8705 30.4274C24.4944 31.573 24.3445 32.7844 24.4299 33.9889C23.3166 33.9018 22.1963 34.035 21.1286 34.3815C20.5965 34.5571 20.1204 34.8808 19.7522 35.3174C19.3839 35.754 19.1378 36.2866 19.0407 36.857C20.0728 37.8153 21.2296 38.6183 22.4775 39.2428C21.0764 41.4874 19.9917 43.9276 19.2568 46.4885C19.1358 46.6921 19.0802 46.93 19.0981 47.1678C19.116 47.4056 19.2063 47.6309 19.3561 47.8111C19.5058 47.9913 19.7072 48.1169 19.9311 48.1698C20.1549 48.2228 20.3895 48.2002 20.6009 48.1055C22.9724 47.9398 25.2637 47.1302 27.2452 45.7578L26.7085 51.5638C26.5913 52.1321 26.6788 52.7242 26.9544 53.2278C27.1902 53.4926 27.5053 53.6669 27.8492 53.7225C28.193 53.778 28.5454 53.7117 28.8497 53.5342C29.4536 53.1625 29.9648 52.6482 30.3416 52.0332L33.3878 47.9048C33.5185 47.6769 33.7153 47.4976 33.9499 47.3929C34.2565 47.339 34.5706 47.4103 34.8265 47.5919C36.6388 48.5887 38.4909 49.5083 40.3082 50.522C41.1317 49.6867 40.6437 48.2292 39.9428 47.2916C39.2419 46.3541 38.2878 45.433 38.3036 44.2384C38.3415 41.8103 42.1567 40.4972 41.9688 38.2705C41.7262 35.674 38.7631 36.4931 36.7642 36.4412Z" fill="#F86D70"/>
<path d="M156.813 196.831C156.686 196.842 156.558 196.816 156.444 196.756C156.232 196.639 156.208 196.343 156.209 196.103C156.31 194.743 157.26 193.581 156.999 192.29C155.805 192.805 154.692 193.506 153.701 194.369L151.42 191.982C151.002 192.471 150.682 193.04 150.479 193.658C150.275 194.276 150.194 194.929 150.238 195.579C149.649 195.526 149.056 195.594 148.491 195.779C148.208 195.871 147.954 196.043 147.758 196.275C147.562 196.507 147.431 196.79 147.38 197.093C147.927 197.603 148.54 198.03 149.201 198.364C148.461 199.557 147.887 200.852 147.496 202.21C147.454 202.305 147.432 202.407 147.43 202.511C147.428 202.615 147.447 202.718 147.486 202.813C147.572 202.92 147.685 203.001 147.813 203.046C147.941 203.091 148.078 203.1 148.21 203.07C149.466 202.974 150.679 202.545 151.733 201.823L151.494 204.933C151.431 205.231 151.474 205.541 151.616 205.807C151.741 205.95 151.908 206.045 152.092 206.076C152.275 206.108 152.464 206.074 152.628 205.981C152.946 205.782 153.217 205.509 153.418 205.184L155.036 202.988C155.108 202.868 155.214 202.773 155.339 202.716C155.419 202.698 155.502 202.698 155.582 202.715C155.662 202.732 155.738 202.767 155.804 202.816L158.697 204.408C159.129 203.965 158.875 203.189 158.49 202.694C158.106 202.199 157.635 201.714 157.625 201.072C157.649 199.782 159.678 199.087 159.581 197.901C159.483 196.715 157.877 196.85 156.813 196.831Z" fill="#F86D70"/>
<path d="M64.3048 200.451C64.1781 200.451 64.0527 200.425 63.9358 200.375C63.8468 200.295 63.7798 200.192 63.7413 200.077C63.7029 199.961 63.6944 199.837 63.7168 199.717C63.7892 198.412 64.7575 197.189 64.4962 195.899C63.3004 196.41 62.1878 197.111 61.1983 197.978L58.9282 195.597C58.5162 196.076 58.2008 196.636 58.0007 197.243C57.8007 197.851 57.7201 198.493 57.7637 199.132C57.1725 199.095 56.579 199.166 56.0105 199.343C55.7274 199.435 55.474 199.607 55.2781 199.839C55.0821 200.071 54.9513 200.354 54.9 200.657C55.4454 201.168 56.061 201.593 56.7269 201.917C55.9838 203.113 55.4078 204.412 55.0161 205.775C54.9756 205.869 54.9538 205.972 54.9519 206.075C54.9501 206.179 54.9683 206.281 55.0054 206.377C55.1387 206.621 55.4718 206.634 55.7299 206.634C56.9862 206.539 58.1996 206.109 59.2529 205.387L59.014 208.497C58.9505 208.795 58.9938 209.106 59.1358 209.371C59.2634 209.512 59.4325 209.604 59.6167 209.633C59.8008 209.663 59.9895 209.628 60.1531 209.534C60.4719 209.335 60.7423 209.062 60.9433 208.737L62.5613 206.541C62.632 206.424 62.7359 206.333 62.8587 206.28C63.0207 206.248 63.1878 206.284 63.3238 206.38C64.2918 206.913 65.2563 207.443 66.2172 207.972C66.6485 207.529 66.395 206.753 66.0265 206.253C65.6581 205.753 65.1652 205.284 65.1611 204.63C65.1742 203.335 67.2038 202.64 67.1064 201.454C67.009 200.268 65.3795 200.476 64.3048 200.451Z" fill="#F86D70"/>
<path d="M72.3328 14.1316C72.2059 14.1337 72.0801 14.1079 71.9638 14.056C71.8748 13.9761 71.8077 13.8732 71.7693 13.7577C71.7309 13.6422 71.7224 13.518 71.7447 13.3976C71.8456 12.0375 72.7855 10.8699 72.5348 9.58544C71.3344 10.0872 70.2203 10.7895 69.2369 11.6644L66.9561 9.27751C66.5311 9.76115 66.2067 10.3304 66.0032 10.9494C65.7998 11.5683 65.7217 12.2236 65.7739 12.874C65.1795 12.8316 64.582 12.901 64.0101 13.0788C63.7276 13.1722 63.4752 13.3451 63.281 13.5782C63.0867 13.8113 62.9584 14.0955 62.9102 14.3991C63.4549 14.9113 64.0707 15.3359 64.7371 15.6587C63.9908 16.8525 63.4112 18.1495 63.0157 19.5107C62.9752 19.6055 62.9534 19.7078 62.9515 19.8113C62.9497 19.9148 62.9679 20.0176 63.005 20.1135C63.1383 20.3567 63.4714 20.37 63.7295 20.3704C64.9869 20.2807 66.2016 19.8506 67.2525 19.1231L67.0136 22.2333C66.9519 22.5341 66.999 22.8473 67.146 23.113C67.2725 23.2519 67.4401 23.3428 67.6224 23.3713C67.8048 23.3997 67.9914 23.3642 68.1527 23.2704C68.4715 23.0713 68.742 22.7985 68.9429 22.4734L70.5609 20.2774C70.6304 20.1593 70.7347 20.0677 70.8583 20.0163C71.0203 19.9846 71.1875 20.0206 71.3234 20.1164C72.2914 20.6488 73.2559 21.1793 74.2169 21.7078C74.6587 21.2713 74.3946 20.489 74.0261 19.9891C73.6577 19.4892 73.1648 19.0199 73.1607 18.3665C73.1738 17.0714 75.2034 16.3758 75.106 15.1897C75.0086 14.0037 73.4075 14.1565 72.3328 14.1316Z" fill="#F86D70"/>
<path d="M65.6792 117.942C65.5477 117.953 65.4162 117.924 65.2996 117.861C65.0982 117.75 65.0576 117.459 65.0749 117.214C65.1474 115.909 66.1157 114.686 65.865 113.402C64.667 113.908 63.5536 114.61 62.567 115.48L60.2863 113.094C59.8661 113.581 59.5447 114.15 59.3415 114.768C59.1384 115.386 59.0576 116.04 59.1041 116.69C58.5128 116.648 57.9184 116.719 57.3509 116.901C57.0672 116.992 56.813 117.163 56.6169 117.395C56.4208 117.628 56.2904 117.911 56.2404 118.215C56.7854 118.727 57.4011 119.151 58.0673 119.475C57.321 120.669 56.7414 121.966 56.3459 123.327C56.2703 123.52 56.2665 123.735 56.3352 123.93C56.4685 124.173 56.8016 124.186 57.0653 124.175C58.3207 124.093 59.5344 123.666 60.5827 122.939L60.3438 126.049C60.2905 126.35 60.3372 126.661 60.4762 126.929C60.6015 127.07 60.7693 127.162 60.9521 127.191C61.135 127.219 61.3221 127.183 61.4829 127.086C61.8049 126.89 62.0791 126.62 62.2837 126.295L63.9017 124.099C63.9665 123.977 64.0724 123.884 64.1991 123.838C64.2792 123.82 64.362 123.82 64.4421 123.837C64.5222 123.855 64.5978 123.889 64.6642 123.938C65.6287 124.469 66.5932 124.999 67.5471 125.524C67.9889 125.087 67.7354 124.311 67.3563 123.805C66.9773 123.3 66.5006 122.825 66.4909 122.183C66.5146 120.893 68.5442 120.198 68.4362 119.006C68.3282 117.814 66.7377 117.973 65.6792 117.942Z" fill="#F86D70"/>
<path d="M56.0451 70.7426C55.9175 70.7551 55.7893 70.7289 55.6761 70.6671C55.4641 70.5505 55.4341 70.265 55.4514 70.0197C55.5239 68.7148 56.4921 67.492 56.2308 66.2017C55.0351 66.7131 53.9224 67.4145 52.9329 68.2806L50.6628 65.8996C50.239 66.3833 49.9146 66.9514 49.7095 67.5689C49.5044 68.1864 49.4229 68.8403 49.47 69.4903C48.8788 69.4532 48.2853 69.5245 47.7168 69.7009C47.433 69.7922 47.1789 69.9634 46.9828 70.1955C46.7867 70.4277 46.6563 70.7115 46.6063 71.0153C47.1517 71.5267 47.7673 71.9511 48.4331 72.2749C47.6901 73.4711 47.1141 74.7701 46.7224 76.1328C46.6819 76.2276 46.66 76.3298 46.6582 76.4334C46.6563 76.5369 46.6745 76.6397 46.7117 76.7356C46.845 76.9788 47.178 76.9921 47.4418 76.9814C48.6972 76.8987 49.9108 76.4721 50.9592 75.7451L50.7202 78.8554C50.6568 79.1529 50.7001 79.4637 50.8421 79.7293C50.9697 79.8698 51.1388 79.962 51.3229 79.9916C51.5071 80.0211 51.6958 79.9862 51.8594 79.8924C52.1782 79.6934 52.4486 79.4206 52.6496 79.0955L54.2676 76.8995C54.337 76.7814 54.4414 76.6898 54.5649 76.6383C54.727 76.6067 54.8941 76.6427 55.0301 76.7385C55.991 77.267 56.9555 77.7975 57.9235 78.3299C58.3547 77.8876 58.1012 77.1111 57.7328 76.6112C57.3644 76.1113 56.8771 75.631 56.8674 74.9886C56.8805 73.6935 58.9101 72.9979 58.8127 71.8118C58.7153 70.6258 57.1142 70.7786 56.0451 70.7426Z" fill="#F86D70"/>
<path d="M165.562 140.844C165.434 140.855 165.306 140.828 165.193 140.769C164.981 140.652 164.951 140.366 164.957 140.115C165.04 138.816 166.009 137.593 165.747 136.303C164.552 136.815 163.439 137.516 162.449 138.382L160.179 136.001C159.767 136.481 159.452 137.041 159.252 137.648C159.052 138.255 158.971 138.898 159.015 139.537C158.423 139.487 157.828 139.559 157.262 139.747C156.978 139.838 156.724 140.01 156.528 140.242C156.332 140.474 156.201 140.758 156.151 141.062C156.7 141.568 157.315 141.992 157.978 142.321C157.235 143.517 156.659 144.816 156.267 146.179C156.227 146.274 156.205 146.376 156.203 146.48C156.201 146.583 156.219 146.686 156.257 146.782C156.39 147.025 156.723 147.038 156.987 147.028C158.24 146.936 159.452 146.51 160.504 145.791L160.271 148.891C160.203 149.191 160.244 149.506 160.387 149.776C160.515 149.916 160.684 150.008 160.868 150.038C161.052 150.067 161.241 150.033 161.404 149.939C161.723 149.74 161.994 149.467 162.194 149.142L163.812 146.946C163.885 146.825 163.99 146.731 164.115 146.674C164.277 146.648 164.441 146.688 164.575 146.785C165.536 147.313 166.5 147.844 167.468 148.376C167.9 147.934 167.646 147.157 167.278 146.657C166.909 146.158 166.422 145.677 166.412 145.035C166.425 143.74 168.455 143.044 168.358 141.858C168.26 140.672 166.631 140.88 165.562 140.844Z" fill="#F86D70"/>
<path d="M113.802 104.137C113.675 104.15 113.546 104.124 113.433 104.062C113.221 103.945 113.197 103.649 113.209 103.415C113.309 102.054 114.249 100.887 113.988 99.5965C112.795 100.114 111.683 100.815 110.69 101.675L108.42 99.2944C107.997 99.7789 107.674 100.347 107.469 100.964C107.264 101.582 107.181 102.235 107.227 102.885C106.638 102.84 106.046 102.907 105.48 103.085C105.195 103.178 104.94 103.352 104.743 103.586C104.546 103.819 104.415 104.105 104.363 104.41C104.916 104.911 105.531 105.335 106.19 105.67C105.45 106.863 104.876 108.158 104.485 109.517C104.442 109.611 104.418 109.713 104.417 109.817C104.415 109.921 104.435 110.024 104.475 110.119C104.602 110.374 104.941 110.376 105.199 110.376C106.456 110.287 107.671 109.856 108.722 109.129L108.483 112.239C108.42 112.537 108.463 112.847 108.605 113.113C108.728 113.258 108.896 113.354 109.08 113.386C109.264 113.417 109.454 113.383 109.617 113.287C109.935 113.088 110.206 112.815 110.407 112.49L112.025 110.294C112.097 110.174 112.203 110.079 112.328 110.022C112.489 110.003 112.653 110.038 112.793 110.122C113.761 110.655 114.725 111.185 115.686 111.714C116.118 111.271 115.864 110.495 115.49 110.006C115.116 109.517 114.634 109.026 114.625 108.383C114.638 107.088 116.667 106.393 116.57 105.207C116.472 104.021 114.871 104.173 113.802 104.137Z" fill="#F86D70"/>
<path d="M92.5051 102.46C92.3776 102.471 92.25 102.445 92.1361 102.385C91.9242 102.268 91.8941 101.983 91.9008 101.732C92.0017 100.371 92.9522 99.2096 92.6909 97.9193C91.498 98.4365 90.3861 99.1374 89.393 99.9983L87.1066 97.6224C86.698 98.105 86.3856 98.6666 86.1875 99.2746C85.9894 99.8826 85.9096 100.525 85.9527 101.164C85.3639 101.116 84.7711 101.184 84.2052 101.363C83.9203 101.457 83.6654 101.63 83.4685 101.864C83.2716 102.098 83.1403 102.383 83.089 102.689C83.6419 103.19 84.2561 103.614 84.9159 103.948C84.1738 105.145 83.5979 106.444 83.2051 107.806C83.1646 107.901 83.1427 108.003 83.1409 108.107C83.1391 108.21 83.1573 108.313 83.1944 108.409C83.3277 108.652 83.6607 108.666 83.9245 108.655C85.182 108.565 86.3967 108.135 87.4476 107.408L87.2086 110.518C87.1407 110.818 87.1821 111.133 87.3248 111.403C87.4524 111.543 87.6215 111.635 87.8057 111.665C87.9898 111.695 88.1785 111.66 88.3421 111.566C88.6609 111.367 88.9314 111.094 89.1323 110.769L90.7503 108.573C90.8226 108.453 90.9283 108.358 91.0533 108.301C91.2152 108.278 91.3794 108.313 91.5185 108.401C92.4829 108.931 93.4474 109.462 94.4119 109.992C94.8488 109.539 94.5953 108.763 94.2212 108.274C93.8471 107.785 93.3655 107.293 93.3558 106.651C93.3688 105.356 95.3985 104.66 95.3011 103.474C95.2037 102.288 93.5742 102.496 92.5051 102.46Z" fill="#F86D70"/>
<path d="M100.721 46.2931C100.589 46.3032 100.458 46.275 100.341 46.2117C100.14 46.101 100.099 45.8097 100.116 45.5644C100.217 44.2043 101.157 43.0367 100.906 41.7522C99.7119 42.258 98.6008 42.9559 97.6141 43.8201L95.3277 41.4443C94.9027 41.9279 94.5783 42.4972 94.3748 43.1161C94.1713 43.7351 94.0933 44.3904 94.1455 45.0408C93.5536 44.9947 92.9579 45.0603 92.3874 45.2346C92.1051 45.3329 91.8532 45.5085 91.6586 45.7429C91.4639 45.9773 91.3337 46.2616 91.2818 46.5658C91.8306 47.0727 92.4455 47.4967 93.1087 47.8254C92.3634 49.0198 91.7839 50.3166 91.3873 51.6775C91.3468 51.7723 91.3249 51.8745 91.3231 51.9781C91.3213 52.0816 91.3394 52.1844 91.3766 52.2803C91.5099 52.5235 91.8429 52.5368 92.1067 52.5261C93.3655 52.4435 94.5819 52.0128 95.6298 51.2788L95.3908 54.389C95.3323 54.6928 95.3771 55.0077 95.5176 55.2798C95.6578 55.4221 95.843 55.5069 96.0392 55.5186C96.2355 55.5303 96.4295 55.4682 96.5859 55.3436C96.9079 55.1476 97.1821 54.8767 97.3868 54.5525L98.9942 52.3507C99.0665 52.2303 99.1721 52.1354 99.2972 52.0785C99.4588 52.0591 99.6219 52.0942 99.7623 52.1786C100.727 52.7091 101.691 53.2395 102.656 53.77C103.103 53.3225 102.85 52.5461 102.465 52.0514C102.08 51.5567 101.609 51.0711 101.6 50.4288C101.623 49.1394 103.642 48.438 103.545 47.252C103.448 46.0659 101.807 46.2681 100.721 46.2931Z" fill="#F86D70"/>
<path d="M100.681 125.543C100.549 125.548 100.419 125.52 100.301 125.462C100.1 125.351 100.065 125.049 100.082 124.804C100.154 123.499 101.117 122.287 100.872 120.991C99.6753 121.501 98.5624 122.202 97.574 123.07L95.2933 120.683C94.8695 121.168 94.5459 121.737 94.3425 122.356C94.1391 122.975 94.0603 123.63 94.1111 124.28C93.5192 124.229 92.9226 124.294 92.353 124.474C92.0725 124.571 91.8221 124.745 91.6284 124.977C91.4348 125.21 91.3051 125.492 91.2531 125.794C91.7994 126.304 92.4125 126.732 93.0743 127.065C92.3309 128.255 91.7532 129.548 91.3586 130.906C91.283 131.099 91.2792 131.313 91.3479 131.508C91.4345 131.615 91.5477 131.696 91.6753 131.741C91.8029 131.786 91.9401 131.795 92.0723 131.765C93.3298 131.676 94.5445 131.246 95.5954 130.518L95.3564 133.628C95.2947 133.929 95.3419 134.242 95.4889 134.508C95.6136 134.647 95.7796 134.739 95.9608 134.77C96.142 134.8 96.3281 134.767 96.4899 134.676C96.8119 134.48 97.0861 134.209 97.2907 133.885L98.9087 131.689C98.9413 131.618 98.9892 131.555 99.0489 131.506C99.1086 131.456 99.1783 131.422 99.2527 131.405C99.3271 131.389 99.4041 131.39 99.4777 131.41C99.5512 131.429 99.6194 131.466 99.6769 131.517C100.641 132.048 101.595 132.572 102.56 133.103C103.002 132.666 102.748 131.89 102.363 131.395C101.979 130.9 101.508 130.415 101.498 129.772C101.522 128.483 103.541 127.782 103.443 126.596C103.346 125.41 101.767 125.518 100.681 125.543Z" fill="#F86D70"/>
</svg>
