<svg width="2006" height="273" viewBox="0 0 2006 273" fill="none" xmlns="http://www.w3.org/2000/svg">
<path d="M1910.57 172.04C1912.14 173.752 1914.96 173.179 1915.65 171.006L1968.35 5.81209C1969.05 3.63015 1967.08 1.47324 1964.81 1.93406L1792.5 36.9704C1790.24 37.4312 1789.38 40.1631 1790.96 41.8823L1910.57 172.04Z" fill="#FCCC63"/>
<path d="M1730.14 203.078C1731.61 204.878 1734.45 204.475 1735.28 202.351L1798.05 40.7711C1798.88 38.6341 1797.04 36.3599 1794.75 36.6844L1620.43 61.3702C1618.14 61.6947 1617.11 64.3734 1618.59 66.184L1730.14 203.078Z" fill="#73E7D3"/>
<path d="M1547.12 223.161C1548.59 224.961 1551.43 224.558 1552.26 222.434L1615.03 60.8541C1615.86 58.7171 1614.02 56.4429 1611.73 56.7674L1437.41 81.4532C1435.12 81.7777 1434.09 84.4564 1435.57 86.267L1547.12 223.161Z" fill="#E60077"/>
<path d="M1363 242.967C1364.34 244.858 1367.2 244.65 1368.17 242.591L1442.12 85.8375C1443.1 83.7614 1441.43 81.3643 1439.12 81.5325L1263.27 94.3349C1260.96 94.5031 1259.75 97.1096 1261.1 99.0162L1363 242.967Z" fill="#FCCC63"/>
<path d="M1179.36 255.407C1180.62 257.347 1183.48 257.251 1184.54 255.233L1264.77 101.597C1265.83 99.561 1264.26 97.0986 1261.94 97.1764L1085.59 103.102C1083.28 103.18 1081.97 105.739 1083.24 107.697L1179.36 255.407Z" fill="#73E7D3"/>
<path d="M1006.69 264.004C1007.95 265.943 1010.81 265.847 1011.86 263.83L1092.1 110.194C1093.16 108.158 1091.59 105.695 1089.27 105.773L912.922 111.699C910.606 111.777 909.297 114.336 910.571 116.294L1006.69 264.004Z" fill="#E60077"/>
<path d="M826.082 267.815C827.266 269.8 830.127 269.814 831.26 267.842L917.587 117.528C918.732 115.534 917.257 113.011 914.94 112.999L738.367 112.11C736.05 112.098 734.64 114.607 735.837 116.613L826.082 267.815Z" fill="#FCCC63"/>
<path d="M642.74 261.729C643.806 263.775 646.657 263.953 647.905 262.051L743.044 117.098C744.307 115.173 742.984 112.568 740.669 112.424L564.265 101.413C561.95 101.269 560.395 103.695 561.474 105.766L642.74 261.729Z" fill="#73E7D3"/>
<path d="M458.498 245.524C459.458 247.618 462.293 247.939 463.638 246.105L566.233 106.252C567.597 104.393 566.41 101.723 564.105 101.463L388.338 81.6156C386.033 81.3553 384.354 83.7015 385.326 85.8237L458.498 245.524Z" fill="#E60077"/>
<path d="M276.146 221.619C277.012 223.75 279.829 224.191 281.255 222.418L389.999 87.2028C391.445 85.4049 390.378 82.6861 388.085 82.3276L213.223 54.9822C210.93 54.6237 209.148 56.8969 210.027 59.0584L276.146 221.619Z" fill="#FCCC63"/>
<path d="M90.1433 184.463C90.8533 186.646 93.6293 187.283 95.1814 185.619L213.636 58.6268C215.213 56.9368 214.347 54.1493 212.085 53.6301L39.441 14.0089C37.1785 13.4897 35.2336 15.6321 35.9548 17.8494L90.1433 184.463Z" fill="#E60077"/>
</svg>
