<svg width="1920" height="264" viewBox="0 0 1920 264" fill="none" xmlns="http://www.w3.org/2000/svg">
<path d="M1977 0H1946.81C1916.73 0 1856.35 0 1796.28 0C1736.11 0 1676.15 0 1615.98 0C1555.91 0 1495.53 0 1435.47 0C1375.3 0 1315.33 0 1255.16 0C1195.1 0 1134.72 0 1074.65 0C1014.48 0 954.518 0 894.348 0C834.281 0 773.904 0 713.837 0C653.667 0 593.703 0 533.533 0C473.466 0 413.089 0 353.022 0C292.851 0 232.888 0 172.718 0C112.651 0 52.2737 0 22.1886 0H-8V218.312L22.1886 221.357C52.2737 224.459 112.651 230.549 172.718 240.89C232.888 251.231 292.851 265.823 353.022 263.812C413.089 261.802 473.466 243.188 533.533 231.813C593.703 220.437 653.667 216.186 713.837 225.493C773.904 234.8 834.281 257.55 894.348 262.721C954.518 267.891 1014.48 255.482 1074.65 241.005C1134.72 226.527 1195.1 210.096 1255.16 205.96C1315.33 201.823 1375.3 210.096 1435.47 206.937C1495.53 203.777 1564.99 199.64 1625.05 206.937C1685.22 214.233 1736.11 232.847 1796.28 243.188C1856.35 253.529 1916.73 245.141 1946.81 240.89L1977 236.696V0Z" fill="#800080"/>
</svg>
