<svg width="1527" height="83" viewBox="0 0 1527 83" fill="none" xmlns="http://www.w3.org/2000/svg">
<rect width="1527" height="83" rx="22" fill="#7D167D"/>
<path d="M31.2697 68V58.27C31.2697 58.27 31.7131 57.99 32.5997 57.43C33.4864 56.87 34.6297 56.1 36.0297 55.12C37.4297 54.14 38.9464 53.0433 40.5797 51.83C42.2131 50.6167 43.7531 49.3567 45.1997 48.05C47.2997 46.23 49.0497 44.62 50.4497 43.22C51.8497 41.7733 52.8997 40.35 53.5997 38.95C54.2997 37.55 54.6497 35.94 54.6497 34.12C54.6497 31.1333 52.6664 29.64 48.6997 29.64C46.7397 29.64 44.7564 29.8967 42.7497 30.41C40.7897 30.8767 38.9697 31.4367 37.2897 32.09C35.6564 32.7433 34.3731 33.3033 33.4397 33.77V21.87C34.7931 21.1233 36.9631 20.2833 39.9497 19.35C42.9364 18.4167 46.5764 17.95 50.8697 17.95C56.9364 17.95 61.3697 19.2333 64.1697 21.8C66.9697 24.32 68.3697 28.1467 68.3697 33.28C68.3697 35.94 67.8797 38.32 66.8997 40.42C65.9197 42.52 64.6597 44.41 63.1197 46.09C61.5797 47.7233 59.9231 49.1467 58.1497 50.36C56.4231 51.5733 54.7664 52.6 53.1797 53.44C51.5931 54.2333 50.2864 54.8867 49.2597 55.4L49.6097 56.8L68.3697 55.4V68H31.2697ZM94.8543 68.7C90.8877 68.7 87.3177 67.8833 84.1443 66.25C81.0177 64.6167 78.5443 61.9567 76.7243 58.27C74.9043 54.5367 73.9943 49.52 73.9943 43.22C73.9943 36.9667 74.9043 31.9967 76.7243 28.31C78.5443 24.5767 81.0177 21.8933 84.1443 20.26C87.3177 18.58 90.8877 17.74 94.8543 17.74C98.8677 17.74 102.438 18.58 105.564 20.26C108.691 21.94 111.164 24.6467 112.984 28.38C114.804 32.0667 115.714 37.0133 115.714 43.22C115.714 49.4267 114.804 54.3967 112.984 58.13C111.164 61.8633 108.691 64.57 105.564 66.25C102.438 67.8833 98.8677 68.7 94.8543 68.7ZM94.8543 56.52C97.3743 56.52 99.2643 55.54 100.524 53.58C101.831 51.62 102.484 48.1667 102.484 43.22C102.484 38.2733 101.831 34.82 100.524 32.86C99.2643 30.9 97.3743 29.92 94.8543 29.92C92.381 29.92 90.491 30.9233 89.1843 32.93C87.8777 34.9367 87.2243 38.3667 87.2243 43.22C87.2243 48.0733 87.8777 51.5033 89.1843 53.51C90.491 55.5167 92.381 56.52 94.8543 56.52ZM129.699 49.1L121.999 41.4L129.699 33.7L137.399 41.4L129.699 49.1ZM129.699 70.1L121.999 62.4L129.699 54.7L137.399 62.4L129.699 70.1ZM164.581 68.7C160.614 68.7 157.044 67.8833 153.871 66.25C150.744 64.6167 148.271 61.9567 146.451 58.27C144.631 54.5367 143.721 49.52 143.721 43.22C143.721 36.9667 144.631 31.9967 146.451 28.31C148.271 24.5767 150.744 21.8933 153.871 20.26C157.044 18.58 160.614 17.74 164.581 17.74C168.594 17.74 172.164 18.58 175.291 20.26C178.418 21.94 180.891 24.6467 182.711 28.38C184.531 32.0667 185.441 37.0133 185.441 43.22C185.441 49.4267 184.531 54.3967 182.711 58.13C180.891 61.8633 178.418 64.57 175.291 66.25C172.164 67.8833 168.594 68.7 164.581 68.7ZM164.581 56.52C167.101 56.52 168.991 55.54 170.251 53.58C171.558 51.62 172.211 48.1667 172.211 43.22C172.211 38.2733 171.558 34.82 170.251 32.86C168.991 30.9 167.101 29.92 164.581 29.92C162.108 29.92 160.218 30.9233 158.911 32.93C157.604 34.9367 156.951 38.3667 156.951 43.22C156.951 48.0733 157.604 51.5033 158.911 53.51C160.218 55.5167 162.108 56.52 164.581 56.52ZM211.886 68.7C207.919 68.7 204.349 67.8833 201.176 66.25C198.049 64.6167 195.576 61.9567 193.756 58.27C191.936 54.5367 191.026 49.52 191.026 43.22C191.026 36.9667 191.936 31.9967 193.756 28.31C195.576 24.5767 198.049 21.8933 201.176 20.26C204.349 18.58 207.919 17.74 211.886 17.74C215.899 17.74 219.469 18.58 222.596 20.26C225.722 21.94 228.196 24.6467 230.016 28.38C231.836 32.0667 232.746 37.0133 232.746 43.22C232.746 49.4267 231.836 54.3967 230.016 58.13C228.196 61.8633 225.722 64.57 222.596 66.25C219.469 67.8833 215.899 68.7 211.886 68.7ZM211.886 56.52C214.406 56.52 216.296 55.54 217.556 53.58C218.862 51.62 219.516 48.1667 219.516 43.22C219.516 38.2733 218.862 34.82 217.556 32.86C216.296 30.9 214.406 29.92 211.886 29.92C209.412 29.92 207.522 30.9233 206.216 32.93C204.909 34.9367 204.256 38.3667 204.256 43.22C204.256 48.0733 204.909 51.5033 206.216 53.51C207.522 55.5167 209.412 56.52 211.886 56.52Z" fill="#FF7367"/>
<path d="M345 23.0547V61H336.352L331.219 43.75V61H322.969V23.0547H331.219L336.75 40.1406V23.0547H345ZM369.412 23.0547V61H359.544V23.0547H369.412ZM406.972 39.6016H397.104V32.9922C397.104 31.0703 396.995 29.875 396.776 29.4062C396.573 28.9219 396.112 28.6797 395.393 28.6797C394.581 28.6797 394.065 28.9688 393.847 29.5469C393.628 30.125 393.518 31.375 393.518 33.2969V50.9219C393.518 52.7656 393.628 53.9688 393.847 54.5312C394.065 55.0938 394.558 55.375 395.323 55.375C396.058 55.375 396.534 55.0938 396.753 54.5312C396.987 53.9688 397.104 52.6484 397.104 50.5703V45.8125H406.972V47.2891C406.972 51.2109 406.69 53.9922 406.128 55.6328C405.581 57.2734 404.354 58.7109 402.448 59.9453C400.558 61.1797 398.222 61.7969 395.44 61.7969C392.55 61.7969 390.167 61.2734 388.292 60.2266C386.417 59.1797 385.175 57.7344 384.565 55.8906C383.956 54.0312 383.651 51.2422 383.651 47.5234V36.4375C383.651 33.7031 383.745 31.6562 383.933 30.2969C384.12 28.9219 384.675 27.6016 385.597 26.3359C386.534 25.0703 387.823 24.0781 389.464 23.3594C391.12 22.625 393.018 22.2578 395.159 22.2578C398.065 22.2578 400.464 22.8203 402.354 23.9453C404.245 25.0703 405.487 26.4766 406.081 28.1641C406.675 29.8359 406.972 32.4453 406.972 35.9922V39.6016ZM444.578 23.0547L438.93 40.1875L445.118 61H434.922L430.938 44.7344V61H421.071V23.0547H430.938V37.7969L435.321 23.0547H444.578ZM478.435 23.0547L471.24 47.2656V61H462.099V47.2656L455.162 23.0547H464.232C465.654 30.4453 466.451 35.4219 466.623 37.9844C467.17 33.9375 468.084 28.9609 469.365 23.0547H478.435ZM509.751 23.0547H516.735C521.391 23.0547 524.54 23.2344 526.18 23.5938C527.837 23.9531 529.18 24.875 530.212 26.3594C531.258 27.8281 531.782 30.1797 531.782 33.4141C531.782 36.3672 531.415 38.3516 530.68 39.3672C529.946 40.3828 528.501 40.9922 526.344 41.1953C528.298 41.6797 529.61 42.3281 530.282 43.1406C530.954 43.9531 531.368 44.7031 531.524 45.3906C531.696 46.0625 531.782 47.9297 531.782 50.9922V61H522.618V48.3906C522.618 46.3594 522.454 45.1016 522.126 44.6172C521.813 44.1328 520.977 43.8906 519.618 43.8906V61H509.751V23.0547ZM519.618 29.5469V37.9844C520.727 37.9844 521.501 37.8359 521.938 37.5391C522.391 37.2266 522.618 36.2344 522.618 34.5625V32.4766C522.618 31.2734 522.399 30.4844 521.962 30.1094C521.54 29.7344 520.758 29.5469 519.618 29.5469ZM568.732 45.2734C568.732 49.0859 568.639 51.7891 568.451 53.3828C568.279 54.9609 567.717 56.4062 566.764 57.7188C565.826 59.0312 564.553 60.0391 562.943 60.7422C561.334 61.4453 559.459 61.7969 557.318 61.7969C555.287 61.7969 553.459 61.4688 551.834 60.8125C550.225 60.1406 548.928 59.1406 547.943 57.8125C546.959 56.4844 546.373 55.0391 546.186 53.4766C545.998 51.9141 545.904 49.1797 545.904 45.2734V38.7812C545.904 34.9688 545.99 32.2734 546.162 30.6953C546.35 29.1016 546.912 27.6484 547.85 26.3359C548.803 25.0234 550.084 24.0156 551.693 23.3125C553.303 22.6094 555.178 22.2578 557.318 22.2578C559.35 22.2578 561.17 22.5938 562.779 23.2656C564.404 23.9219 565.709 24.9141 566.693 26.2422C567.678 27.5703 568.264 29.0156 568.451 30.5781C568.639 32.1406 568.732 34.875 568.732 38.7812V45.2734ZM558.865 32.8047C558.865 31.0391 558.764 29.9141 558.561 29.4297C558.373 28.9297 557.975 28.6797 557.365 28.6797C556.85 28.6797 556.451 28.8828 556.17 29.2891C555.904 29.6797 555.772 30.8516 555.772 32.8047V50.5234C555.772 52.7266 555.857 54.0859 556.029 54.6016C556.217 55.1172 556.639 55.375 557.295 55.375C557.967 55.375 558.397 55.0781 558.584 54.4844C558.772 53.8906 558.865 52.4766 558.865 50.2422V32.8047ZM613.441 23.0547V61H604.816V35.3828L601.371 61H595.253L591.621 35.9688V61H582.996V23.0547H595.769C596.144 25.3359 596.543 28.0234 596.964 31.1172L598.324 40.7734L600.574 23.0547H613.441ZM627.962 23.0547H644.415V30.6484H637.829V37.8438H643.993V45.0625H637.829V53.4062H645.071V61H627.962V23.0547ZM658.491 23.0547H665.475C670.131 23.0547 673.28 23.2344 674.92 23.5938C676.577 23.9531 677.92 24.875 678.952 26.3594C679.998 27.8281 680.522 30.1797 680.522 33.4141C680.522 36.3672 680.155 38.3516 679.42 39.3672C678.686 40.3828 677.241 40.9922 675.084 41.1953C677.038 41.6797 678.35 42.3281 679.022 43.1406C679.694 43.9531 680.108 44.7031 680.264 45.3906C680.436 46.0625 680.522 47.9297 680.522 50.9922V61H671.358V48.3906C671.358 46.3594 671.194 45.1016 670.866 44.6172C670.553 44.1328 669.717 43.8906 668.358 43.8906V61H658.491V23.0547ZM668.358 29.5469V37.9844C669.467 37.9844 670.241 37.8359 670.678 37.5391C671.131 37.2266 671.358 36.2344 671.358 34.5625V32.4766C671.358 31.2734 671.139 30.4844 670.702 30.1094C670.28 29.7344 669.498 29.5469 668.358 29.5469ZM717.473 45.2734C717.473 49.0859 717.379 51.7891 717.191 53.3828C717.019 54.9609 716.457 56.4062 715.504 57.7188C714.566 59.0312 713.293 60.0391 711.683 60.7422C710.074 61.4453 708.199 61.7969 706.058 61.7969C704.027 61.7969 702.199 61.4688 700.574 60.8125C698.965 60.1406 697.668 59.1406 696.683 57.8125C695.699 56.4844 695.113 55.0391 694.926 53.4766C694.738 51.9141 694.644 49.1797 694.644 45.2734V38.7812C694.644 34.9688 694.73 32.2734 694.902 30.6953C695.09 29.1016 695.652 27.6484 696.59 26.3359C697.543 25.0234 698.824 24.0156 700.433 23.3125C702.043 22.6094 703.918 22.2578 706.058 22.2578C708.09 22.2578 709.91 22.5938 711.519 23.2656C713.144 23.9219 714.449 24.9141 715.433 26.2422C716.418 27.5703 717.004 29.0156 717.191 30.5781C717.379 32.1406 717.473 34.875 717.473 38.7812V45.2734ZM707.605 32.8047C707.605 31.0391 707.504 29.9141 707.301 29.4297C707.113 28.9297 706.715 28.6797 706.105 28.6797C705.59 28.6797 705.191 28.8828 704.91 29.2891C704.644 29.6797 704.512 30.8516 704.512 32.8047V50.5234C704.512 52.7266 704.598 54.0859 704.769 54.6016C704.957 55.1172 705.379 55.375 706.035 55.375C706.707 55.375 707.137 55.0781 707.324 54.4844C707.512 53.8906 707.605 52.4766 707.605 50.2422V32.8047ZM748.47 22.3281L737.22 61.7266H730.048L741.368 22.3281H748.47ZM778.319 23.0547L783.967 61H773.866L773.374 54.1797H769.835L769.249 61H759.03L764.046 23.0547H778.319ZM773.092 47.4531C772.592 43.1562 772.092 37.8516 771.592 31.5391C770.592 38.7891 769.967 44.0938 769.717 47.4531H773.092ZM796.215 23.0547H812.926V30.6484H806.082V37.8438H812.176V45.0625H806.082V61H796.215V23.0547ZM825.9 23.0547H832.884C837.541 23.0547 840.689 23.2344 842.33 23.5938C843.986 23.9531 845.33 24.875 846.361 26.3594C847.408 27.8281 847.931 30.1797 847.931 33.4141C847.931 36.3672 847.564 38.3516 846.83 39.3672C846.095 40.3828 844.65 40.9922 842.494 41.1953C844.447 41.6797 845.759 42.3281 846.431 43.1406C847.103 43.9531 847.517 44.7031 847.673 45.3906C847.845 46.0625 847.931 47.9297 847.931 50.9922V61H838.767V48.3906C838.767 46.3594 838.603 45.1016 838.275 44.6172C837.962 44.1328 837.127 43.8906 835.767 43.8906V61H825.9V23.0547ZM835.767 29.5469V37.9844C836.877 37.9844 837.65 37.8359 838.087 37.5391C838.541 37.2266 838.767 36.2344 838.767 34.5625V32.4766C838.767 31.2734 838.548 30.4844 838.111 30.1094C837.689 29.7344 836.908 29.5469 835.767 29.5469ZM884.882 45.2734C884.882 49.0859 884.788 51.7891 884.601 53.3828C884.429 54.9609 883.866 56.4062 882.913 57.7188C881.976 59.0312 880.702 60.0391 879.093 60.7422C877.483 61.4453 875.608 61.7969 873.468 61.7969C871.437 61.7969 869.608 61.4688 867.983 60.8125C866.374 60.1406 865.077 59.1406 864.093 57.8125C863.108 56.4844 862.523 55.0391 862.335 53.4766C862.148 51.9141 862.054 49.1797 862.054 45.2734V38.7812C862.054 34.9688 862.14 32.2734 862.312 30.6953C862.499 29.1016 863.062 27.6484 863.999 26.3359C864.952 25.0234 866.233 24.0156 867.843 23.3125C869.452 22.6094 871.327 22.2578 873.468 22.2578C875.499 22.2578 877.319 22.5938 878.929 23.2656C880.554 23.9219 881.858 24.9141 882.843 26.2422C883.827 27.5703 884.413 29.0156 884.601 30.5781C884.788 32.1406 884.882 34.875 884.882 38.7812V45.2734ZM875.015 32.8047C875.015 31.0391 874.913 29.9141 874.71 29.4297C874.523 28.9297 874.124 28.6797 873.515 28.6797C872.999 28.6797 872.601 28.8828 872.319 29.2891C872.054 29.6797 871.921 30.8516 871.921 32.8047V50.5234C871.921 52.7266 872.007 54.0859 872.179 54.6016C872.366 55.1172 872.788 55.375 873.444 55.375C874.116 55.375 874.546 55.0781 874.733 54.4844C874.921 53.8906 875.015 52.4766 875.015 50.2422V32.8047ZM911.215 23.0547V48.4141C911.215 52.2109 911.176 54.6562 911.098 55.75C911.02 56.8281 910.661 57.8047 910.02 58.6797C909.395 59.5547 908.536 60.1641 907.442 60.5078C906.364 60.8359 904.731 61 902.543 61H897.598V54.3672C898.192 54.4141 898.622 54.4375 898.887 54.4375C899.59 54.4375 900.145 54.2656 900.551 53.9219C900.958 53.5781 901.192 53.1562 901.254 52.6562C901.317 52.1562 901.348 51.1875 901.348 49.75V23.0547H911.215ZM942.635 23.0547L948.283 61H938.182L937.689 54.1797H934.15L933.564 61H923.346L928.361 23.0547H942.635ZM937.408 47.4531C936.908 43.1562 936.408 37.8516 935.908 31.5391C934.908 38.7891 934.283 44.0938 934.033 47.4531H937.408ZM983.57 39.6016H973.703V32.9922C973.703 31.0703 973.593 29.875 973.374 29.4062C973.171 28.9219 972.71 28.6797 971.992 28.6797C971.179 28.6797 970.663 28.9688 970.445 29.5469C970.226 30.125 970.117 31.375 970.117 33.2969V50.9219C970.117 52.7656 970.226 53.9688 970.445 54.5312C970.663 55.0938 971.156 55.375 971.921 55.375C972.656 55.375 973.132 55.0938 973.351 54.5312C973.585 53.9688 973.703 52.6484 973.703 50.5703V45.8125H983.57V47.2891C983.57 51.2109 983.288 53.9922 982.726 55.6328C982.179 57.2734 980.953 58.7109 979.046 59.9453C977.156 61.1797 974.82 61.7969 972.038 61.7969C969.148 61.7969 966.765 61.2734 964.89 60.2266C963.015 59.1797 961.773 57.7344 961.163 55.8906C960.554 54.0312 960.249 51.2422 960.249 47.5234V36.4375C960.249 33.7031 960.343 31.6562 960.531 30.2969C960.718 28.9219 961.273 27.6016 962.195 26.3359C963.132 25.0703 964.421 24.0781 966.062 23.3594C967.718 22.625 969.617 22.2578 971.757 22.2578C974.663 22.2578 977.062 22.8203 978.953 23.9453C980.843 25.0703 982.085 26.4766 982.679 28.1641C983.273 29.8359 983.57 32.4453 983.57 35.9922V39.6016ZM1021.18 23.0547L1015.53 40.1875L1021.72 61H1011.52L1007.54 44.7344V61H997.669V23.0547H1007.54V37.7969L1011.92 23.0547H1021.18Z" fill="#FF7367"/>
<path d="M1099.84 23.0547V53.4062H1105.84V61H1089.98V23.0547H1099.84ZM1118.12 23.0547V61H1108.26V23.0547H1118.12ZM1145.12 39.6016H1135.26V32.9922C1135.26 31.0703 1135.15 29.875 1134.93 29.4062C1134.73 28.9219 1134.27 28.6797 1133.55 28.6797C1132.73 28.6797 1132.22 28.9688 1132 29.5469C1131.78 30.125 1131.67 31.375 1131.67 33.2969V50.9219C1131.67 52.7656 1131.78 53.9688 1132 54.5312C1132.22 55.0938 1132.71 55.375 1133.48 55.375C1134.21 55.375 1134.69 55.0938 1134.91 54.5312C1135.14 53.9688 1135.26 52.6484 1135.26 50.5703V45.8125H1145.12V47.2891C1145.12 51.2109 1144.84 53.9922 1144.28 55.6328C1143.73 57.2734 1142.51 58.7109 1140.6 59.9453C1138.71 61.1797 1136.38 61.7969 1133.59 61.7969C1130.7 61.7969 1128.32 61.2734 1126.45 60.2266C1124.57 59.1797 1123.33 57.7344 1122.72 55.8906C1122.11 54.0312 1121.8 51.2422 1121.8 47.5234V36.4375C1121.8 33.7031 1121.9 31.6562 1122.09 30.2969C1122.27 28.9219 1122.83 27.6016 1123.75 26.3359C1124.69 25.0703 1125.98 24.0781 1127.62 23.3594C1129.27 22.625 1131.17 22.2578 1133.31 22.2578C1136.22 22.2578 1138.62 22.8203 1140.51 23.9453C1142.4 25.0703 1143.64 26.4766 1144.23 28.1641C1144.83 29.8359 1145.12 32.4453 1145.12 35.9922V39.6016ZM1171.35 23.0547V61H1161.48V45.0625H1158.53V61H1148.66V23.0547H1158.53V36.625H1161.48V23.0547H1171.35ZM1195.21 23.0547V30.6484H1189.35V61H1179.48V30.6484H1173.65V23.0547H1195.21ZM1197.46 23.0547H1214.17V30.6484H1207.33V37.8438H1213.42V45.0625H1207.33V61H1197.46V23.0547ZM1232.64 23.0547L1238.29 61H1228.19L1227.7 54.1797H1224.16L1223.57 61H1213.35L1218.37 23.0547H1232.64ZM1227.41 47.4531C1226.91 43.1562 1226.41 37.8516 1225.91 31.5391C1224.91 38.7891 1224.29 44.0938 1224.04 47.4531H1227.41ZM1239.98 23.0547H1249.82C1252.93 23.0547 1255.28 23.2969 1256.88 23.7812C1258.48 24.2656 1259.78 25.25 1260.77 26.7344C1261.75 28.2031 1262.24 30.5781 1262.24 33.8594C1262.24 36.0781 1261.89 37.625 1261.19 38.5C1260.5 39.375 1259.13 40.0469 1257.09 40.5156C1259.37 41.0312 1260.91 41.8906 1261.73 43.0938C1262.54 44.2812 1262.95 46.1094 1262.95 48.5781V52.0938C1262.95 54.6562 1262.65 56.5547 1262.05 57.7891C1261.48 59.0234 1260.55 59.8672 1259.27 60.3203C1257.98 60.7734 1255.36 61 1251.39 61H1239.98V23.0547ZM1249.84 29.5469V37.9844C1250.27 37.9688 1250.59 37.9609 1250.83 37.9609C1251.8 37.9609 1252.41 37.7266 1252.68 37.2578C1252.95 36.7734 1253.08 35.4062 1253.08 33.1562C1253.08 31.9688 1252.97 31.1406 1252.75 30.6719C1252.53 30.1875 1252.24 29.8828 1251.88 29.7578C1251.54 29.6328 1250.86 29.5625 1249.84 29.5469ZM1249.84 43.8906V54.5078C1251.23 54.4609 1252.12 54.2422 1252.49 53.8516C1252.88 53.4609 1253.08 52.5 1253.08 50.9688V47.4297C1253.08 45.8047 1252.91 44.8203 1252.56 44.4766C1252.22 44.1328 1251.31 43.9375 1249.84 43.8906ZM1266.51 23.0547H1273.49C1278.15 23.0547 1281.3 23.2344 1282.94 23.5938C1284.59 23.9531 1285.94 24.875 1286.97 26.3594C1288.02 27.8281 1288.54 30.1797 1288.54 33.4141C1288.54 36.3672 1288.17 38.3516 1287.44 39.3672C1286.7 40.3828 1285.26 40.9922 1283.1 41.1953C1285.05 41.6797 1286.37 42.3281 1287.04 43.1406C1287.71 43.9531 1288.12 44.7031 1288.28 45.3906C1288.45 46.0625 1288.54 47.9297 1288.54 50.9922V61H1279.38V48.3906C1279.38 46.3594 1279.21 45.1016 1278.88 44.6172C1278.57 44.1328 1277.73 43.8906 1276.38 43.8906V61H1266.51V23.0547ZM1276.38 29.5469V37.9844C1277.48 37.9844 1278.26 37.8359 1278.7 37.5391C1279.15 37.2266 1279.38 36.2344 1279.38 34.5625V32.4766C1279.38 31.2734 1279.16 30.4844 1278.72 30.1094C1278.3 29.7344 1277.52 29.5469 1276.38 29.5469ZM1302.25 23.0547V61H1292.38V23.0547H1302.25ZM1306.21 23.0547H1322.66V30.6484H1316.08V37.8438H1322.24V45.0625H1316.08V53.4062H1323.32V61H1306.21V23.0547ZM1349.69 23.0547L1344.04 40.1875L1350.23 61H1340.03L1336.05 44.7344V61H1326.18V23.0547H1336.05V37.7969L1340.43 23.0547H1349.69Z" fill="white"/>
</svg>
