<svg width="1920" height="1157" viewBox="0 0 1920 1157" fill="none" xmlns="http://www.w3.org/2000/svg">
<path d="M0 656.367H29.2C58.3 656.367 116.7 656.367 174.8 656.367C233 656.367 291 656.367 349.2 656.367C407.3 656.367 465.7 656.367 523.8 656.367C582 656.367 640 656.367 698.2 656.367C756.3 656.367 814.7 656.367 872.8 656.367C931 656.367 989 656.367 1047.2 656.367C1105.3 656.367 1163.7 656.367 1221.8 656.367C1280 656.367 1338 656.367 1396.2 656.367C1454.3 656.367 1512.7 656.367 1570.8 656.367C1629 656.367 1687 656.367 1745.2 656.367C1803.3 656.367 1861.7 656.367 1890.8 656.367H1920V113.592L1890.8 106.022C1861.7 98.3087 1803.3 83.1681 1745.2 57.4577C1687 31.7473 1629 -4.53294 1570.8 0.466307C1512.7 5.46555 1454.3 51.7443 1396.2 80.0257C1338 108.307 1280 118.877 1221.8 95.7376C1163.7 72.5982 1105.3 16.0354 1047.2 3.18022C989 -9.67498 931 21.1775 872.8 57.172C814.7 93.1666 756.3 134.018 698.2 144.302C640 154.586 582 134.017 523.8 141.873C465.7 149.729 398.522 160.014 340.422 141.873C282.222 123.733 233 77.4547 174.8 51.7443C116.7 26.0339 58.3 46.8879 29.2 57.4577L0 67.8847V656.367Z" fill="#800080"/>
<path d="M0 1156.37H29.2C58.3 1156.37 116.7 1156.37 174.8 1156.37C233 1156.37 291 1156.37 349.2 1156.37C407.3 1156.37 465.7 1156.37 523.8 1156.37C582 1156.37 640 1156.37 698.2 1156.37C756.3 1156.37 814.7 1156.37 872.8 1156.37C931 1156.37 989 1156.37 1047.2 1156.37C1105.3 1156.37 1163.7 1156.37 1221.8 1156.37C1280 1156.37 1338 1156.37 1396.2 1156.37C1454.3 1156.37 1512.7 1156.37 1570.8 1156.37C1629 1156.37 1687 1156.37 1745.2 1156.37C1803.3 1156.37 1861.7 1156.37 1890.8 1156.37H1920V613.592L1890.8 606.022C1861.7 598.309 1803.3 583.168 1745.2 557.458C1687 531.747 1629 495.467 1570.8 500.466C1512.7 505.466 1454.3 551.744 1396.2 580.026C1338 608.307 1280 618.877 1221.8 595.738C1163.7 572.598 1105.3 516.035 1047.2 503.18C989 490.325 931 521.177 872.8 557.172C814.7 593.167 756.3 634.018 698.2 644.302C640 654.586 582 634.017 523.8 641.873C465.7 649.729 398.522 660.014 340.422 641.873C282.222 623.733 233 577.455 174.8 551.744C116.7 526.034 58.3 546.888 29.2 557.458L0 567.885V1156.37Z" fill="#800080"/>
</svg>
