<svg width="1158" height="551" viewBox="0 0 1158 551" fill="none" xmlns="http://www.w3.org/2000/svg">
<path d="M912.53 362.625C915.555 365.637 915.459 376.826 915.385 380.821C915.368 381.829 915.154 382.546 914.718 383.467C914.673 383.561 914.633 383.656 914.594 383.75C913.83 382.802 913.814 380.304 913.672 379.092L913.31 378.726L913.519 377.621C913.401 379.109 913.412 380.605 913.401 382.097C912.479 383.163 912.089 383.005 910.698 383.208C912.1 380.503 911.676 377.204 910.755 374.431L912.343 374.749C914.023 372.632 912.886 365.315 912.53 362.625Z" fill="#800080" fill-opacity="0.984314"/>
<path d="M840.093 322.363C845.747 327.468 845.515 383.979 849.569 390.076C849.01 390.194 847.72 390.278 847.443 390.728C844 396.322 849.897 408.161 845.408 412.723C845.51 412.459 845.6 412.19 845.679 411.92C847.285 406.555 840.573 335.111 837.814 330.305C838.764 330.376 839.403 330.687 840.24 331.101L839.889 331.199L840.325 330.269L840.952 330.072C840.732 327.494 840.545 324.916 840.093 322.363Z" fill="#800080" fill-opacity="0.988235"/>
<path d="M910.698 383.208C912.089 383.005 912.479 383.163 913.401 382.097C913.412 380.605 913.401 379.109 913.52 377.621L913.31 378.726L913.672 379.092C913.814 380.304 913.831 382.802 914.594 383.75C915.289 384.871 915.99 386.106 915.674 387.467C915.363 388.813 914.402 389.614 913.141 390.172C909.296 391.875 903.167 391.337 898.994 391.243C901.205 395.198 899.457 399.387 905.032 401.077C912.326 403.287 929.103 398.132 933.253 405.388C933.385 405.62 933.506 405.857 933.615 406.101C933.72 406.344 933.815 406.592 933.898 406.845C933.977 407.097 934.043 407.353 934.096 407.612C934.148 407.871 934.188 408.132 934.214 408.395C934.241 408.658 934.252 408.921 934.248 409.185C934.244 409.449 934.227 409.712 934.197 409.975C934.163 410.237 934.118 410.497 934.062 410.755C934.001 411.013 933.928 411.267 933.841 411.518C932.331 415.972 927.31 419.323 923.098 421.27C908.295 428.109 868.121 435.259 853.199 430.387C850.966 429.656 849.502 428.446 848.478 426.407C846.493 422.464 847.828 416.067 845.408 412.723C849.897 408.161 844 396.322 847.443 390.728C847.72 390.277 849.01 390.194 849.569 390.076C858.927 390.837 867.788 389.748 877.106 389.186C885.949 388.653 894.906 388.467 903.715 387.5C906.378 387.208 909.386 387.135 911.133 385.032L910.698 383.208ZM886.085 392.533C873.838 393.914 861.602 394.429 849.281 394.873C849.321 394.953 849.366 395.033 849.4 395.114C853.301 403.752 845.295 422.18 855.925 426.509C862.885 429.341 882.438 427.858 889.506 425.403C889.545 425.39 889.579 425.372 889.613 425.356C899.525 424.502 921.362 421.055 928.102 413.252C929.199 411.984 930.087 410.245 929.866 408.558C929.702 407.274 929.092 406.362 927.904 405.737C920.203 401.7 901.804 411.049 897.309 400.137C896.381 397.893 896.851 394.041 894.34 392.883C892.073 391.835 888.528 392.379 886.085 392.533Z" fill="#800080"/>
<path d="M420.53 45.4045C422.114 45.1909 423.296 45.1193 424.883 45.4392C427.823 50.2151 428.092 59.3503 429.116 64.8339L435.075 96.4497C436.312 103.237 437.247 110.237 438.935 116.924C442.355 130.476 469.259 113.093 477.056 118.116C479.292 119.557 480.725 132.513 481.344 135.795C475.517 136.999 469.577 137.911 463.713 138.951C454.635 140.371 431.043 146.256 423.524 144.683C420.5 141.492 403.783 58.1375 402.163 48.1121C408.251 46.9992 414.393 46.222 420.53 45.4045Z" fill="#800080"/>
<path d="M384.304 344.549C385.702 344.452 385.802 344.327 386.879 345.145C388.241 348.842 388.626 353.198 389.329 357.062C390.68 364.612 392.071 372.155 393.502 379.691C396.316 394.024 398.928 408.42 401.906 422.721C404.338 434.398 407.531 446.315 408.557 458.188C399.843 458.926 391.454 460.439 382.945 462.289C382.648 462.141 382.37 461.988 382.113 461.779C380.867 460.765 380.458 458.296 380.125 456.833C378.292 448.777 377.191 440.507 375.584 432.4C372.336 416.002 368.858 399.666 365.752 383.237C364.283 375.467 362.885 367.675 361.308 359.925C360.597 356.426 359.407 352.91 358.998 349.382C362.076 347.268 379.516 345.325 384.304 344.549Z" fill="#800080"/>
<path d="M663.978 121.873C666.834 121.448 669.734 120.841 672.369 122.293C672.85 122.558 672.833 123.076 672.969 123.569L672.251 124.605C664.651 129.212 512.055 152.809 489.927 156.455L237.633 197.455C200.414 203.547 163.156 209.409 125.858 215.04C102.199 218.738 78.5291 222.896 54.7706 225.949C53.2932 226.235 51.5408 226.65 50.0396 226.368C48.5657 226.09 46.6932 225.284 45.8418 224.077L46.0514 223.268C48.0709 221.335 51.9652 220.706 54.7127 220.224C73.4013 216.938 92.415 214.663 111.196 211.772L233.867 192.565L550.662 140.884C576.728 136.83 602.765 132.612 628.775 128.232C640.287 126.281 652.777 124.924 663.978 121.873Z" fill="#800080"/>
<path d="M708.823 428.584C709.824 428.463 710.96 428.269 711.961 428.34C713.312 428.436 714.194 429.69 714.975 430.622C715.223 431.954 715.365 432.028 714.607 433.147C709.914 435.64 660.422 442.357 650.719 443.987C532.926 463.782 415.004 482.857 296.954 501.21L140.204 526.627L92.3873 534.254C78.6004 536.495 64.8129 538.958 50.9084 540.443C49.1154 540.33 48.6394 540.292 47.1171 539.259C46.5106 538.065 46.449 538.071 46.8504 536.815C49.5401 534.449 55.4975 534.109 59.062 533.478C80.1604 529.74 101.466 526.986 122.634 523.604L257.643 501.82L638.217 440.153C661.643 436.291 685.6 433.372 708.823 428.584Z" fill="#800080"/>
<path d="M621.011 301.593C622.713 301.494 623.646 301.257 625.19 301.981C627.949 308.41 629.385 321.333 630.839 328.64C634.19 344.969 637.654 361.276 641.231 377.563C642.051 381.271 645.528 391.313 644.301 394.636C656.011 393.816 680.252 386.311 690 387.758C692.199 390.6 693.358 400.58 694.054 404.445C694.246 405.52 694.133 406.374 693.426 407.253C690.135 411.336 674.784 412.089 669.401 412.681C653.784 415.898 637.827 418.89 621.973 420.823C622.114 420.024 622.137 419.302 621.967 418.508L602.081 326.731C601.103 322.042 599.779 309.024 597.772 305.647C605.394 303.949 613.542 303.715 621.011 301.593Z" fill="#800080"/>
<path d="M530.885 28.7036C531.43 28.6793 531.931 28.8197 532.461 28.9286C534.55 31.4151 535.336 42.4568 535.885 46.255C526.908 48.5476 501.959 48.9016 496.028 52.9172C494.934 56.0594 498.833 68.9568 500.289 72.4032C512.394 71.6467 524.744 69.2172 536.745 67.4765C538.002 73.3589 539.398 79.2014 540.568 85.1026C528.449 87.1979 516.104 88.2493 504.048 90.6368C505.486 98.2066 507.28 105.715 508.306 113.351C518.531 111.433 539.151 106.685 548.88 107.59C549.965 108.505 549.917 109.897 550.187 111.232C551.219 115.216 552.577 120.89 552.012 124.944C550.402 125.77 496.494 133.986 491.118 134.652C485.832 114.455 481.156 94.1299 477.09 73.678C474.63 61.938 471.551 49.9915 470.445 38.0624C477.441 36.3471 484.928 35.6111 492.065 34.5358L530.885 28.7036Z" fill="#800080"/>
<path d="M347.489 351.027C348.388 350.786 349.404 350.874 350.336 350.882C352.117 352.247 354.146 368.794 354.866 371.888C345.353 373.505 335.851 375.181 326.36 376.914C327.544 386.561 329.59 396.189 331.382 405.75C335.266 426.465 339.589 447.141 343.035 467.925C334.553 471.15 325.045 471.861 316.023 472.713C314.728 464.883 313.552 456.234 311.207 448.651C310.7 441.302 308.343 433.441 306.872 426.184L298.114 381.887C288.197 382.817 278.454 384.662 268.671 386.406C267.124 379.397 266.191 372.202 265.146 365.112C292.498 359.909 319.946 355.214 347.489 351.027Z" fill="#800080"/>
<path d="M100.908 393.497C101.504 393.395 102.033 393.538 102.623 393.637C105.318 396.738 106.386 409.883 107.587 414.528C99.4721 416.519 66.4894 418.928 62.3771 422.929C61.7896 428.877 65.5169 440.575 67.6446 446.419C81.1459 445.296 94.2187 440.838 107.83 439.828C110.55 445.727 111.285 452.551 112.159 458.888C101.576 463.784 88.9087 462.362 77.6946 464.459C75.8156 464.81 74.1895 465.545 73.1293 467.141C69.4393 472.698 74.6395 488.629 75.9412 494.764C78.2176 498.609 78.2018 507.164 78.3833 511.559C74.3107 512.616 70.1932 513.478 66.0309 514.146C61.8682 514.814 57.6812 515.284 53.47 515.557C51.0567 502.518 31.1831 410.678 32.7112 405.479C33.6033 404.404 34.6954 404.241 36.0409 403.941C42.4457 402.513 49.2104 402.103 55.7116 401.054L100.908 393.497Z" fill="#800080"/>
<path d="M104.796 93.8411C105.98 93.642 106.839 93.7174 108.01 93.9622C111.403 97.4511 124.59 178.247 127.974 190.579C121.263 191.266 111.917 194.3 105.442 193.25C102.385 188.79 98.7421 162.677 96.9271 155.348C86.3321 155.625 74.3642 157.624 64.096 160.115C64.9899 173.05 69.5071 185.841 70.0189 198.787C63.6165 200.993 56.6165 201.492 49.8961 202.283L48.8366 202.031C47.0774 199.522 31.8305 116.312 29.8357 106.108C36.9816 104.149 44.5083 103.202 51.8496 102.142C55.7757 115.309 57.3063 129.397 60.6124 142.791C67.9867 142.43 86.8952 139.938 93.1184 137.002C94.9662 134.015 86.9179 104.525 87.3301 97.0906L87.3459 96.8485C92.7559 94.962 99.0933 94.5482 104.796 93.8411Z" fill="#800080"/>
<path d="M498.992 324.646C500.291 324.493 501.02 324.371 502.176 325.013C504.141 329.492 484.436 401.555 481.958 411.468C478.797 424.106 477.125 437.975 472.078 450.028C467.237 442.905 461.633 436.192 456.424 429.305C443.059 411.635 429.327 394.024 416.623 375.927C407.858 365.401 400.14 353.917 391.761 343.085C398.86 341.453 416.162 337.74 422.768 338.829C428.621 342.349 454.456 384.557 460.817 394.036C464.063 381.284 470.092 337.401 476.074 329.248C481.575 325.951 492.408 325.62 498.992 324.646Z" fill="#800080"/>
<path d="M228.463 369.827C242.37 368.876 253.144 373.418 264.726 380.397C261.104 385.674 258.59 391.551 254.934 396.817C247.025 393.173 238.519 388.796 229.472 391.332C224.662 392.68 221.533 395.955 219.252 400.048L219.53 406.79C235.719 417.96 258.682 412.727 273.781 426.635C280.286 432.628 284.611 442.01 284.636 450.649C284.654 457.14 281.073 467.682 276.081 472.29C264.69 482.804 254.864 487.099 238.868 486.915C226.589 485.274 216.345 480.532 206.289 473.823C207.983 466.763 210.976 459.674 213.807 452.959C225.017 457.07 231.154 466.168 245.432 464.198C249.887 463.584 254.209 461.459 256.894 457.952C258.675 455.628 259.278 452.78 258.719 449.949C256.375 438.071 231.362 437.745 222.076 435.735C216.34 434.494 210.569 432.586 205.712 429.359C199.642 425.324 195.863 419.471 194.702 412.524C193.202 403.539 195.082 392.547 200.726 385.104C207.33 376.395 217.509 371.486 228.463 369.827Z" fill="#800080"/>
<path d="M352.613 57.8044C353.252 57.699 353.864 57.6494 354.511 57.6941C364.365 58.3786 374.244 60.9764 380.88 68.4472C386.781 75.0915 390.1 84.7157 389.16 93.3934C388.321 101.146 383.994 106.171 377.869 110.869C390.663 122.111 402.483 134.44 414.451 146.468C406.086 148.343 398.445 149.771 389.815 149.557C380.455 143.053 372.067 132.422 364.019 124.321C362.319 122.643 360.495 121.074 358.709 119.479C356.436 119.533 353.88 119.61 351.645 120.017C350.142 120.291 349.306 120.522 348.461 121.727C347.632 130.049 352.613 146.502 354.753 155.101C347.384 156.686 339.433 157.243 331.935 158.473C330.651 148.342 328.114 138.186 326.101 128.158C323.826 116.827 321.924 105.379 319.382 94.1042C317.065 83.8246 314.233 73.5251 312.706 63.1062C326.014 62.5041 339.336 59.1652 352.613 57.8044ZM345.956 76.7197L339.102 76.9942C340.48 86.3036 342.069 95.472 344.171 104.661C348.592 104.383 352.947 103.949 357.18 102.625C360.249 101.262 362.469 99.8548 364.745 97.4796C366.123 92.377 366.627 87.32 363.596 82.5747C361.624 79.4877 358.434 77.4849 354.749 76.6934C351.948 76.0918 348.788 76.426 345.956 76.7197Z" fill="#800080"/>
<path d="M180.813 380.071L181.592 380.093C184.419 383.497 186.524 395.727 187.866 400.449C173.416 404.676 154.837 403.044 141.598 409.763C142.305 414.043 143.075 428.077 146.413 430.53C150.11 433.246 174.682 426.489 179.953 425.659C182.241 425.299 184.841 424.895 186.849 426.258C189.243 430.955 191.149 439.422 190.877 444.56C190.092 445.44 189.197 445.838 188.053 446.135C175.838 449.3 162.781 448.704 150.161 452.893C150.146 458.404 151.53 469.412 153.564 474.576C156.373 481.706 191.156 467.486 198.132 470.843C199.376 471.441 199.549 472.918 199.982 474.093C200.473 479.834 201.83 485.737 202.795 491.43C194.879 493.071 186.728 494.103 178.739 495.416L133.664 502.926C129.903 494.865 111.472 395.417 112.365 392.353C114.939 389.909 173.041 381.314 180.813 380.071Z" fill="#800080"/>
<path d="M638.274 11.5667C640.293 11.2894 642.04 11.1664 644.064 11.406C644.296 11.6405 644.505 11.8284 644.618 12.1401C646.97 18.4573 647.57 26.7697 648.791 33.43C651.72 49.4327 654.541 65.4888 657.798 81.4345C658.618 85.4534 664.052 106.629 663.113 109.101C656.334 111.57 646.936 112.174 639.688 112.713C639.761 112.361 639.823 112.012 639.846 111.654C640.038 109.097 632.654 73.0888 631.11 68.0856C630.646 66.6 629.99 65.4748 628.927 64.3131C628.911 64.5273 628.899 64.9131 628.837 65.1434C627.949 68.4897 610.511 94.8048 607.82 96.6462C607.407 95.7777 580.137 71.1231 577.174 68.8395C574.918 72.7573 583.902 95.0061 582.082 100.829C582.053 100.92 582.019 101.009 581.986 101.099C582.347 101.482 582.636 101.834 582.862 102.305C584.683 106.054 587.549 115.493 586.175 119.319C581.03 122.362 570.417 122.317 564.468 122.473C560.386 110.078 558.448 96.1969 555.713 83.4485L547.682 45.393C546.617 40.4581 545.165 35.5606 544.24 30.6079C544.082 29.7671 543.757 27.9681 544.342 27.2579C545.784 25.5079 552.657 25.0817 554.966 24.7319C566.187 36.2415 579.775 46.3774 592.101 56.8391C595.55 59.7631 600.362 62.842 603.2 66.1819C607.566 62.6144 610.376 55.8872 612.988 51.0728C617.63 42.5217 631.251 15.9273 638.274 11.5667Z" fill="#800080"/>
<path d="M532.921 315.017C533.279 315.24 533.606 315.467 533.941 315.721C538.836 319.431 556.753 344.296 562.051 351.04L592.729 390.064C599.864 398.977 607.294 407.707 614.221 416.765C615.346 418.242 616.726 419.78 616.94 421.648C613.18 423.306 596.777 426.262 592.09 426.507C582.229 427.023 581.115 415.519 575.008 410.473C573.436 409.173 572.277 409.503 570.383 409.646C562.863 410.765 539.346 413.094 534.417 416.736C530.941 419.304 531.95 433.718 528.769 435.684C525.482 437.716 503.487 441.965 499.756 441.023C499.605 440.34 505.521 420.87 506.303 417.744L532.921 315.017ZM544.348 369.038C541.776 376.79 539.332 385.569 539.009 393.699C543.991 392.953 548.962 392.139 553.92 391.256L560.663 389.878C555.029 383.357 550.752 374.74 544.348 369.038Z" fill="#800080"/>
<path d="M140.396 221.338C141.611 221.107 142.429 221.022 143.628 221.356C143.741 221.539 143.939 221.84 144.032 222.052C146.613 227.886 162.345 318.544 162.623 328.607C162.796 334.908 161.745 340.726 158.983 346.477C158.809 346.833 158.63 347.188 158.446 347.54C158.263 347.892 158.075 348.242 157.883 348.59C157.69 348.938 157.494 349.283 157.292 349.627C157.091 349.97 156.885 350.311 156.675 350.649C156.465 350.987 156.251 351.323 156.032 351.657C155.813 351.991 155.59 352.321 155.363 352.65C155.136 352.978 154.905 353.303 154.669 353.626C154.434 353.949 154.194 354.269 153.95 354.587C153.707 354.904 153.459 355.218 153.207 355.53C152.955 355.841 152.699 356.15 152.439 356.456C152.18 356.761 151.916 357.064 151.649 357.363C151.381 357.662 151.11 357.959 150.835 358.252C150.559 358.545 150.28 358.835 149.998 359.122C149.715 359.408 149.429 359.692 149.139 359.972C148.85 360.252 148.556 360.528 148.259 360.802C147.962 361.075 147.662 361.344 147.358 361.61C147.054 361.877 146.746 362.139 146.436 362.398C146.125 362.658 145.811 362.913 145.494 363.164C145.177 363.416 144.856 363.664 144.533 363.909C144.209 364.153 143.882 364.393 143.553 364.63C143.223 364.867 142.89 365.099 142.554 365.329C142.219 365.557 141.88 365.782 141.538 366.003C141.197 366.224 140.852 366.441 140.505 366.654C140.159 366.868 139.809 367.076 139.456 367.281C139.104 367.486 138.749 367.687 138.391 367.884C138.033 368.081 137.673 368.273 137.311 368.461C136.948 368.65 136.583 368.834 136.216 369.013C135.849 369.193 135.479 369.369 135.107 369.54C134.735 369.711 134.362 369.878 133.985 370.04C133.61 370.203 133.231 370.361 132.851 370.515C132.471 370.668 132.089 370.817 131.705 370.962C131.321 371.107 130.935 371.247 130.548 371.383C107.12 379.643 81.5174 372.955 59.7727 363.423L51.1644 359.643C57.7541 349.457 64.9928 339.291 70.8093 328.702C81.3235 333.887 96.1163 341.943 108.27 339.949C112.067 339.326 115.621 337.591 117.844 334.52C119.402 332.368 119.833 330.674 119.786 328.082C119.551 315.073 115.807 301.179 113.516 288.358C109.869 267.955 106.615 247.403 102.661 227.063L140.396 221.338Z" fill="#800080"/>
<path d="M260.129 69.871C267.116 72.1363 320.408 147.363 330.654 158.963C322.332 159.931 314.026 161.354 305.734 162.554C302.307 157.254 298.495 152.219 294.295 147.45C291.373 147.528 288.479 147.88 285.582 148.234C280.691 148.832 261.785 150.567 259.026 153.805C257.162 155.994 256.696 160.19 256.141 162.907C255.681 165.163 255.445 167.99 253.949 169.833C247.766 173.353 218.445 177.134 210.296 177.769C204.681 173.693 201.312 167.955 197.464 162.47C189.22 163.515 170.987 164.753 164.36 168.308C162.611 169.246 161.268 170.808 160.842 172.696C160.07 176.106 161.257 180.313 158.734 183.218C155.861 186.527 151.776 186.447 147.626 186.896C144.196 187.431 139.58 189.037 136.187 188.586C135.521 186.992 136.029 185.576 136.409 183.926C140.443 166.444 146.105 149.15 150.707 131.771C154.678 116.773 157.46 101 162.934 86.4435C163.898 85.8957 164.641 85.8231 165.748 85.7359C167.634 86.4817 169.165 88.6173 170.4 90.1138C174.693 95.3144 178.327 101.014 182.488 106.312L231.27 168.753C235.852 158.933 237.841 147.514 240.586 137.102L252.022 94.8882C254.117 86.973 255.755 76.8774 260.129 69.871ZM268.534 112.952C266.126 120.022 263.995 126.902 262.912 134.292C267.795 133.784 272.669 133.208 277.534 132.565L283.499 131.819C281.312 127.516 272.963 114.819 268.534 112.952ZM172.912 127.756C170.752 134.967 169.727 142.393 166.954 149.465C171.294 148.838 175.808 148.42 180.089 147.54L187.472 146.669C182.884 141.709 177.944 131.133 172.912 127.756Z" fill="#800080"/>
<path d="M640.756 138.552C642.656 138.308 644.443 138.121 646.365 138.2C646.614 141.867 593.102 243.364 586.322 255.613C610.014 252.97 633.327 247.275 656.899 243.739C657.125 243.953 657.374 244.198 657.538 244.457C659.704 247.816 665.358 274.321 664.267 277.703C661.394 279.213 632.71 283.103 626.513 284.136L525.749 301.103C521.6 302.138 517.529 302.888 513.263 303.291C518.32 291.247 525.322 279.487 531.342 267.837L555.643 219.607C561.065 209.092 568.607 197.827 571.627 186.429C564.203 186.692 556.519 188.577 549.223 189.894C534.497 192.554 519.779 195.467 504.812 196.568C503.889 184.796 500.503 173.19 498.083 161.64C526.926 157.162 555.736 152.5 584.513 147.654C603.217 144.605 622.159 142.138 640.756 138.552Z" fill="#800080"/>
<path d="M484.237 164.861C485.156 164.703 485.28 164.724 486.151 165.049C486.406 166.382 485.827 167.485 485.199 168.655C482.633 173.439 479.407 178.037 476.745 182.821C466.843 200.618 457.351 218.673 447.7 236.606C439.226 252.354 430.322 268.121 423.181 284.464C447.868 280.771 472.15 274.242 497.081 271.877C498.901 283.124 501.757 294.082 503.321 305.429C495.175 307.278 486.668 308.367 478.419 309.786L430.499 318.015C388.399 325.198 346.094 332.823 303.753 338.563C298.965 332.816 294.501 326.781 289.958 320.856C278.688 322.666 246.076 325.893 238.197 331.068C235.91 336.935 235.213 347.74 230.064 351.728C228.497 352.942 226.528 353.712 224.58 354.17C222.776 354.594 186.488 359.835 186.27 359.812C185.674 357.205 207.407 293.417 210.517 284.251C210.671 281.691 236.795 206.672 238.105 205.042C239.957 204.293 241.539 204.097 243.54 203.989C244.073 204.139 244.53 204.325 244.953 204.684C247.643 206.967 251.574 212.504 254.092 215.358C265.699 228.513 276.845 241.887 288.043 255.356C308.544 280.013 330.248 303.914 350.136 329C358.708 314.468 366.168 299.505 373.852 284.543C381.007 270.571 388.251 256.643 395.586 242.757C400.728 232.796 405.535 222.513 411.242 212.838C388.629 216.779 365.746 220.861 342.931 223.488C339.728 212.619 337.84 200.572 336.249 189.383C344.231 187.385 352.557 186.209 360.674 184.812C374.757 182.398 388.853 180.057 402.963 177.791C429.978 173.398 457.063 168.165 484.237 164.861ZM254.42 274.652C253.054 277.894 246.81 295.992 247.533 297.899C251.619 297.767 255.649 296.978 259.667 296.311C263.115 295.756 266.624 295.297 270.024 294.527C266.148 288.124 260.305 279.393 254.42 274.652Z" fill="#800080"/>
<path d="M679.827 101.579C681.19 98.9777 682.055 95.9504 683.706 93.5398C688.088 87.1425 698.176 82.6602 705.554 80.3115C720.239 75.6377 741.182 74.0869 755.431 80.92C759.225 82.7404 762.499 85.4798 763.788 89.446C764.614 91.9874 764.608 94.7951 763.29 97.1842C761.334 100.724 756.415 102.081 753.995 105.385C752.841 106.954 754.17 109.956 754.13 111.798C754.04 116.771 750.314 121.408 750.399 125.985C756.437 127.576 761.283 118.919 772.637 123.356C774.503 124.084 776.793 125.404 777.85 127.095C777.986 127.31 778.014 127.383 778.11 127.59C783.855 126.482 789.555 125.456 795.407 125.012C797.437 126.756 798.862 128.764 801.333 130.004C810.023 134.357 848.094 144.086 857.542 143.618C875.834 142.713 889.466 107.16 909.511 124.226C915.657 129.458 918.761 138.512 919.129 146.211C919.615 156.592 915.685 169.253 908.278 177.036C904.32 181.195 898.999 184.296 893 184.595C876.489 185.418 861.619 161.197 848.037 162.125C848.97 167.324 852.555 173.19 848.863 178.152C846.771 180.965 843.186 182.495 839.703 183.033C831.182 184.348 808.745 172.961 805.539 176.834C804.301 178.333 803.476 181.054 802.757 182.853C800.428 188.683 794.604 191.723 788.486 193.167C795.39 195.652 802.113 199.937 808.321 203.717C840.89 223.546 858.017 243.458 877.971 274.397C882.918 282.073 888.358 289.658 892.305 297.874C892.751 298.801 893.028 299.729 893.209 300.731C896.33 297.808 898.242 292.622 900.763 289.068C903.579 285.091 909.443 279.613 911.116 275.541C911.082 275.389 911.049 275.235 911.009 275.083C909.646 269.596 906.469 267.954 906.717 260.677C906.796 258.418 907.198 256.46 907.888 254.306C910.393 246.476 914.124 239.017 917.036 231.318C920.859 221.212 923.29 209.93 929.007 200.634C930.906 197.542 933.722 196.062 937.341 195.196C941.316 194.244 946.591 194.244 950.465 195.756C951.748 192.097 952.828 186.295 950.713 182.709C950.499 182.345 950.482 182.356 950.227 182.101C944.545 180.421 938.907 179.041 935.922 173.631C934.209 170.521 934.197 167.063 935.379 163.78C938.082 156.277 945.427 149.954 952.834 146.619C965.85 140.752 983.039 139.897 996.604 144.54C1002.18 146.447 1008.72 150.433 1011.18 155.77C1012.74 159.123 1011.77 163.863 1010.34 167.095C1008.44 171.363 1004.27 175.004 1000.26 177.475C1002.44 183.013 999.504 192.581 996.813 197.762C996.547 198.27 996.14 198.673 995.693 199.045C998.679 200.809 1007.27 208.387 1008.21 211.408L1008.68 211.277C1014.43 209.61 1024.81 202.463 1030.9 205.469C1032.66 206.336 1033.19 209.111 1034.86 210.321C1037.46 212.211 1040.95 211.264 1043.55 213.768C1043.04 217.585 1041.52 221.385 1044.3 224.771C1045.96 226.801 1048.66 227.58 1051.25 227.848C1061.05 228.862 1068.39 224.415 1075.56 218.785C1087.94 209.067 1099.69 199.69 1116.77 201.251C1127.84 202.261 1137.8 206.333 1144.97 214.601C1153.22 224.132 1155.77 236.873 1154.5 248.94C1152.58 267.142 1141.61 284.381 1126.83 295.844C1117.83 302.818 1106.55 306.433 1094.92 305.299C1082.2 304.057 1066.42 293.851 1058.56 284.651C1054.96 280.43 1051.38 273.06 1046.85 270.043C1046.31 275.774 1036.54 284.485 1032.15 287.976C1025.11 293.576 1017.02 296.663 1007.98 297.878C1024.93 304.447 1040.67 322.047 1050.65 336.232C1052.82 339.309 1055.87 343.373 1057.03 346.875C1057.24 347.523 1057.2 348.06 1057.1 348.716C1058.73 350.217 1059.93 351.534 1059.93 353.808C1059.94 354.1 1059.93 354.393 1059.91 354.685C1064.22 358.025 1068.17 377.524 1068.81 383.459C1071.69 410.211 1058.69 432.767 1042.99 453.909C1038.84 459.509 1034.73 465.233 1030.17 470.544C1027.45 473.711 1024.27 477.428 1020.54 479.534C1024.26 482.144 1033.9 496.074 1034.48 500.743C1034.55 501.27 1034.52 501.735 1034.4 502.249C1034.46 503.678 1033.72 505.584 1032.68 506.643C1031.7 507.647 1030.01 508.037 1028.61 507.949C1024.17 507.675 1019.94 504.529 1017.2 501.426C1013.93 497.738 1010.89 493.389 1006.89 490.419C999.663 485.052 980.794 479.14 981.886 468.474C982.428 463.215 988.456 459.072 990.508 454.212C989.689 451.991 987.025 449.812 985.075 448.401C984.933 454.695 963.803 468.435 971.849 476.293C974.298 478.686 982.711 481.124 983.995 484.027C985.583 485.97 986.878 488.409 986.63 490.96C986.449 492.833 984.046 494.901 982.519 496.017C981.134 497.028 978.838 497.028 977.193 496.763C967.716 495.233 935.662 478.398 930.251 471.103C928.628 468.919 927.389 466.496 925.767 464.292C928.266 462.003 929.855 457.705 930.154 454.452C928.351 452.608 925.891 451.353 923.669 450.018C927.678 446.538 931.07 442.045 934.463 438.012C946.659 423.507 960.015 406.414 960.97 387.116C961.338 379.571 959.133 372.384 953.688 366.747C943.357 356.053 926.196 352.772 911.591 352.337C911.071 352.323 910.551 352.319 910.031 352.325C911.337 354.653 913.536 359.639 912.66 362.28C912.62 362.397 912.575 362.51 912.53 362.625C912.886 365.315 914.023 372.632 912.343 374.749L910.755 374.431C911.676 377.204 912.1 380.503 910.698 383.208L911.133 385.032C909.386 387.135 906.378 387.208 903.715 387.5C894.906 388.467 885.949 388.653 877.106 389.186C867.788 389.748 858.927 390.837 849.569 390.076C845.515 383.979 845.747 327.468 840.093 322.363C840.545 324.916 840.732 327.494 840.952 330.072L840.325 330.269L839.889 331.199L840.24 331.101C839.403 330.687 838.764 330.376 837.814 330.305C840.291 319.329 822.282 279.667 815.723 269.966C814.021 267.449 812.522 265.517 809.808 263.916C809.599 263.792 809.401 263.652 809.203 263.52L808.836 263.283C811.584 267.267 812.076 273.226 812.946 277.893C817.385 301.72 818.539 326.06 813.365 349.89C811.414 358.869 801.638 393.297 795.548 397.768C793.417 397.495 791.087 396.97 789.04 397.768C787.915 398.699 787.485 399.818 787.383 401.205C787.248 403.099 788.186 404.746 789.509 406.093C793.439 410.088 808.197 414.631 808.44 420.056C808.519 421.801 807.405 423.458 806.127 424.62C801.971 428.402 796.165 429.544 790.612 429.314C787.157 429.17 783.793 428.582 780.468 427.68C771.857 425.346 734.595 412.065 729.393 406.529C728.059 405.106 727.934 403.126 728.059 401.276C728.601 393.352 737.79 381.531 737.433 376.009C737.332 375.876 737.23 375.74 737.122 375.609C735.121 373.202 730.925 373.916 730.795 369.986C734.584 363.623 737.219 356.256 739.955 349.437C748.974 327.006 755.81 305.051 748.849 281.147C742.652 259.862 728.019 241.315 712.854 224.988C709.659 221.551 703.988 218.597 701.579 214.859C700.211 212.743 700.748 210.472 701.987 208.45C702.331 207.879 702.699 207.326 703.106 206.793L703.05 206.638L702.897 206.168C701.404 201.704 698.571 197.752 696.994 193.32C692.906 181.847 690.248 169.789 686.658 158.152C683.989 149.491 680.144 140.928 678.188 132.112C677.577 129.358 676.44 125.256 677.911 122.667C679.494 119.88 684.006 115.722 687.257 115.007C692.957 113.755 699.872 117.996 702.959 117.255C702.959 116.81 703.112 116.493 702.756 116.17C698.311 112.124 689.722 114.033 685.386 110.034C682.796 107.647 682.134 104.154 679.827 101.579ZM734.651 369.455C737.139 370.076 792.297 393.588 793.151 394.179C796.289 391.251 798.127 385.395 799.806 381.544C812.602 352.186 815.112 318.046 810.617 286.773C809.803 281.077 804.341 261.716 806.942 257.507C808.106 257.085 808.655 257.052 809.887 257.406C814.671 258.782 819.545 267.896 821.795 271.831C825.968 279.126 842.564 314.412 840.093 322.363C845.747 327.468 845.515 383.979 849.569 390.076C858.927 390.837 867.788 389.748 877.106 389.186C885.949 388.653 894.906 388.467 903.715 387.5C906.378 387.208 909.386 387.135 911.133 385.032L910.698 383.208C912.1 380.503 911.676 377.204 910.755 374.431C910.902 374.043 911.015 373.766 911.026 373.347C911.212 367.472 908.527 360.051 907.26 354.192C906.97 352.852 906.67 351.514 906.361 350.179C906.048 348.843 905.724 347.51 905.389 346.18C905.053 344.85 904.706 343.522 904.348 342.197C903.99 340.873 903.621 339.551 903.24 338.232C902.859 336.913 902.465 335.597 902.058 334.284C901.655 332.971 901.24 331.661 900.814 330.355C900.385 329.049 899.945 327.746 899.497 326.447C899.044 325.148 898.583 323.852 898.112 322.56C897.637 321.268 897.152 319.98 896.658 318.696C896.165 317.412 895.658 316.131 895.137 314.855C894.621 313.579 894.093 312.307 893.554 311.039C893.011 309.771 892.459 308.507 891.897 307.248C891.336 305.989 890.763 304.734 890.179 303.484C889.594 302.234 889.001 300.989 888.397 299.748C887.79 298.507 887.174 297.272 886.548 296.041C885.919 294.81 885.28 293.584 884.632 292.363C883.983 291.142 883.324 289.927 882.653 288.716C881.985 287.506 881.305 286.301 880.611 285.102C879.922 283.902 879.22 282.707 878.508 281.519C877.796 280.331 877.074 279.148 876.342 277.971C875.607 276.794 874.865 275.622 874.115 274.457C873.361 273.292 872.597 272.132 871.825 270.98C871.052 269.826 870.268 268.679 869.472 267.538C868.681 266.397 867.878 265.263 867.064 264.135C866.25 263.007 865.426 261.885 864.593 260.77C863.76 259.655 862.917 258.547 862.065 257.445C861.213 256.343 860.352 255.248 859.481 254.16C858.611 253.072 857.73 251.99 856.841 250.916C855.947 249.842 855.046 248.775 854.138 247.715C853.23 246.655 852.312 245.603 851.384 244.557C850.457 243.512 849.52 242.474 848.574 241.443C847.632 240.413 846.678 239.39 845.713 238.374C835.767 227.93 796.295 196.083 783.143 195.579C782.566 195.557 781.729 195.685 781.294 196.125C780.106 197.334 779.303 199.305 778.161 200.655C775.741 203.509 772.473 206.118 769.623 208.571C756.822 219.592 746.622 223.208 729.67 219.882C726.193 219.2 721.618 218.434 718.458 216.902C714.788 215.119 709.699 210.307 705.6 210.119L704.949 210.756C706.278 215.034 715.947 222.608 719.554 226.25C737.275 244.138 754.255 272.203 755.77 296.843C756.251 304.604 755.42 312.231 753.91 319.858C752.004 329.493 741.584 362.352 734.968 369.139C734.866 369.245 734.759 369.349 734.651 369.455ZM929.391 449.191C932.546 450.821 935.339 452.948 938.478 454.602C944.143 457.585 962.197 464.594 965.42 468.383C965.539 468.281 965.658 468.18 965.776 468.077C970.023 464.35 973.562 458.516 976.949 454.025C993.29 432.383 1003.03 414.422 1003.68 387.066C1004.04 371.739 999.985 358.806 992.408 345.454C990.74 342.516 987.828 338.573 990.045 335.386C992.182 334.546 994.398 335.435 996.406 336.233C1008.09 340.876 1016.54 349.673 1021.21 360.762C1027.44 375.526 1025.99 392.073 1019.46 406.488C1014 418.561 1006.36 428.564 998.079 438.958C995.874 441.726 993.613 445.143 990.853 447.396C993.63 449.494 1017.39 473.941 1017.88 475.4C1028.87 470.555 1046.71 443.556 1052.7 432.947C1055.67 427.655 1058.23 422.187 1060.37 416.546C1067.51 397.949 1067.26 377.87 1058.4 359.742C1058.19 359.309 1057.98 358.875 1057.77 358.444C1057.4 356.361 1056.34 354.097 1054.86 352.525C1055.13 346.489 1038.33 325.767 1033.79 321.065C1020.1 306.882 1001.85 295.397 981.122 294.547C962.689 293.791 946.026 300.376 932.552 312.18C925.789 318.103 910.093 335.548 909.488 344.356C909.392 345.754 909.618 346.286 910.585 347.292C915.595 349.341 921.746 348.765 927.078 349.589C941.078 351.752 957.877 361.009 963.226 374.076C967.75 385.133 964.238 398.363 959.302 408.751C955.995 415.707 935.78 445.289 929.391 449.191ZM686.211 119.184C683.729 121.612 681.586 123.431 681.642 127.094C681.784 136.178 691.068 158.845 694.082 168.593C696.909 177.731 698.611 187.476 702.49 196.26C704.305 200.377 706.764 204.182 710.225 207.245C718.22 214.335 731.689 217.996 742.46 217.558C754.894 217.052 763.166 209.95 771.099 201.664C775.577 196.986 789.792 181.497 789.741 175.805C789.741 175.459 789.69 175.129 789.623 174.79C786.428 171.346 764.156 162.383 758.705 161.039C757.597 162.746 756.42 164.158 754.487 165.082C750.874 169.434 742.076 172.845 736.427 173.513C731.474 174.099 727.052 172.949 723.168 169.959C716.473 164.816 713.329 154.867 708.523 151.508C713.9 152.482 719.605 154.416 724.327 157.058L724.553 157.619C722.563 158.916 719.651 158.501 717.321 158.885C722.059 163.667 726.588 169.925 734.171 170.074C741.623 170.221 750.014 165.272 755.165 160.38C759.276 156.477 763.488 149.269 763.5 143.522C763.5 142.239 763.143 141.315 762.391 140.245C758.196 137.184 748.81 133.372 743.591 132.288C742.392 135.407 736.308 138.91 733.374 140.236C729.252 142.1 724.932 142.737 720.555 141.26C706.64 136.564 703.457 115.158 686.211 119.184ZM987.63 268.589C988.501 265.952 988.625 264.004 987.523 261.413C988.705 259.238 987.421 255.222 986.692 252.952C986.217 251.451 985.612 250.191 984.532 248.998C980.087 247.104 958.217 258.539 943.606 253.809C941.225 253.04 939.852 251.491 937.759 250.425C938.613 246.338 938.998 242.355 940.174 238.312C940.632 236.744 942.034 234.776 941.876 233.229C944.658 234.042 949.091 235.245 951.081 237.34C950.691 238.182 950.753 238.171 949.848 238.504C947.801 239.255 944.918 238.802 942.747 238.757C942.775 238.87 942.809 238.982 942.831 239.096C943.516 242.224 941.35 247.736 944.477 249.689C950.318 253.332 965.72 249.728 972.171 248.163C974.953 247.489 977.594 246.666 979.782 244.841C979.867 244.772 979.952 244.705 980.037 244.633C984.577 240.603 983.282 227.03 987.415 224.665C988.156 224.864 988.693 224.829 989.078 225.509C990.457 227.95 988.326 234.418 987.382 237.085C986.867 238.53 985.923 239.835 985.063 241.113C986.307 240.351 987.693 239.522 988.648 238.441C990.814 236 1000.79 220.498 1001.38 217.854C1001.4 217.742 1001.4 217.628 1001.41 217.515C999.352 215.118 992.702 210.908 989.621 209.808C987.93 213.634 982.027 216.752 978.137 218.286C976.491 218.935 974.705 219.488 972.946 219.774C967.886 218.267 964.255 216.561 960.552 212.847C953.744 206.029 950.165 192.579 937.188 199.044C929.73 202.761 927.65 211.858 925.45 218.913C923.895 223.877 922.544 229.022 920.542 233.833C915.826 245.167 906.378 258.762 913.446 271.02C916.714 276.683 922.493 280.476 928.961 282.164C933.79 283.424 938.924 283.629 943.9 283.36C952.67 282.887 977.356 278.411 984.775 274.407C986.087 273.698 987.082 272.806 987.472 271.385C987.738 270.445 987.975 269.528 987.63 268.589ZM1107.74 204.742L1107.31 204.938C1097.49 209.391 1096.75 206.687 1086 214.441C1084.72 215.37 1083.62 216.131 1082.09 216.662C1092.14 214.238 1104.66 210.498 1114.35 215.923C1121.67 220.013 1126.24 227.708 1128.25 235.381C1131.61 248.154 1125.99 263.112 1119.03 273.966C1112.35 284.389 1100.99 296.384 1088.07 299.533L1087.76 300.294C1093.08 303.259 1103.88 302.286 1109.66 300.849C1124.05 297.267 1134.87 285.408 1142.08 273.593C1149.55 261.348 1154.25 246.705 1150.3 232.677C1147.55 222.891 1141.95 213.677 1132.45 208.579C1125.34 204.765 1115.75 203.525 1107.74 204.742ZM1022.49 208.508C1018.93 210.183 1014.92 211.631 1011.62 213.697C999.521 221.274 996.513 235.87 987.693 245.928C989.694 247.677 991.56 255.123 991.718 257.668C991.758 258.279 991.651 258.913 991.532 259.508L992.035 259.457C998.13 258.806 1004.66 257.041 1010.33 254.791C1015.81 252.613 1031.69 242.448 1036.53 242.589C1036.74 242.596 1037.52 243.098 1037.76 243.217L1038.24 244.135C1037.44 244.726 1036.42 245.299 1036.14 246.258C1039.57 250.502 1043.14 254.755 1046.04 259.35C1048.87 263.857 1051.22 268.778 1054.3 273.126C1058.09 278.477 1063.54 283.453 1066.42 289.307C1066.56 288.842 1067.06 287.713 1067.04 287.273C1066.93 284.313 1060.73 274.349 1060.54 266.965C1060.5 264.945 1060.53 262.927 1060.66 260.91C1060.78 258.894 1060.98 256.885 1061.27 254.883C1061.55 252.882 1061.92 250.894 1062.37 248.92C1062.82 246.946 1063.35 244.992 1063.96 243.058C1065.04 239.734 1068.97 232.387 1068.97 229.492L1070.26 227.717L1069.97 227.325C1061.09 230.868 1054.71 231.446 1045.38 229.504C1043.48 232.799 1029.21 239.832 1025.16 241.019C1024.63 241.173 1024.09 241.284 1023.55 241.383L1023.12 240.764C1026.31 234.548 1040.91 231.126 1039.7 227.385C1037.72 226.629 1035.73 227.256 1033.87 228.032C1030.38 229.484 1024.73 235.42 1021.49 234.392C1021.39 233.319 1021.44 233.069 1022.16 232.228C1025.4 228.389 1036.55 224.172 1038.44 221.208C1038.04 220.508 1038.08 220.298 1037.26 220.099C1032.4 218.921 1025.85 224.701 1021.61 226.665C1019.66 227.57 1017.53 227.976 1015.41 228.35C1020.22 224.58 1023.93 221.062 1029.75 218.612C1032.64 217.401 1035.92 216.804 1038.59 215.217L1038.19 215.088C1032.2 213.208 1025.41 214.563 1019.89 217.201C1018.12 218.047 1015.99 219.198 1014.62 220.594C1013.02 222.235 1011.88 226.637 1009.13 225.929C1008.54 225.008 1008.26 224.781 1008.55 223.662C1009.34 220.477 1013.87 217.615 1016.7 216.152C1019.7 214.607 1026.84 212.234 1028.34 209.235C1027.78 208.461 1027.69 208.456 1026.71 208.265C1025.34 207.995 1023.86 208.303 1022.49 208.508ZM970.17 145.014C960.445 146.347 949.322 149.086 943.108 156.925C940.151 160.658 939.037 165.016 936.459 168.731C938.082 170.216 940.756 173.759 940.858 175.926C955.039 178.822 958.211 181.129 973.726 179.663C983.995 178.53 997.899 177.054 1004.91 168.838C1007.18 166.175 1008.44 162.866 1007.98 159.422C1007.49 155.774 1005.22 152.792 1002.18 150.62C993.556 144.458 980.427 144.38 970.17 145.014ZM740.504 378.003C740.543 378.084 740.583 378.165 740.611 378.249C742.794 384.101 730.168 396.2 733.509 402.852C734.663 405.143 737.795 406.749 740.074 407.888C750.902 413.298 785.868 428.197 797.284 424.452C797.431 424.403 797.578 424.338 797.725 424.281C799.795 423.852 801.451 423.465 803.21 422.309C803.962 421.071 803.894 421.056 803.577 419.646C797.646 412.358 781.475 411.923 782.775 401.456C783.092 398.899 784.398 397.217 785.648 395.022C777.884 391.5 747.979 377.056 741.21 377.911C741.063 377.93 740.916 377.94 740.769 377.959C740.679 377.97 740.594 377.988 740.504 378.003ZM1029.34 248.326C1024.04 252.368 1017.84 256.202 1011.98 259.476C1009.56 260.829 1006.42 261.882 1004.25 263.528C1002.35 264.975 1001.35 267.673 999.527 269.398C992.165 276.374 981.552 280.462 971.499 282.37C975.609 284.352 979.539 286.585 983.718 288.465C985.945 289.469 989.338 290.281 991.306 291.518C1003.63 294.067 1013.22 296.087 1024.55 289.1C1031.67 284.706 1042.58 274.93 1044.81 266.877C1044.95 266.36 1044.86 265.828 1044.72 265.323C1045.23 263.557 1044.18 261.931 1043.29 260.434C1041.29 257.093 1035.7 249.271 1031.64 248.373C1030.92 248.215 1030.07 248.281 1029.34 248.326ZM913.904 278.997C908.956 284.265 896.082 298.538 896.619 305.907C897.258 314.626 908.532 329.109 906.395 337.113C906.367 337.232 906.344 337.352 906.316 337.472C910.376 334.403 911.371 330.213 914.311 326.421C917.257 322.624 930.816 310.23 931.704 307.516C950.176 295.954 955.056 294.032 976.576 289.774C974.75 287.361 968.886 284.901 966.02 283.493C951.194 286.581 932.874 290.317 919.191 281.92C917.67 280.986 915.679 279.267 913.904 278.997ZM993.143 179.451C981.597 184.101 967.054 183.204 954.779 183.235C954.801 183.327 954.83 183.418 954.852 183.511C955.825 187.402 954.451 192.41 954.824 196.565C955.276 201.682 961.745 209.943 965.867 213.223C968.038 214.953 970.995 216.776 973.987 216.36C975.23 216.187 978.674 214.564 979.426 213.6C979.488 213.523 979.522 213.434 979.573 213.351C983.853 211.098 987.104 204.818 990.616 205.745C995.739 207.097 1000.1 214.552 1005.76 214.525L1006.23 213.982C1005.03 212.173 1003.8 210.274 1002.2 208.754C999.889 206.564 991.323 201.569 991.181 198.789C991.272 198.712 991.368 198.638 991.453 198.558C994.992 195.364 997.226 187.251 997.299 182.743C997.316 181.696 997.248 180.952 996.689 180.031C995.235 179.192 994.772 179.331 993.143 179.451ZM993.251 340.338C1001.27 346.922 1006.91 369.176 1007.69 379.035C1009.06 396.13 1004.8 420.513 994.653 434.889L994.789 434.854L994.263 435.626C996.146 434.997 998.956 431.988 999.844 430.262C999.996 429.969 999.985 429.941 1000.05 429.667C1010.71 421.171 1019.45 399.507 1020.68 386.379C1021.87 373.706 1019.02 359.996 1010.25 350.058C1007.31 346.725 1000.38 340.278 995.676 340.065C994.851 340.028 994.048 340.138 993.251 340.338ZM747.984 106.27C743.014 110.562 712.894 113.691 704.91 115.126C707.262 122.423 711.26 132.672 718.729 136.59C720.612 137.578 722.563 138.008 724.672 137.482L725.452 136.399C724.372 134.722 720.9 130.843 720.917 129.027L721.692 128.598C724.802 129.597 729.568 133.966 731.281 136.682C734.442 135.65 736.998 134.926 738.83 132.065C738.83 131.98 738.836 131.896 738.83 131.811C738.7 128.947 735.013 127.209 735.098 124.313C740.673 119.654 749.177 131.817 750.642 108.824C750.693 108.064 750.585 107.516 750.246 106.834C749.341 106.115 749.126 106.26 747.984 106.27ZM806.936 136.404C806.993 136.468 807.049 136.529 807.106 136.596C808.259 138.107 807.043 140.875 808.423 141.694C812.421 144.069 822.887 145.539 827.874 147.033C832.816 148.516 837.618 150.328 842.281 152.471C849.632 155.916 868.076 166.222 873.402 171.401C874.2 169.197 872.871 165.254 871.847 163.205C871.542 162.592 871.208 162.166 870.694 161.694C871.35 160.944 871.943 160.162 872.215 159.207C873.346 155.225 873.159 150.784 873.934 146.698C874.397 144.269 875.913 141.767 875.845 139.321C872.944 143.186 866.724 145.971 861.981 146.748C846.912 149.212 830.396 141.142 815.955 137.737C813.173 137.082 809.814 136.08 806.936 136.404ZM933.298 457.64C932.405 459.841 930.375 463.449 930.986 465.763C935.56 471.624 968.536 491.881 976.412 493.066C977.068 493.165 977.718 493.243 978.323 492.934C980.076 492.541 981.241 492.167 982.683 491.112C983.129 490.101 983.407 489.786 982.988 488.692C981.49 484.761 974.416 482.384 971.086 480C968.525 478.169 967.512 474.712 965.104 472.71C959.133 467.744 944.505 460.874 936.996 458.062C935.73 457.586 934.65 457.47 933.298 457.64ZM992.759 457.64C992.747 457.806 992.742 457.972 992.719 458.136C992.142 462.926 982.366 465.058 988.654 473.76C993.149 479.981 1002.44 483.48 1008.83 487.764C1009.99 488.545 1011.12 489.366 1012.22 490.227C1013.32 491.088 1014.38 491.986 1015.4 492.922C1016.43 493.858 1017.42 494.828 1018.37 495.833C1019.32 496.839 1020.23 497.876 1021.1 498.946C1022.01 500.059 1023.78 501.823 1024.13 503.168C1025.53 503.728 1026.63 504.291 1028.18 503.886C1028.99 503.177 1029.41 502.983 1029.5 501.867C1030.14 493.847 1007.69 469.511 1000.9 462.781C999.193 461.09 996.745 458.331 994.449 457.481L992.759 457.64ZM773.389 140.708L773.106 141.862C771.054 142.804 768.877 142.598 766.689 142.919C766.576 146.815 765.45 155.131 762.488 157.965C766.937 160.194 779.982 167.267 784.245 166.548C784.347 166.208 784.522 165.817 784.517 165.464C789.244 162.027 795.147 154.077 797.278 148.78C795.266 148.527 793.128 148.241 791.234 147.54C786.739 145.88 777.811 139.65 773.389 140.708ZM814.094 155.236C811.442 158.496 808.7 161.82 805.619 164.722C808.802 165.705 817.187 167.674 819.409 169.498C821.317 170.057 823.234 170.588 825.16 171.092C825.957 170.43 826.11 170.324 826.2 169.306C826.505 165.783 823.644 161.001 821.23 158.503C820.094 157.327 817.951 155.203 816.186 155.043C815.514 154.982 814.756 155.115 814.094 155.236ZM1105.53 220.884C1103.36 221.942 1101.69 222.828 1100.94 225.209C1100.32 227.134 1100.37 229.683 1101.38 231.472C1101.94 232.448 1102.72 233.29 1103.85 233.653C1104.73 233.936 1106.42 234.08 1107.24 233.667C1109.71 233.27 1111.48 232.756 1112.99 230.732C1113.99 229.384 1114.52 227.582 1114.26 225.937C1114.23 225.734 1114.19 225.532 1114.14 225.332C1114.09 225.132 1114.03 224.935 1113.95 224.741C1113.88 224.547 1113.8 224.357 1113.7 224.171C1113.61 223.985 1113.51 223.804 1113.4 223.627C1113.29 223.452 1113.17 223.282 1113.04 223.117C1112.91 222.953 1112.77 222.795 1112.62 222.644C1112.47 222.493 1112.32 222.35 1112.15 222.214C1111.99 222.078 1111.82 221.95 1111.65 221.831C1109.94 220.668 1107.53 220.62 1105.53 220.884ZM824.442 157.389C827.58 160.297 830.158 163.974 830.249 168.277C830.277 169.701 830.107 171.345 829.316 172.574C831.532 174.19 834.393 174.41 837.096 174.41C837.905 173.928 838.221 173.811 838.685 172.996C840.014 172.083 840.438 171.814 841.111 170.331C841.139 167.44 839.165 165.093 837.107 163.136C834.648 160.799 830.022 157.1 826.353 157.157C825.708 157.167 825.071 157.244 824.442 157.389ZM792.715 171.379C793.665 172.362 794.225 172.589 794.163 173.975C794.016 177.333 787.547 186.349 789.368 188.799C790.974 188.736 791.749 188.332 793.049 187.515L793.484 186.805C797.03 184.888 800.744 181.462 801.904 177.65C802.333 176.258 802.413 174.887 801.841 173.517C799.563 172.037 795.469 170.995 792.715 171.379ZM890.461 131.561C889.149 133.683 886.288 137.149 886.922 139.689C887.12 140.496 887.775 141.172 888.533 141.584C889.387 142.05 890.784 142.477 891.767 142.556C893.271 142.367 894.956 142.316 895.912 141.038C896.036 140.874 896.151 140.703 896.257 140.527C896.362 140.351 896.459 140.171 896.545 139.986C896.632 139.801 896.707 139.612 896.771 139.42C896.839 139.227 896.896 139.032 896.941 138.834C896.986 138.636 897.02 138.437 897.043 138.235C897.069 138.034 897.084 137.832 897.088 137.63C897.088 137.427 897.081 137.225 897.065 137.024C897.047 136.822 897.016 136.622 896.975 136.423C896.534 134.197 895.267 132.775 893.328 131.562C892.282 131.389 891.502 131.361 890.461 131.561ZM805.624 151.47C804.103 155.293 796.724 155.775 797.165 160.269C798.149 161.756 799.133 162.197 800.756 162.911C802.627 162.775 803.142 162.775 804.471 161.331C806.444 159.188 809.972 155.336 809.661 152.319C809.616 151.897 809.045 151.61 808.711 151.345C807.631 151.28 806.687 151.28 805.624 151.47ZM791.291 128.869C789.741 130.604 789.362 135.859 789.543 138.144C789.611 138.977 789.803 139.618 790.222 140.358C791.364 140.815 791.59 140.79 792.806 140.347C792.851 140.331 792.891 140.303 792.93 140.281C794.689 139.633 795.61 138.598 796.396 136.992C797.171 135.399 797.386 133.542 796.73 131.871C796.244 130.625 795.169 129.525 793.846 129.057C792.998 128.757 792.173 128.786 791.291 128.869ZM765.004 125.643C762.702 126.37 760.345 127.261 757.958 127.686C761.962 128.79 766.615 129.756 770.341 131.563C772.094 131.835 773.943 132.357 775.605 131.577C775.82 130.816 776.03 130.655 775.583 129.978C774.435 128.235 771.003 126.233 768.871 125.843C767.622 125.613 766.276 125.559 765.004 125.643ZM991.023 263.743C991.73 265.714 992.114 267.493 991.153 269.47C991.04 269.703 990.91 269.928 990.78 270.154C992.041 270.093 993.206 270.008 994.342 269.429C995.643 268.763 1000.96 263.358 1001.32 262.181C998.752 260.886 993.816 263.262 991.023 263.743ZM782.662 129.945C782.645 130.045 782.634 130.145 782.617 130.244C782.074 132.855 779.773 134.249 779.677 136.925C780.389 137.932 781.062 138.507 782.119 139.175C783.736 138.922 784.488 138.959 785.512 137.539C786.439 136.248 786.648 134.008 786.179 132.557C785.8 131.393 785.325 130.734 784.324 129.993L782.662 129.945ZM987.523 261.413C988.625 264.004 988.501 265.952 987.63 268.589L989.417 267.931C990.22 268.837 989.587 269.732 990.78 270.154C990.91 269.928 991.04 269.703 991.153 269.47C992.114 267.493 991.73 265.714 991.023 263.743L990.571 263.543C990.327 262.847 990.062 262.329 989.66 261.712L987.523 261.413ZM1057.1 348.716C1057.43 350.154 1057.74 350.599 1056.96 351.93C1056.27 352.139 1055.57 352.384 1054.86 352.525C1056.34 354.097 1057.4 356.361 1057.77 358.444C1058.52 357.266 1058.63 355.993 1058.86 354.654L1059.91 354.685C1059.93 354.393 1059.94 354.1 1059.93 353.808C1059.93 351.534 1058.73 350.217 1057.1 348.716Z" fill="#800080"/>
<path d="M1057.1 348.716C1058.73 350.217 1059.93 351.534 1059.93 353.808C1059.94 354.1 1059.93 354.393 1059.91 354.685L1058.86 354.654C1058.63 355.993 1058.52 357.266 1057.77 358.444C1057.4 356.361 1056.34 354.097 1054.86 352.525C1055.57 352.384 1056.27 352.139 1056.96 351.93C1057.74 350.599 1057.43 350.154 1057.1 348.716Z" fill="#800080" fill-opacity="0.988235"/>
<path d="M987.523 261.413L989.66 261.712C990.062 262.329 990.327 262.847 990.571 263.543L991.023 263.743C991.73 265.714 992.114 267.493 991.153 269.47C991.04 269.703 990.91 269.928 990.78 270.154C989.587 269.732 990.22 268.837 989.417 267.931L987.63 268.589C988.501 265.952 988.626 264.004 987.523 261.413Z" fill="#800080" fill-opacity="0.988235"/>
<path d="M971.64 197.743C972.522 197.693 973.376 197.72 974.258 197.769C975.592 199.075 974.433 201.336 976.175 202.039C978.844 203.119 983.169 202.163 985.103 204.606L984.198 205.454C983.508 205.73 982.796 205.876 982.061 205.985C979.907 206.303 977.283 206.136 975.479 204.865C972.652 202.872 972.177 200.906 971.64 197.743Z" fill="#800080"/>
<path d="M980.11 186.982C980.201 186.974 980.297 186.962 980.387 186.956C981.987 186.86 982.66 186.88 983.848 187.831C983.904 189.383 983.825 190.59 984.979 191.821C986.72 192.21 987.93 191.025 989.485 190.24L990.118 190.861C990.299 192.698 990.695 194.488 989.615 196.133L990.265 197.238L989.954 197.811C988.433 197.838 987.365 197.065 986.189 196.226C984.074 194.717 980.964 191.942 980.591 189.342C980.54 189.013 980.489 188.684 980.416 188.359L980.11 186.982Z" fill="#800080"/>
</svg>
