<svg width="800" height="561" viewBox="0 0 800 561" fill="none" xmlns="http://www.w3.org/2000/svg">
<path d="M690.747 0.0608136C697.738 -0.348464 704.158 1.32409 710.325 4.59508C743.856 22.3777 772.76 87.8508 783.36 122.444C789.155 141.361 793.956 160.82 796.795 180.414C801.927 215.822 801.951 262.825 784.645 295.107C779.319 305.042 771.201 314.572 760.02 317.867C734.062 325.516 709.287 292.306 696.792 273.533C691.785 266.01 688.272 255.648 679.934 251.272C652.222 236.725 616.937 240.551 587.421 246.367C574.641 248.804 562.043 251.965 549.626 255.849C563.363 270.107 572.513 292.236 577.652 311.242C579.533 318.202 580.698 325.319 582.51 332.291C586.689 333.139 590.675 334.479 594.304 336.751C602.526 341.899 607.438 350.887 609.491 360.172C609.653 360.909 609.796 361.65 609.921 362.393C610.046 363.137 610.152 363.883 610.24 364.633C610.328 365.381 610.398 366.132 610.448 366.884C610.498 367.637 610.53 368.39 610.544 369.144C610.557 369.898 610.552 370.653 610.528 371.407C610.504 372.16 610.461 372.913 610.4 373.665C610.338 374.416 610.258 375.166 610.16 375.914C610.061 376.662 609.944 377.407 609.808 378.148C609.673 378.89 609.519 379.628 609.347 380.363C609.175 381.097 608.985 381.827 608.776 382.551C608.568 383.277 608.342 383.996 608.098 384.71C607.853 385.423 607.592 386.13 607.313 386.831C607.034 387.531 606.738 388.225 606.424 388.911C606.111 389.597 605.781 390.275 605.434 390.944C605.087 391.614 604.723 392.274 604.344 392.926C603.963 393.577 603.567 394.219 603.156 394.851C596.554 405.133 585.648 411.973 574.308 415.983C568.96 417.874 563.418 419.218 558.227 421.537C551.868 424.378 546.399 428.922 539.914 431.662C525.548 437.734 510.525 442.179 495.688 446.939C466.375 456.345 436.609 465.239 406.536 471.883C409.581 480.259 412.289 488.765 415.253 497.171C417.711 504.148 420.582 511.141 422.515 518.283C423.793 523.009 424.292 526.483 421.636 530.871C416.55 539.272 402.868 544.442 393.751 546.415C385.549 548.19 379.098 547.466 371.97 542.839C368.109 546.184 363.847 548.752 359.027 550.467C350.811 553.392 341.567 554.167 333.549 550.331C329.052 554.109 324.653 556.801 319.025 558.579C313.371 560.365 304.416 562.225 298.973 559.174C296.866 557.993 295.776 556.421 294.759 554.276C291.822 548.082 290.637 540.879 288.774 534.289C285.487 522.714 282.09 511.172 278.585 499.663C264.889 503.992 251.395 508.922 237.698 513.243C230.555 515.496 223.26 517.88 215.872 519.19C205.62 521.007 195.995 520.334 187.284 514.304C183.183 511.236 180.597 506.849 177.998 502.535C168.306 506.938 157.69 507.885 147.202 506.552C135.642 505.082 125.973 499.916 118.816 490.633C102.455 469.417 100.502 430.314 103.906 404.436C93.4904 407.972 78.2191 413.154 69.1236 418.996C65.4661 421.345 63.5822 425.63 59.9862 427.707C55.729 430.167 50.6333 430.089 46.5707 433.123C41.9645 436.563 38.5834 441.494 33.9529 444.949C29.4813 448.286 24.323 450.695 18.5994 449.743C13.7016 448.928 9.82996 445.814 6.95897 441.902C0.133144 432.603 -0.995671 420.406 0.698882 409.302C1.52259 403.906 3.39834 397.999 8.0633 394.72C15.9611 389.168 30.1776 391.915 39.1054 393.317C41.584 391.22 44.1534 389.221 47.2575 388.136C51.9315 386.504 57.0962 387.77 61.8605 386.528C71.7472 383.95 81.1702 379.215 90.6601 375.479C97.8789 372.637 105.93 370.365 112.744 366.667C117.597 364.033 121.527 357.33 125.193 353.185C127.887 350.15 130.751 347.284 133.784 344.589C156.275 324.876 184.794 314.105 212.343 303.754C211.728 302.587 211.161 301.396 210.641 300.184C209.181 296.754 208.764 292.875 210.263 289.383C212.598 283.94 218.575 281.107 223.744 279.004C221.431 272.653 218.908 266.93 214.148 262.05C211.1 262.116 208.105 262.779 205.06 262.808C203.461 262.823 201.196 262.602 200.117 261.23C199.047 259.872 198.938 257.322 199.201 255.686C200.778 245.85 216.596 238.264 225.387 237.054C228.985 236.559 233.109 237.819 236.568 236.463C240.258 235.017 243.427 230.32 246.804 227.965C254.886 222.33 263.229 220.467 272.883 222.211C274.584 218.032 277.839 214.595 281.485 212.022C287.585 207.717 296.544 204.263 304.087 205.695C306.767 206.204 309.76 207.491 311.276 209.881C312.117 211.205 312.345 212.712 311.923 214.226C310.407 219.658 303.256 222.74 298.638 225.134C301.25 230.938 303.484 236.918 305.794 242.847C307.261 242.372 308.746 241.859 310.247 241.506C314.451 240.518 323.594 242.8 327.099 245.043C333.347 249.04 328.074 252.915 329.267 257.017C329.435 257.595 329.502 257.429 330.149 257.682C336.285 256.277 344.184 250.869 350.084 247.947C358.857 243.677 367.739 239.647 376.73 235.857C410.745 221.512 444.955 207.647 479.359 194.26C506.411 183.996 533.167 173.011 559.627 161.305C574.722 154.568 589.891 147.872 604.051 139.283C622.029 128.377 636.423 114.298 648.661 97.2956C648.024 71.1309 649.077 38.8995 664.834 16.8017C671.239 7.81935 679.792 1.851 690.747 0.0608136ZM682.366 8.04817C666.935 17.7274 660.505 33.2928 656.583 50.497C653.059 65.9536 652.292 81.8204 652.258 97.6203C652.14 152.865 665.381 209.89 695.138 256.959C706.989 275.703 727.897 303.374 750.359 308.363C757.17 309.876 764.229 309.122 770.155 305.248C782.957 296.878 788.456 278.799 791.295 264.616C797.762 232.328 792.863 197.059 782.658 166.038L781.287 162.663C769.644 155.352 754.594 153.214 741.239 156.304C729.95 158.916 719.998 165.572 713.899 175.511C704.287 191.176 705.88 210.343 710.089 227.454C715.346 248.825 725.168 268.198 735.495 287.476C708.078 275.059 689.623 237.286 679.474 210.435C659.243 156.911 650.033 75.6611 674.531 22.1876C675.418 20.2499 682.442 9.02866 682.366 8.04817ZM502.781 245.441C468.149 248.789 426.826 264.227 393.838 276.308C370.45 284.896 347.006 293.333 323.508 301.618C306.559 307.628 289.547 313.453 272.472 319.095C256.881 324.105 241.107 328.555 225.633 333.928C209.759 339.586 194.013 345.582 178.395 351.916C151.261 362.963 124.058 373.837 96.7848 384.536C85.0954 389.078 69.7757 396.032 57.8301 398.607C57.5253 402.401 56.9446 411.795 59.9368 414.613C60.6467 415.282 61.1326 415.533 62.1136 415.392C67.1987 414.662 80.9696 407.624 86.6479 405.216C101.82 398.786 117.146 392.24 132.649 386.669L180.169 370.016C192.822 365.485 205.345 360.541 218.093 356.285C268.416 339.486 319.182 323.969 369.158 306.141C393.575 297.207 418.106 288.601 442.753 280.323C456.723 275.558 471.369 269.3 486.008 267.29C493.777 266.223 502.138 266.54 509.327 269.959C525.734 277.765 534.339 299.202 539.98 315.472C546.793 335.123 553.343 367.571 544.061 386.676C539.72 395.612 531.934 403.603 523.718 409.111C524.24 411.756 524.709 414.424 525.409 417.029C544.436 401.229 558.601 385.291 560.931 359.499C563.126 335.207 555.582 309.792 544.926 288.145C543.278 284.798 541.64 281.389 539.754 278.17C538.24 275.585 536.13 273.015 535.072 270.224C534.675 269.179 534.457 268.223 534.821 267.153C535.997 266.672 537.026 266.852 538.161 267.341C548.655 271.868 557.873 292.263 561.522 302.466C572.252 332.476 576.952 373.469 563.098 402.994C562.956 403.296 562.811 403.595 562.662 403.893C577.03 385.728 578.062 361.596 575.476 339.419C572.06 310.121 561.001 274.551 537.125 255.679C527.917 248.402 515.136 243.959 503.286 245.375C503.117 245.395 502.949 245.419 502.781 245.441ZM491.125 275.243C477.099 277.088 463.991 281.727 450.643 286.216C437.938 290.488 425.376 294.831 412.935 299.838C408.912 317.959 404.173 335.893 400.973 354.165C403.599 348.543 406.596 343.662 412.726 341.346C416.923 339.759 421.95 340.085 425.951 342.091C429.552 343.896 432.1 347.086 433.266 350.922C434.796 355.951 434.012 361.331 431.479 365.888C430.513 367.626 424.912 373.867 424.848 374.519C425.623 374.458 426.237 374.344 426.973 374.09C463.658 359.687 500.314 346.664 538.374 336.365C534.194 318.124 527.966 290.458 511.238 279.831C505.513 276.194 497.877 274.354 491.125 275.243ZM228.857 359.309C212.708 363.476 196.936 369.375 181.189 374.845C168.266 379.335 155.024 383.372 142.563 389.048C134.214 409.419 131.765 430.272 140.455 451.009C143.135 457.404 147.02 465.748 153.918 468.43C160.485 470.984 168.753 470.427 175.549 469.179C176.956 465.28 178.342 461.432 180.606 457.934C188.096 448.12 197.564 443.579 209.194 440.183C211.481 439.515 215.373 438.858 217.224 437.476C218.394 436.603 218.506 434.204 218.318 432.909C217.231 425.437 206.777 417.086 212.021 409.575C213.832 406.982 216.555 404.997 219.709 404.466C222.149 404.056 224.74 404.503 226.757 405.987C228.739 407.444 230.034 409.917 230.229 412.359C230.365 414.05 230.15 415.973 229.85 417.641C231.65 421.499 233.516 425.339 235.121 429.284C240.827 428.109 246.527 426.853 252.294 426.015C248.055 408.436 241.145 391.632 235.388 374.53C234.419 371.65 231.829 361.408 230.295 359.488C229.792 359.386 229.372 359.282 228.857 359.309ZM633.36 134.048C622.422 143.631 611.476 152.656 599.352 160.735C583.399 171.366 566.385 179.829 549.071 187.971C535.777 194.356 522.338 200.418 508.754 206.159C490.54 213.642 471.971 220.177 453.586 227.215C415.224 241.899 376.678 256.872 339.096 273.449L342.271 282.251C342.864 283.26 342.758 283.335 343.871 283.626C348.43 282.742 352.639 280.088 356.86 278.226C362.09 275.937 367.37 273.77 372.701 271.723C400.603 260.94 428.65 250.544 456.841 240.537C480.537 232.313 504.386 224.561 528.388 217.282C548.59 211.226 569.6 206.104 588.824 197.293C602.096 191.211 614.525 183.618 622.909 171.327C628.655 162.903 635.852 145.802 633.724 135.463C633.626 134.985 633.496 134.516 633.36 134.048ZM251.21 354.947C246.477 356.386 241.732 357.781 236.974 359.133C239.485 367.618 242.633 375.969 245.547 384.326C252.298 403.693 259.395 422.97 265.935 442.404C276.268 473.115 284.853 504.673 296.875 534.779C297.732 536.927 298.584 539.116 300.561 540.458C301.643 540.568 301.929 540.645 302.838 539.91C305.382 537.855 305.993 533.114 305.944 530.105C305.757 518.808 291.171 484.166 286.693 472.203C275.897 443.37 264.945 414.275 256.494 384.654C254.212 376.656 251.497 368.355 250.048 360.186C249.772 358.473 249.425 356.763 249.432 355.023C263.741 395.416 277.847 435.879 291.75 476.412C293.889 482.764 296.165 489.067 298.579 495.321C303.904 508.982 309.826 522.422 311.44 537.149C316.722 525.498 313.708 516.865 309.444 505.415C306.621 503.299 300.954 499.859 300.608 496.07C300.478 494.643 300.977 493.346 301.97 492.323C302.924 491.338 304.362 490.674 305.559 490.022C300.537 477.071 296.191 463.829 291.594 450.722L273.922 400.805C270.704 391.547 266.288 374.173 261.581 366.275C259.775 363.245 254.854 359.631 252.317 356.255C252.052 355.9 251.55 355.2 251.21 354.947ZM323.65 338.402C319.157 341.207 314.648 344 310.477 347.277C317.545 363.029 322.944 379.51 328.779 395.743C334.722 412.28 341.3 428.595 347.081 445.187C356.366 471.833 364.923 498.938 376.145 524.856C380.531 521.242 383.567 517.735 384.118 511.811C384.327 509.547 384.273 507.276 384.098 505.013C382.59 497.279 380.116 490.202 376.247 483.321C368.63 478.458 361.878 473.329 359.749 464.045C358.66 459.301 359.081 454.098 361.648 449.883C364.069 445.909 367.789 443.759 371.84 441.777C370.587 438.07 369.293 434.376 367.959 430.697C365.823 430.691 363.664 430.752 361.532 430.641C363.211 435.305 364.99 439.946 366.613 444.629C365.479 443.59 364.302 442.538 363.311 441.358C360.969 438.568 359.227 435.149 357.186 432.129C355.181 429.162 352.669 426.305 351.074 423.101C349.954 420.851 349.253 418.497 349.096 415.983C348.853 412.079 349.796 408.14 350.957 404.44C346.989 396.598 343.269 388.641 339.798 380.568C336.326 372.495 333.109 364.321 330.148 356.047C329.299 353.684 324.946 339.517 323.65 338.402ZM255.733 434.607C246.564 438 237.418 441.656 228.139 444.716C211.03 450.357 192.419 452.544 183.924 470.824C180.29 478.643 179.402 486.874 182.447 495.024C184.456 500.402 188.349 504.772 193.606 507.155C197.324 508.839 201.229 509.493 205.292 509.322C216.345 508.854 228.18 504.565 238.64 501.173C250.779 497.235 262.839 492.923 275.059 489.258L274.135 485.619C260.912 489.944 247.627 494.069 234.279 497.993C226.341 500.297 218.19 502.949 209.954 503.834C206.383 504.219 202.423 504.378 199.174 502.616C196.251 501.032 194.419 498.184 192.532 495.553C197.608 499.705 201.508 501.297 208.159 500.592C220.141 499.323 234.137 493.656 245.814 490.059L272.626 482.209C271.521 478.522 270.262 474.822 269.342 471.087C255.758 476.406 241.954 480.716 227.997 484.926C220.694 487.127 213.07 489.888 205.477 490.783C202.735 491.106 199.882 491.14 197.293 490.042C194.988 489.065 193.294 487.224 192.484 484.859C192.367 484.528 192.266 484.19 192.183 483.848C192.099 483.505 192.032 483.16 191.983 482.811C191.934 482.463 191.902 482.112 191.888 481.76C191.873 481.408 191.876 481.056 191.897 480.705C191.917 480.353 191.955 480.004 192.01 479.656C192.065 479.308 192.137 478.963 192.227 478.623C192.316 478.282 192.422 477.946 192.545 477.617C192.668 477.286 192.807 476.963 192.962 476.647C197.457 467.522 221.431 462.136 230.708 459.283C239.648 456.533 253.897 453.44 261.827 449.571L262.13 448.871C261.524 448.074 260.848 447.628 259.838 447.523C258.067 447.337 255.887 447.973 254.169 448.444C246.526 450.54 238.996 453.384 231.431 455.781C219.802 459.479 208.092 462.901 196.301 466.049C206.687 460.553 218.198 457.17 229.273 453.35C239.243 449.911 249.281 446.047 259.552 443.609C258.78 441.089 257.882 436.363 255.975 434.646L255.733 434.607ZM401.138 304.092C386.191 309.527 370.909 314.255 356.073 319.948C363.803 337.097 371.33 354.569 377.842 372.215L383.219 387.057C387.243 386.087 394.263 385.235 396.822 381.785C395.78 377.836 393.462 374.217 392.566 370.263C389.438 356.463 393.933 340.01 397.134 326.509C397.658 324.298 402.552 305.518 401.806 304.487C401.67 304.297 401.421 304.224 401.22 304.105C401.196 304.091 401.165 304.097 401.138 304.092ZM515.631 409.647C483.761 419.274 451.445 427.535 419.325 436.287L395.776 442.674C389.583 444.314 383.313 445.648 377.361 448.065C374.115 449.383 371.349 450.98 369.569 454.134C368.431 456.151 367.526 459.089 368.292 461.381C368.57 462.211 368.757 462.484 369.483 462.94C369.513 462.959 369.55 462.964 369.583 462.976C379.445 461.108 388.712 457.878 398.257 454.849C407.325 452.005 416.422 449.257 425.548 446.604L477.606 431.642C490.563 428.03 503.627 424.664 516.48 420.7C516.667 417.735 517.629 412.566 516.665 409.764C515.8 409.565 516.144 409.519 515.631 409.647ZM474.29 366.604C452.901 374.252 431.361 381.446 409.669 388.187C397.364 392.016 383.712 394.69 372.166 400.411C367.8 402.573 363.704 405.44 361.577 409.982C360.805 411.629 359.958 413.789 360.632 415.613C361.068 416.795 362.134 417.471 363.275 417.842C366.405 418.856 370.125 418.183 373.273 417.513C380.337 416.012 387.292 413.691 394.228 411.694C405.183 408.579 416.156 405.529 427.147 402.546L460.999 393.759C466.812 392.279 473.635 391.308 478.969 388.662L476.326 383.5C463.529 388.202 370.572 416.375 364.07 415.649C363.954 414.836 363.831 415.096 364.284 414.499C365.712 412.615 369.78 411.197 371.955 410.363C385.477 405.178 399.757 401.356 413.565 396.982C433.635 390.623 453.588 383.889 473.852 378.165C473.963 375.959 475.12 368.065 474.29 366.604ZM537.731 378.612C521.34 383.752 504.726 388.135 488.354 393.338C464.598 400.888 440.97 408.552 416.723 414.415C410.548 415.908 404.285 417.72 398.038 418.789C399.539 422.116 400.946 425.539 402.686 428.747C403.333 429.953 403.951 431.187 404.666 432.354C425.513 426.044 445.836 418.286 466.585 411.718L500.241 401.298C509.835 398.33 519.738 395.6 528.706 390.982C532.164 389.201 535.603 385.86 537.449 382.402C537.983 381.399 538.371 380.419 538.622 379.313L538.281 378.658L537.731 378.612ZM129.731 393.567C123.573 396.185 117.413 399.271 111.077 401.393C106.273 421.96 108.132 449.72 119.582 467.961C126.153 478.429 137.497 485.639 149.445 488.349C157.367 490.145 165.166 489.896 173.185 489.186C173.201 484.003 173.461 478.938 173.998 473.779C172.997 474.044 171.99 474.284 170.976 474.496C169.962 474.708 168.944 474.894 167.921 475.054C166.898 475.213 165.871 475.345 164.841 475.45C163.811 475.555 162.779 475.634 161.745 475.685C160.71 475.737 159.675 475.761 158.64 475.758C157.604 475.755 156.569 475.725 155.535 475.668C154.501 475.611 153.47 475.527 152.44 475.416C151.41 475.305 150.385 475.167 149.362 475.002C137.237 471.879 127.792 464.976 121.383 454.134C113.997 441.64 113.651 425.849 117.243 412.09C117.794 410.012 118.415 407.955 119.106 405.92C117.414 422.732 119.341 437.459 128.003 452.142C124.185 438.011 123.238 424.544 125.771 410.083C126.281 407.171 130.432 394.053 129.731 393.567ZM278.687 353.99C275.903 355.867 273.025 357.677 270.351 359.706C274.024 370.602 278.535 381.269 282.72 391.98C289.723 410.233 296.941 428.4 304.371 446.483C308.826 457.383 312.393 469.28 317.175 479.869C317.77 481.187 318.446 482.021 319.59 482.885C321.083 483.135 321.74 482.737 323.146 482.232C325.779 481.311 328.449 480.441 331.016 479.347C315.414 445.092 300.821 410.413 287.238 375.309C286.005 372.111 280.44 354.728 278.85 354.024C278.8 354.002 278.742 354.001 278.687 353.99ZM288.86 346.743L281.885 350.832C289.267 371.013 297.952 390.579 305.807 410.563C311.142 424.34 316.555 438.086 322.047 451.801C325.591 460.74 328.986 469.794 332.998 478.537L339.134 476.67C326.847 442.825 314.273 409.087 301.413 375.456C298.939 369.128 292.867 351.658 289.363 346.973L288.86 346.743ZM620.901 210.476C601.603 212.291 583.445 219.574 565.15 225.485C552.113 229.697 538.624 233.265 526.055 238.78C528.389 239.689 530.606 240.753 532.846 241.871C543.477 238.591 554.103 235.184 564.862 232.343C594.974 225.074 632.43 215.22 661.629 230.067C654.685 220.178 646.89 212.891 634.576 210.756C630.026 209.966 625.483 210.105 620.901 210.476ZM339.063 329.06C335.01 331.569 331.018 334.171 327.087 336.867C331.514 347.337 336.138 357.787 340.19 368.407C343.787 377.835 346.861 387.464 350.658 396.816L353.017 402.309C357.805 388.969 355.073 375.951 354.374 362.241C352.109 359.136 350.263 356.012 348.659 352.517C347.074 349.062 340.595 329.816 339.063 329.06ZM214.318 315.783C187.781 323.181 155.556 341.981 135.256 360.516L139.718 358.531C153.942 352.313 168.337 346.519 182.904 341.149C195.04 336.539 207.128 331.853 219.507 327.92C218.716 324.988 217.257 317.687 214.686 315.87L214.318 315.783ZM24.7571 397.335C20.0223 397.402 15.9791 397.427 12.4708 401.12C8.37702 405.431 7.57152 412.801 7.84698 418.502C8.19011 425.605 10.3805 432.05 14.6643 437.723C16.8213 434.432 19.7159 431.863 22.5794 429.199C18.9667 424.735 16.5601 420.038 17.1527 414.102C17.2466 413.162 17.3997 412.24 17.5788 411.314C18.7201 407.595 20.441 404.993 23.0251 402.125C20.5332 411.511 20.5223 418.381 25.1632 427.094C30.1712 424.585 34.6762 421.468 39.23 418.236C36.8877 411.866 37.0645 405.317 37.3476 398.63C33.0571 397.766 29.132 397.225 24.7571 397.335ZM287.634 228.783C284.526 229.769 281.464 230.974 278.327 231.843C277.098 231.287 275.857 230.75 274.64 230.17C270.986 234.792 266.997 237.015 261.854 239.683C263.834 244.75 266.392 252.696 270.136 256.558L271.192 256.737C275.524 256.594 279.592 256.69 283.854 257.527C287.941 252.829 292.179 250.173 297.695 247.326C296.637 243.036 294.523 232.009 290.417 229.536C289.52 228.996 288.654 228.879 287.634 228.783ZM300.58 271.209C296.026 271.823 291.775 272.743 287.415 274.193C289.786 282.522 292.726 290.665 295.17 298.967C299.279 297.731 303.372 296.445 307.449 295.108C312.589 293.613 317.716 292.04 322.946 290.888C321.068 284.948 319.612 278.96 318.177 272.902C312.248 271.649 306.686 270.599 300.58 271.209ZM251.915 245.254C249.447 246.439 246.876 247.823 244.224 248.524C241.257 249.308 237.998 249.507 235.12 250.551C231.424 251.891 227.837 254.422 224.369 256.29C226.029 259.974 230.379 273.154 232.656 275.081L233.11 275.142C246.85 271.84 248.747 267.581 260.558 261.066C258.784 257.333 254.944 247.471 251.915 245.254ZM620.291 231.364C593.6 232.635 567.292 239.763 542.213 248.672C543.721 249.813 545.087 251.007 546.443 252.325C553.037 250.454 559.66 248.687 566.31 247.023C593.347 240.265 620.537 235.757 648.398 239.474C641.871 232.893 629.559 231.319 620.694 231.355C620.56 231.356 620.425 231.361 620.291 231.364ZM264.426 457.329C255.157 460.035 199.679 475.071 197.782 479.404C197.405 480.266 197.537 481.153 197.942 481.977C198.555 483.22 199.572 484.068 200.666 484.864C209.839 482.845 218.608 479.204 227.606 476.535C240.778 472.625 254.36 469.48 267.347 465.027C266.723 463.002 265.932 458.839 264.426 457.329ZM518.989 426.608L453.781 445.008L408.969 457.851C400.081 460.356 390.996 463.408 381.856 464.743C377.589 465.366 373.374 465.283 369.08 465.117C370.636 466.335 372.108 467.45 373.878 468.358C382.437 468.896 407.747 460.676 417.767 458.111C436.882 453.284 455.965 448.336 475.017 443.267C490.825 439.148 506.988 435.117 522.466 429.905C521.612 428.73 520.824 427.42 519.565 426.65L518.989 426.608ZM539.398 347.594C520.19 353.928 500.447 358.917 481.374 365.563C481.122 368.385 480.011 374.178 481.147 376.679C481.362 376.664 481.603 376.713 481.789 376.604C488.615 373.019 495.898 370.43 503.117 367.763C515.626 363.187 528.217 358.848 540.889 354.747C540.738 352.445 540.72 350.071 540.116 347.836L539.398 347.594ZM266.567 282.784C260.54 284.945 254.834 287.145 249.171 290.179C250.925 295.998 253.864 306.999 257.341 311.617L258.13 311.745C264.019 309.797 270.086 307.935 275.751 305.395C274.671 302.306 268.931 284.058 266.567 282.784ZM417.432 346.505C413.159 347.526 409.453 349.92 407.186 353.755C405.395 356.782 404.726 360.458 405.766 363.861C406.559 366.457 408.321 368.516 410.786 369.67C412.67 370.551 414.588 370.66 416.632 370.601C420.977 369.415 424.654 367.551 426.969 363.467C428.62 360.554 429.104 356.968 428.062 353.762C427.185 351.065 425.33 349.119 422.814 347.859C421.066 346.984 419.358 346.684 417.432 346.505ZM583.844 345.453C583.925 364.1 583.06 380.092 576.364 397.772C581.509 391.286 585.956 384.704 588.39 376.692C589.087 373.751 589.748 370.823 590.271 367.846C593.21 374.32 592.497 380.487 591.016 387.26C595.671 378.874 597.507 371.204 594.824 361.772C593.03 355.465 589.259 349.272 583.844 345.453ZM317.849 261.1C314.297 261.628 309.868 262.422 307.187 264.965L306.935 265.805C307.887 267.301 309.468 267.721 311.135 268.123C314.642 268.969 318.395 268.858 321.966 269.306C325.095 275.434 327.213 281.976 330.12 288.198L330.632 288.994C333.424 289.244 336.178 288.009 338.755 287.062C336.225 279.604 333.254 265.897 325.833 262.137C323.346 260.877 320.565 260.856 317.849 261.1ZM352.611 321.014L346.201 323.891C349.398 332.514 352.668 341.109 356.01 349.677C358.462 356.019 360.792 362.588 363.786 368.692C365.572 367.183 367.304 365.709 369.303 364.484C367.466 360.498 365.785 356.448 364.262 352.332C362.359 347.212 354.725 323.551 352.611 321.014ZM227.475 298.521C223.938 299.398 220.891 300.424 217.776 302.344C218.207 306.957 222.21 322.713 225.064 325.966L226.274 325.623C229.74 324.208 233.3 322.892 236.68 321.285C235.519 316.934 231.961 300.934 228.162 298.803C227.946 298.682 227.704 298.615 227.475 298.521ZM337.473 497.51C333.713 498.765 329.99 500.124 326.306 501.586C330.499 510.512 334.04 519.81 338.601 528.554C339.217 529.807 339.647 531.186 340.976 531.817C341.959 531.519 342.29 531.265 342.739 530.307C346.351 522.594 342.868 508.668 339.676 501.285C339.224 500.241 338.482 498.054 337.473 497.51ZM540.384 364.194C529.941 367.492 519.441 370.6 508.884 373.517C500.48 375.855 491.76 377.821 483.668 381.091L486.885 384.477C488.321 385.415 489.246 385.787 490.962 385.453C494.256 384.809 539.034 369.892 541.096 368.692C541.354 367.44 541.353 365.631 540.644 364.507C540.572 364.392 540.471 364.297 540.384 364.194ZM319.012 248.146C315.175 249.728 311.736 252.121 307.924 253.669C299.997 256.886 292.071 257.711 284.881 262.811L283.442 269.009L289.383 266.632C295.945 263.942 302.495 261.181 309.162 258.76C313.968 257.014 319.528 255.753 324.001 253.308C325.24 252.632 325.642 252.304 326.224 251.017C325.958 250.071 325.747 249.66 324.848 249.174C323.157 248.258 320.906 247.932 319.012 248.146ZM406.427 523.592C399.976 528.763 393.808 531.615 385.376 530.676C382.974 530.409 380.608 529.897 378.248 529.393L377.993 538.675C384.507 540.69 390.674 539.495 396.607 536.324C400.92 534.019 404.857 531.008 406.227 526.099C406.466 525.239 406.659 524.48 406.427 523.592ZM326.194 543.055C316.303 546.939 308.5 547.626 298.306 544.442C298.877 547.13 299.475 549.616 300.768 552.071C305.023 554.862 309.422 555.457 314.395 554.426C319.224 553.424 323.603 551.023 327.489 548.049C327.319 546.423 327.255 544.839 326.571 543.332L326.194 543.055ZM336.896 535.489C338.402 539.687 340.062 543.716 342.405 547.524C349.054 547.414 355.132 546.379 361.292 543.802C362.241 543.128 363.017 542.858 363.182 541.574C363.397 539.914 361.901 537.477 361.209 535.989C352.866 538.77 345.164 538.27 336.896 535.489ZM126.378 489.677C135.543 498.877 148.658 501.244 161.247 501.221C165.613 501.212 171.371 501.194 175.455 499.519L175.81 498.978L174.161 493.906C161.493 497.135 149.345 497.152 136.772 493.368C133.427 492.362 129.758 490.163 126.378 489.677ZM237.853 295.249L231.388 297.465C232.371 300.457 237.512 319.76 238.251 320.569L239.611 320.145L246.911 316.458C244.777 310.674 241.609 300.092 238.285 295.376L237.853 295.249ZM301.686 210.664C294.605 212.63 282.104 216.013 278.152 222.884C277.437 224.126 277.261 224.93 277.663 226.307C278.524 226.82 279.096 227.065 280.123 226.798C281.014 226.566 282.046 225.802 282.81 225.313L283.34 225.023C289.699 221.576 303.17 218.273 307.222 212.793L307.35 211.85C306.387 210.845 305.153 210.651 303.807 210.621C303.107 210.606 302.385 210.61 301.686 210.664ZM274.744 265.858C268.204 267.635 255.884 270.712 250.622 274.43C249.41 275.288 248.308 276.843 247.585 278.122C247.048 279.071 246.542 281.072 246.783 282.129C246.842 282.391 246.985 282.627 247.086 282.876C247.612 282.962 247.919 283.068 248.436 282.897L275.781 270.467C275.939 269.021 276.286 267.418 275.799 266.026C275.504 265.973 275.036 265.84 274.744 265.858ZM236.021 281.152C230.123 283.37 218.672 285.879 215.867 291.746C214.877 293.816 215.217 295.884 215.999 297.952L216.576 298.208L218.405 297.226C223.49 294.338 236.658 289.356 239.752 285.645C239.778 284.393 239.181 282.491 238.229 281.607C237.685 281.102 237.113 281.015 236.383 281.094C236.261 281.107 236.142 281.133 236.021 281.152ZM382.323 476.58C380.904 478.296 379.594 479.972 378.405 481.86C384.661 492.765 390.452 504.227 390.585 517.059L391.172 517.354C392.465 514.251 392.779 510.884 392.963 507.56C393.218 502.98 385.665 480.378 382.634 476.873C382.542 476.766 382.427 476.678 382.323 476.58ZM39.788 422.902C34.9856 425.959 20.5172 436.712 17.6997 440.888C18.7744 441.88 20.1329 442.273 21.5157 442.66C30.118 441.458 36.8249 432.576 42.6022 426.67C41.9845 425.76 40.7066 423.285 39.788 422.902ZM51.3503 393.841C47.8404 395.378 45.3842 397.139 43.8585 400.831C42.1527 404.959 42.6022 409.974 44.4583 413.971C44.7331 414.563 45.0414 415.087 45.4092 415.623C47.7678 414.971 49.3001 414.469 50.5271 412.243C52.3494 408.94 51.0008 404.499 51.5017 400.909C51.8264 398.583 53.2855 396.547 53.3228 394.173C52.5332 393.67 52.2599 393.823 51.3503 393.841ZM343.011 481.7C335.568 484.681 327.947 487.534 320.243 489.76C320.923 491.704 321.468 493.677 322.741 495.325L323.692 495.456C331.252 492.425 338.951 489.558 346.416 486.31C345.67 484.74 345.039 483.048 343.804 481.799L343.011 481.7ZM269.232 226.451C257.392 228.223 247.819 232.122 240.728 242.352C240.198 243.117 239.95 243.511 240.164 244.445L241.218 244.681C247.527 241.275 253.595 237.455 259.809 233.881C263.101 231.987 267.267 230.304 270.111 227.812L270.228 227.1C269.977 226.931 269.505 226.558 269.232 226.451ZM345.14 494.579L339.182 496.896C344.744 504.729 348.379 515.969 348.87 525.554L348.991 528.124L349.376 528.456C352.316 522.851 350.36 508.782 348.573 502.957C347.949 500.925 346.944 495.525 345.14 494.579ZM229.483 242.157C221.758 244.255 209.724 247.176 205.405 254.544C204.699 255.749 204.255 256.633 204.593 258.017C205.551 258.328 205.716 258.208 206.672 257.743C207.129 257.52 207.596 257.168 208.015 256.89C216.498 251.249 225.516 247.292 235.017 243.711C233.195 243.123 231.379 242.45 229.483 242.157ZM401.122 356.737C399.152 361.009 398.27 367.349 399.795 371.814C400.626 374.247 402.199 376.242 404.536 377.373C407.018 378.576 409.557 378.301 412.194 377.903L413.459 377.24L413.544 376.645C407.914 373.356 404.657 374.892 402.444 366.286C401.638 363.151 401.921 359.759 401.122 356.737ZM273.863 280.094C273.706 280.506 273.471 280.896 273.39 281.329C272.986 283.508 279.007 298.16 280.231 300.88C280.616 301.737 280.971 302.389 281.587 303.088L284.098 302.449L284.772 301.911C284.061 297.903 277.656 283.108 275.031 280.395L273.863 280.094ZM220.234 408.744C217.978 409.926 216.052 411.202 215.286 413.772C214.925 414.983 214.988 416.235 215.689 417.325C216.768 419.002 218.546 419.452 220.395 419.722C222.758 418.383 224.48 417.231 225.267 414.502C225.648 413.181 225.58 412.039 224.827 410.847C224.025 409.576 222.272 409.015 220.869 408.818C220.658 408.788 220.446 408.769 220.234 408.744ZM225.731 420.092C223.726 421.188 221.742 422.231 219.649 423.151C220.763 426.377 221.954 429.564 223.903 432.391C225.729 432.012 227.647 431.794 229.218 430.741C229.868 429.406 229.236 427.606 228.768 426.283C228.175 424.608 226.994 421.235 225.731 420.092ZM53.4831 414.796L46.7314 419.915C47.6208 421.16 48.5883 422.97 50.1614 423.345C52.2712 422.56 54.4417 421.846 56.468 420.863C55.7022 418.85 55.0354 416.746 53.8807 414.919L53.4831 414.796Z" fill="#2C2C2C"/>
</svg>
