<svg width="199" height="131" viewBox="0 0 199 131" fill="none" xmlns="http://www.w3.org/2000/svg">
<path d="M23.3742 0.628451C21.6755 0.656422 20.1535 1.18108 18.722 2.09052C10.9386 7.0347 5.1515 23.5118 3.22398 32.1324C2.17016 36.8463 1.36678 41.6742 1.0404 46.4991C0.450247 55.2183 1.30884 66.6688 6.0884 74.2168C7.55942 76.5398 9.6984 78.7129 12.4634 79.3114C18.8827 80.7007 24.2644 72.1583 26.9415 67.357C28.014 65.4329 28.6733 62.8446 30.6096 61.6265C37.045 57.5768 45.65 57.8643 52.8963 58.7421C56.0322 59.1025 59.1375 59.6424 62.2123 60.3619C59.152 64.0858 57.3456 69.6436 56.4523 74.3674C56.1252 76.0973 55.9743 77.8521 55.6643 79.5836C54.6691 79.8666 53.7297 80.2658 52.8936 80.8855C50.9996 82.2897 49.9767 84.5689 49.651 86.8683C49.6254 87.0508 49.6043 87.2337 49.5878 87.4171C49.5713 87.6006 49.5593 87.7844 49.5518 87.9685C49.5443 88.1525 49.5413 88.3366 49.5429 88.5208C49.5445 88.7051 49.5507 88.8892 49.5613 89.0731C49.5719 89.2571 49.5871 89.4407 49.6068 89.6239C49.6265 89.807 49.6507 89.9896 49.6793 90.1717C49.7081 90.3536 49.7412 90.5348 49.7787 90.7153C49.8164 90.8956 49.8584 91.0749 49.9048 91.2531C49.9512 91.4313 50.002 91.6083 50.0572 91.7842C50.1123 91.9599 50.1717 92.1341 50.2354 92.3068C50.2992 92.4796 50.3671 92.6508 50.4392 92.8202C50.5114 92.9895 50.5877 93.157 50.668 93.3226C50.7484 93.4881 50.8328 93.6516 50.9212 93.8131C51.0097 93.9745 51.102 94.1335 51.1983 94.2902C51.2945 94.447 51.3945 94.6013 51.4984 94.7531C51.6023 94.9049 51.7099 95.054 51.821 95.2005C53.6069 97.5844 56.3707 99.0517 59.1875 99.8214C60.5156 100.184 61.8808 100.411 63.1791 100.881C64.7694 101.457 66.1758 102.464 67.7947 103.013C71.3813 104.229 75.0969 105.038 78.7732 105.927C86.0362 107.683 93.3995 109.306 100.796 110.375C100.213 112.471 99.7146 114.592 99.1524 116.694C98.686 118.439 98.1203 120.195 97.7841 121.97C97.5618 123.145 97.505 124 98.2282 125.02C99.6128 126.974 103.017 127.984 105.259 128.298C107.275 128.58 108.822 128.286 110.461 127.029C111.457 127.773 112.535 128.321 113.732 128.651C115.773 129.213 118.023 129.233 119.892 128.152C121.05 128.99 122.163 129.566 123.557 129.896C124.957 130.228 127.158 130.518 128.418 129.675C128.906 129.349 129.141 128.946 129.347 128.405C129.944 126.843 130.098 125.066 130.427 123.427C131.01 120.547 131.619 117.673 132.255 114.806C135.647 115.61 139.002 116.565 142.394 117.367C144.164 117.786 145.972 118.233 147.783 118.417C150.296 118.673 152.612 118.333 154.608 116.705C155.543 115.883 156.088 114.767 156.638 113.669C159.063 114.564 161.648 114.601 164.16 114.085C166.929 113.516 169.173 112.081 170.734 109.688C174.301 104.221 174.054 94.6604 172.755 88.4185C175.339 89.0897 179.128 90.0731 181.436 91.3301C182.363 91.8356 182.898 92.8452 183.806 93.2854C184.881 93.8069 186.112 93.6948 187.15 94.3597C188.328 95.1137 189.236 96.253 190.42 97.0102C191.563 97.7415 192.855 98.2341 194.222 97.8976C195.391 97.6098 196.271 96.7803 196.893 95.775C198.373 93.385 198.422 90.3932 197.808 87.7192C197.509 86.4197 196.947 85.0152 195.758 84.3016C193.746 83.0934 190.358 84.022 188.224 84.5267C187.586 84.0611 186.928 83.6209 186.157 83.4135C184.996 83.1012 183.77 83.504 182.595 83.2884C180.156 82.8409 177.79 81.8595 175.426 81.1228C173.628 80.5622 171.639 80.1558 169.922 79.3793C168.7 78.8264 167.626 77.2653 166.663 76.3224C165.956 75.6323 165.211 74.9865 164.427 74.3852C158.625 69.994 151.528 67.8908 144.675 65.8725C144.802 65.5768 144.917 65.2765 145.021 64.9716C145.311 64.1095 145.34 63.157 144.913 62.3336C144.248 61.0503 142.751 60.4694 141.462 60.0515C141.904 58.4622 142.409 57.0219 143.471 55.7462C144.21 55.7066 144.946 55.8135 145.683 55.7649C146.07 55.7395 146.614 55.6441 146.85 55.2904C147.084 54.94 147.063 54.3168 146.969 53.923C146.407 51.5556 142.441 49.9967 140.293 49.8624C139.414 49.8076 138.439 50.1897 137.577 49.9226C136.658 49.6377 135.806 48.5513 134.945 48.0393C132.887 46.8143 130.835 46.5129 128.532 47.1139C128.043 46.1271 127.193 45.3491 126.264 44.789C124.709 43.8518 122.478 43.1738 120.68 43.6605C120.042 43.8335 119.341 44.2016 119.018 44.8114C118.839 45.1494 118.812 45.5206 118.942 45.8818C119.408 47.1773 121.195 47.7975 122.356 48.2964C121.831 49.758 121.401 51.2554 120.951 52.7419C120.587 52.6529 120.218 52.5552 119.849 52.4966C118.814 52.3326 116.644 53.0555 115.838 53.6659C114.4 54.7537 115.747 55.6014 115.534 56.6223C115.504 56.7661 115.484 56.7269 115.333 56.8006C113.823 56.5703 111.813 55.3971 110.332 54.7932C108.131 53.9132 105.909 53.0936 103.664 52.3345C95.173 49.4613 86.6434 46.7082 78.0756 44.0754C71.3437 42.069 64.67 39.8817 58.0546 37.5133C54.2794 36.1479 50.4874 34.7937 46.9044 32.96C42.3554 30.6317 38.6147 27.4649 35.3421 23.5464C35.0149 17.161 34.1674 9.32867 29.9497 4.23337C28.2353 2.16222 26.0569 0.864488 23.3742 0.628451ZM25.5481 2.42115C29.4585 4.49724 31.3 8.17158 32.5653 12.2909C33.7019 15.9918 34.1792 19.843 34.478 23.6912C35.5227 37.1469 33.3687 51.28 27.0367 63.2893C24.5149 68.0719 19.9666 75.1943 14.6254 76.8197C13.0057 77.3127 11.2844 77.2581 9.77988 76.4225C6.52943 74.6173 4.86673 70.3136 3.91916 66.9105C1.76131 59.1632 2.29751 50.4823 4.19544 42.7391L4.46484 41.8919C7.14667 39.8983 10.7476 39.1027 14.0348 39.6115C16.8134 40.0417 19.3428 41.4814 21.0008 43.7911C23.6139 47.4315 23.5812 52.1298 22.8778 56.3749C21.9991 61.6769 19.9797 66.5755 17.8364 71.4603C24.2397 67.9348 28.0088 58.3963 29.9698 51.67C33.8789 38.262 34.6124 18.3013 27.7035 5.72243C27.4533 5.26662 25.5478 2.66138 25.5481 2.42115ZM73.3516 56.971C81.7899 57.1542 92.069 60.1602 100.27 62.5007C106.085 64.1658 111.911 65.7929 117.747 67.3822C121.957 68.5365 126.179 69.645 130.413 70.7075C134.276 71.6431 138.173 72.4393 142.015 73.4655C145.959 74.5541 149.877 75.7272 153.771 76.9849C160.538 79.1805 167.318 81.3325 174.111 83.4408C177.022 84.3338 180.855 85.748 183.792 86.1571C183.936 87.076 184.249 89.3536 183.577 90.0947C183.418 90.2706 183.305 90.3407 183.065 90.3243C181.821 90.2393 178.361 88.7762 176.943 88.2935C173.155 87.004 169.328 85.6894 165.476 84.6154L153.675 81.4264C150.531 80.5537 147.412 79.578 144.25 78.7741C131.769 75.6008 119.204 72.7478 106.788 69.3176C100.718 67.5871 94.6264 65.9386 88.5126 64.3721C85.0459 63.4664 81.3884 62.2094 77.8106 61.9871C75.9119 61.8691 73.8953 62.0989 72.2193 63.0631C68.3943 65.2643 66.7071 70.6436 65.6421 74.7098C64.3554 79.6213 63.3679 87.6453 65.9644 92.1299C67.1787 94.2274 69.2089 96.0319 71.2975 97.2235C71.22 97.8773 71.1555 98.5359 71.0343 99.1832C66.1414 95.6818 62.422 92.058 61.3841 85.8175C60.4065 79.9401 61.7637 73.6111 63.9432 68.1434C64.2801 67.2978 64.6136 66.4375 65.0106 65.6188C65.3294 64.9616 65.7923 64.297 65.9971 63.5978C66.0737 63.336 66.109 63.0991 66.0012 62.8451C65.7078 62.7494 65.4623 62.812 65.1967 62.952C62.7418 64.2462 60.8873 69.3829 60.1924 71.935C58.1488 79.4414 57.766 89.5132 61.66 96.4526C61.6999 96.5234 61.7405 96.5938 61.7818 96.6637C57.9726 92.5009 57.2791 86.6412 57.4968 81.1917C57.7842 73.9921 59.8049 65.1254 65.2329 60.0922C67.3262 58.1513 70.3359 56.8355 73.2284 56.9641C73.2695 56.9659 73.3106 56.9688 73.3516 56.971ZM76.7191 64.0178C80.1457 64.2111 83.4014 65.102 86.7126 65.9517C89.8643 66.7604 92.9826 67.5889 96.0837 68.5815C97.3902 72.9223 98.8662 77.2045 99.9763 81.5973C99.2378 80.2757 98.4229 79.1413 96.8978 78.689C95.8533 78.3792 94.6435 78.5503 93.7126 79.112C92.8748 79.6176 92.3172 80.4411 92.1056 81.3968C91.8282 82.6498 92.1168 83.9461 92.8131 85.0099C93.0787 85.4156 94.5482 86.8338 94.5758 86.9914C94.3872 86.9906 94.2366 86.9742 94.054 86.9258C84.9157 84.0871 75.81 81.5839 66.4147 79.7702C67.0902 75.2503 68.088 68.3972 71.9385 65.5028C73.2563 64.5124 75.0695 63.9246 76.7191 64.0178ZM141.702 79.7072C145.685 80.4274 149.608 81.5764 153.518 82.6215C156.726 83.4792 160.003 84.2209 163.122 85.376C165.515 90.186 166.491 95.2211 164.771 100.431C164.24 102.038 163.454 104.141 161.835 104.921C160.293 105.663 158.283 105.678 156.617 105.498C156.205 104.574 155.798 103.662 155.187 102.851C153.195 100.597 150.821 99.6641 147.945 99.0492C147.38 98.9283 146.426 98.8394 145.953 98.5364C145.654 98.345 145.583 97.7628 145.605 97.4438C145.73 95.6038 148.105 93.3787 146.699 91.6447C146.213 91.046 145.518 90.6123 144.745 90.5406C144.147 90.4853 143.529 90.6415 143.068 91.0396C142.616 91.4309 142.348 92.057 142.346 92.6555C142.344 93.0699 142.431 93.5342 142.535 93.935C142.17 94.9078 141.789 95.8774 141.474 96.8677C140.072 96.6855 138.67 96.4838 137.26 96.385C137.962 92.0252 139.324 87.8056 140.402 83.5344C140.584 82.8151 141.022 80.2729 141.357 79.777C141.477 79.7431 141.577 79.7102 141.702 79.7072ZM39.7188 32.2199C42.5409 34.3546 45.3544 36.3533 48.4356 38.1C52.4898 40.3983 56.7605 42.1492 61.0983 43.8164C64.4311 45.1291 67.7932 46.3605 71.1845 47.5108C75.7276 49.001 80.3392 50.254 84.9156 51.6326C94.4645 54.5094 104.063 57.4528 113.459 60.8048L112.852 63.0069C112.728 63.2634 112.755 63.2798 112.491 63.3709C111.372 63.2389 110.305 62.6693 109.25 62.2928C107.943 61.8308 106.625 61.3992 105.299 60.998C98.3512 58.8807 91.3761 56.8605 84.3734 54.9374C78.4907 53.3668 72.5796 51.914 66.6401 50.5789C61.6423 49.4727 56.4662 48.6085 51.6543 46.8133C48.3322 45.5741 45.1864 43.9515 42.9323 41.1104C41.3876 39.1632 39.3323 35.1288 39.6568 32.5713C39.6718 32.453 39.6945 32.3366 39.7188 32.2199ZM136.215 79.0529C137.386 79.3169 138.56 79.5702 139.735 79.8127C139.284 81.9255 138.676 84.0173 138.125 86.1063C136.848 90.9473 135.486 95.7728 134.262 100.626C132.327 108.296 130.831 116.141 128.477 123.694C128.309 124.233 128.143 124.782 127.69 125.145C127.43 125.191 127.362 125.215 127.129 125.053C126.476 124.599 126.241 123.455 126.197 122.721C126.035 119.966 128.926 111.26 129.789 108.265C131.87 101.044 133.984 93.7561 135.483 86.3861C135.888 84.3961 136.392 82.3243 136.592 80.3079C136.628 79.8856 136.68 79.4626 136.647 79.039C133.928 89.1399 131.261 99.2543 128.643 109.382C128.243 110.969 127.808 112.546 127.339 114.113C126.302 117.538 125.117 120.92 124.997 124.537C123.506 121.796 124.076 119.638 124.897 116.771C125.541 116.203 126.848 115.262 126.862 114.333C126.867 113.983 126.723 113.676 126.464 113.445C126.215 113.222 125.855 113.087 125.553 112.95C126.53 109.703 127.337 106.398 128.208 103.121L131.565 90.6386C132.173 88.3246 132.921 84.0118 133.915 82.0019C134.296 81.2307 135.42 80.2605 135.971 79.3916C136.029 79.3004 136.137 79.1207 136.215 79.0529ZM118.389 76.3453C119.527 76.9466 120.67 77.5445 121.739 78.2667C120.319 82.2331 119.316 86.3464 118.203 90.4074C117.07 94.5442 115.779 98.6388 114.685 102.786C112.93 109.447 111.359 116.206 109.121 122.724C107.994 121.924 107.195 121.125 106.952 119.692C106.86 119.145 106.831 118.59 106.832 118.036C107.055 116.124 107.523 114.355 108.332 112.608C110.085 111.284 111.624 109.912 111.968 107.611C112.144 106.436 111.947 105.176 111.248 104.196C110.59 103.272 109.65 102.816 108.634 102.408C108.869 101.482 109.114 100.558 109.369 99.6376C109.886 99.597 110.409 99.5725 110.923 99.5065C110.602 100.674 110.257 101.836 109.951 103.007C110.206 102.733 110.472 102.455 110.689 102.15C111.205 101.427 111.563 100.563 112.001 99.7897C112.432 99.0304 112.987 98.2886 113.314 97.479C113.543 96.9103 113.669 96.3241 113.661 95.7089C113.648 94.7533 113.348 93.811 112.999 92.9308C113.814 90.9482 114.568 88.9419 115.259 86.9118C115.95 84.8818 116.578 82.8319 117.142 80.7622C117.304 80.1711 118.096 76.6406 118.389 76.3453ZM136.586 98.5407C138.866 99.2 141.146 99.9234 143.446 100.499C147.688 101.561 152.23 101.754 154.621 106.052C155.644 107.89 156.01 109.879 155.423 111.92C155.036 113.267 154.175 114.403 152.947 115.079C152.079 115.557 151.147 115.788 150.161 115.82C147.478 115.908 144.537 115.08 141.945 114.444C138.936 113.707 135.94 112.876 132.917 112.207L133.073 111.303C136.351 112.115 139.64 112.878 142.941 113.59C144.903 114.006 146.924 114.503 148.932 114.569C149.803 114.597 150.764 114.564 151.517 114.075C152.195 113.636 152.586 112.908 152.994 112.233C151.842 113.337 150.928 113.796 149.307 113.746C146.385 113.656 142.896 112.531 140.005 111.868L133.375 110.445C133.575 109.527 133.811 108.602 133.965 107.676C137.349 108.723 140.767 109.521 144.22 110.292C146.027 110.695 147.922 111.228 149.775 111.307C150.444 111.336 151.135 111.292 151.741 110.978C152.28 110.698 152.656 110.218 152.809 109.627C152.831 109.544 152.849 109.46 152.863 109.375C152.877 109.29 152.887 109.205 152.892 109.119C152.898 109.033 152.899 108.948 152.896 108.861C152.893 108.775 152.886 108.69 152.874 108.604C152.863 108.519 152.847 108.435 152.828 108.351C152.808 108.267 152.784 108.185 152.756 108.103C152.728 108.022 152.697 107.942 152.661 107.864C152.625 107.786 152.585 107.71 152.542 107.635C151.287 105.495 145.389 104.62 143.093 104.095C140.88 103.588 137.376 103.095 135.387 102.297L135.301 102.132C135.433 101.927 135.588 101.806 135.831 101.762C136.255 101.684 136.795 101.8 137.219 101.883C139.106 102.254 140.98 102.809 142.853 103.255C145.734 103.943 148.63 104.563 151.539 105.115C148.926 103.966 146.08 103.352 143.331 102.623C140.856 101.968 138.357 101.21 135.828 100.803C135.968 100.175 136.098 99.0078 136.528 98.5546L136.586 98.5407ZM99.0155 69.4023C102.731 70.4533 106.514 71.3261 110.207 72.442C108.653 76.7607 107.154 81.1543 105.903 85.5717L104.875 89.2854C103.884 89.1228 102.171 89.0434 101.488 88.2497C101.668 87.2686 102.162 86.3447 102.306 85.3651C102.809 81.9464 101.419 78.0204 100.396 74.7899C100.229 74.261 98.6997 69.7755 98.8612 69.5107C98.8906 69.462 98.9495 69.4396 98.9958 69.4071C99.0014 69.4032 99.0089 69.404 99.0155 69.4023ZM73.2635 97.2065C81.1493 98.9695 89.1177 100.392 97.0476 101.937L102.861 103.063C104.389 103.35 105.93 103.56 107.415 104.04C108.224 104.302 108.922 104.64 109.411 105.376C109.723 105.847 109.996 106.546 109.853 107.118C109.801 107.326 109.761 107.395 109.594 107.52C109.587 107.525 109.578 107.527 109.57 107.53C107.15 107.256 104.849 106.638 102.485 106.074C100.239 105.547 97.9884 105.044 95.7322 104.564L82.8654 101.87C79.665 101.227 76.443 100.645 73.2614 99.9145C73.1616 99.1955 72.8339 97.9541 73.0154 97.2539C73.221 97.1894 73.137 97.1847 73.2635 97.2065ZM82.4713 85.9662C87.7855 87.4386 93.1279 88.7978 98.4986 90.0438C101.545 90.7519 104.897 91.154 107.795 92.3366C108.89 92.7836 109.934 93.4071 110.532 94.4748C110.749 94.8621 110.993 95.3728 110.864 95.8294C110.78 96.1251 110.535 96.3094 110.266 96.4206C109.527 96.7248 108.615 96.6287 107.841 96.523C106.105 96.2864 104.38 95.848 102.666 95.4881C99.9588 94.9293 97.2485 94.3868 94.5351 93.8607L86.1855 92.3384C84.7523 92.0841 83.0841 91.9722 81.7452 91.4249L82.2896 90.1193C85.4714 91.0308 108.474 96.1964 110.033 95.9008C110.046 95.7007 110.081 95.7619 109.96 95.6247C109.58 95.1917 108.57 94.9206 108.029 94.7572C104.663 93.7411 101.138 93.0709 97.7181 92.2573C92.7465 91.0747 87.7966 89.7987 82.79 88.7745C82.7225 88.239 82.2975 86.3372 82.4713 85.9662ZM67.3472 90.0497C71.4064 91.0026 75.5056 91.7668 79.5613 92.7353C85.4462 94.1407 91.3021 95.5763 97.2748 96.5617C98.7958 96.8126 100.344 97.1398 101.875 97.2862C101.573 98.1239 101.295 98.9835 100.934 99.7968C100.799 100.102 100.672 100.414 100.521 100.711C95.3626 99.555 90.3041 98.0363 85.1646 96.8153L76.8324 94.8917C74.4572 94.3438 72.0117 93.8595 69.7576 92.8983C68.8885 92.5275 67.9951 91.7766 67.4851 90.9678C67.3374 90.7334 67.2257 90.5016 67.1445 90.237L67.2149 90.071L67.3472 90.0497ZM166.308 86.2425C167.846 86.7677 169.393 87.4069 170.964 87.8083C172.504 92.7306 172.565 99.5269 170.131 104.179C168.734 106.85 166.123 108.813 163.283 109.691C161.4 110.274 159.509 110.355 157.556 110.329C157.457 109.067 157.301 107.837 157.076 106.591C157.323 106.637 157.571 106.677 157.82 106.71C158.069 106.743 158.319 106.77 158.57 106.79C158.82 106.81 159.071 106.824 159.322 106.83C159.573 106.837 159.824 106.837 160.075 106.831C160.326 106.825 160.577 106.812 160.828 106.792C161.078 106.773 161.328 106.746 161.577 106.714C161.826 106.681 162.074 106.641 162.321 106.596C162.568 106.55 162.813 106.497 163.058 106.439C165.933 105.456 168.09 103.602 169.441 100.844C170.998 97.6657 170.791 93.8128 169.67 90.5267C169.498 90.0305 169.31 89.5408 169.105 89.0575C169.824 93.1222 169.629 96.7449 167.804 100.48C168.467 96.9678 168.449 93.67 167.57 90.1933C167.393 89.4934 166.148 86.3736 166.308 86.2425ZM129.551 79.3214C130.259 79.7279 130.989 80.1162 131.673 80.5617C130.985 83.283 130.09 85.9639 129.275 88.6496C127.916 93.2238 126.505 97.7813 125.04 102.322C124.163 105.059 123.519 108.022 122.557 110.689C122.437 111.021 122.289 111.236 122.028 111.467C121.672 111.556 121.506 111.471 121.156 111.373C120.502 111.197 119.84 111.034 119.199 110.814C122.343 102.185 125.235 93.4704 127.875 84.6709C128.114 83.8694 129.141 79.5332 129.512 79.3329C129.524 79.3264 129.538 79.3252 129.551 79.3214ZM126.957 77.7418L128.72 78.6107C127.305 83.6616 125.564 88.5864 124.032 93.5979C122.995 97.0515 121.938 100.499 120.862 103.94C120.17 106.182 119.515 108.45 118.705 110.653L117.187 110.31C119.536 101.841 121.957 93.393 124.449 84.9656C124.931 83.379 126.079 79.0124 126.84 77.8072L126.957 77.7418ZM44.1379 50.6104C48.8391 50.7002 53.3653 52.1428 57.8989 53.2485C61.1298 54.0365 64.4582 54.6594 67.5998 55.7733C67.052 56.0375 66.5353 56.337 66.0139 56.6504C63.3822 56.0455 60.7494 55.4096 58.0948 54.9138C50.6776 53.693 41.4368 51.9765 34.6473 56.1264C36.145 53.5907 37.8964 51.6734 40.8355 50.9283C41.9215 50.6528 43.0229 50.6036 44.1379 50.6104ZM114.489 74.3511C115.516 74.8882 116.529 75.4492 117.53 76.0341C116.651 78.6656 115.725 81.2955 114.94 83.9566C114.244 86.3189 113.677 88.7206 112.931 91.0681L112.461 92.4493C111.058 89.2873 111.479 86.0662 111.396 82.7137C111.887 81.9157 112.276 81.1211 112.6 80.2404C112.919 79.3697 114.133 74.5631 114.489 74.3511ZM144.418 68.8387C150.973 70.1564 159.113 74.1477 164.364 78.2922L163.248 77.8901C159.693 76.6349 156.105 75.4864 152.483 74.4444C149.463 73.543 146.453 72.6222 143.386 71.8902C143.523 71.1613 143.742 69.3562 144.331 68.8666L144.418 68.8387ZM191.768 85.2435C192.915 85.1733 193.893 85.1056 194.81 85.9412C195.879 86.9164 196.21 88.6971 196.248 90.0909C196.296 91.8276 195.884 93.4375 194.952 94.8977C194.37 94.1354 193.623 93.5624 192.881 92.9657C193.673 91.8124 194.169 90.6243 193.916 89.189C193.876 88.9617 193.822 88.74 193.762 88.5175C193.417 87.6324 192.953 87.0301 192.275 86.3786C193.051 88.6196 193.18 90.2929 192.217 92.5002C190.96 91.9805 189.813 91.3034 188.652 90.5992C189.102 89.0048 188.938 87.4126 188.747 85.7888C189.769 85.5001 190.708 85.2965 191.768 85.2435ZM125.085 48.9843C125.854 49.1678 126.617 49.4053 127.392 49.5598C127.679 49.4019 127.969 49.2483 128.253 49.0848C129.222 50.144 130.228 50.6129 131.521 51.1688C131.135 52.4392 130.662 54.4216 129.828 55.4307L129.576 55.4937C128.525 55.5379 127.543 55.6356 126.528 55.9173C125.453 54.8475 124.379 54.2779 122.992 53.685C123.169 52.6208 123.478 49.896 124.425 49.2184C124.632 49.0706 124.84 49.0263 125.085 48.9843ZM122.733 59.5558C123.846 59.622 124.891 59.7687 125.973 60.0422C125.552 62.1144 124.991 64.1519 124.553 66.2188C123.536 65.9928 122.522 65.7542 121.512 65.5029C120.241 65.2327 118.972 64.9431 117.686 64.7579C118.031 63.2768 118.273 61.7914 118.508 60.2895C119.919 59.876 121.245 59.5186 122.733 59.5558ZM134.027 52.3444C134.646 52.5879 135.293 52.8781 135.948 53.0004C136.68 53.1374 137.471 53.1264 138.187 53.3281C139.105 53.587 140.02 54.138 140.893 54.5298C140.559 55.4574 139.749 58.7475 139.234 59.2587L139.125 59.2817C135.741 58.7283 135.204 57.7253 132.227 56.3541C132.588 55.4122 133.335 52.9396 134.027 52.3444ZM44.6698 55.6876C51.1491 55.5099 57.6435 56.7658 63.8734 58.4781C63.5295 58.7835 63.2212 59.0993 62.9175 59.4453C61.288 59.1099 59.6537 58.8003 58.0146 58.5165C51.3506 57.364 44.691 56.7623 38.0205 58.1766C39.4781 56.4541 42.4272 55.846 44.5722 55.6927C44.6046 55.6905 44.6372 55.6892 44.6698 55.6876ZM134.901 104.235C137.193 104.724 150.888 107.374 151.427 108.395C151.534 108.598 151.518 108.817 151.435 109.025C151.31 109.339 151.08 109.564 150.83 109.778C148.574 109.454 146.386 108.727 144.16 108.241C140.902 107.529 137.56 107.011 134.336 106.163C134.45 105.658 134.565 104.63 134.901 104.235ZM72.7632 101.4L88.8739 104.691L99.9491 107.001C102.145 107.449 104.399 108.027 106.634 108.185C107.677 108.259 108.695 108.162 109.731 108.043C109.377 108.368 109.041 108.666 108.63 108.92C106.57 109.207 100.297 107.667 97.8259 107.225C93.1136 106.398 88.4068 105.542 83.7055 104.655C79.8061 103.94 75.8225 103.253 71.9827 102.266C72.1677 101.964 72.3342 101.631 72.6246 101.42L72.7632 101.4ZM66.3735 82.5243C71.1359 83.7164 76.0031 84.5713 80.7387 85.842C80.8516 86.5247 81.2268 87.9157 80.9981 88.5456C80.9458 88.5458 80.8884 88.5622 80.8414 88.5391C79.1243 87.7904 77.3152 87.2928 75.5201 86.775C72.4103 85.8887 69.285 85.0616 66.1444 84.294C66.1387 83.7303 66.0993 83.1518 66.2044 82.5963L66.3735 82.5243ZM131.173 61.7542C132.671 62.1707 134.092 62.6023 135.517 63.238C135.2 64.6876 134.691 67.421 133.935 68.6095L133.747 68.6551C132.286 68.2883 130.785 67.9453 129.368 67.4302C129.572 66.6578 130.625 62.1079 131.173 61.7542ZM95.8544 80.0318C96.9066 80.2024 97.847 80.718 98.4659 81.6106C98.9548 82.3155 99.1843 83.1986 98.9953 84.0466C98.8511 84.6936 98.4628 85.2273 97.8879 85.5533C97.4485 85.8024 96.9865 85.8639 96.4911 85.8869C95.4183 85.6774 94.4946 85.2904 93.8594 84.3378C93.4066 83.6585 93.2235 82.7936 93.4167 81.9936C93.5791 81.3207 93.9921 80.8127 94.5775 80.4598C94.9841 80.2147 95.3918 80.1105 95.8544 80.0318ZM55.5836 82.8143C55.9071 87.3582 56.4103 91.238 58.3552 95.4227C56.9913 93.9367 55.7947 92.4145 55.0587 90.5071C54.836 89.8035 54.6222 89.1024 54.441 88.3867C53.8491 90.0174 54.135 91.5067 54.6178 93.1294C53.3376 91.1718 52.7526 89.3367 53.228 86.9901C53.546 85.421 54.3441 83.8435 55.5836 82.8143ZM118.371 57.4085C119.239 57.4724 120.325 57.5848 121.02 58.1553L121.097 58.3554C120.894 58.7372 120.519 58.8683 120.124 58.9967C119.291 59.2668 118.381 59.3083 117.526 59.4826C116.881 61.0327 116.49 62.665 115.901 64.2336L115.792 64.4369C115.121 64.5489 114.432 64.2983 113.791 64.1146C114.266 62.2518 114.733 58.8583 116.459 57.8069C117.037 57.4545 117.709 57.3986 118.371 57.4085ZM111.064 72.6384L112.668 73.2222C112.053 75.3811 111.42 77.5346 110.769 79.6828C110.293 81.2726 109.85 82.9152 109.238 84.4568C108.778 84.1218 108.332 83.7945 107.826 83.5325C108.197 82.5281 108.529 81.5107 108.822 80.4802C109.188 79.1982 110.6 73.295 111.064 72.6384ZM140.918 64.8739C141.79 65.023 142.546 65.2172 143.334 65.6283C143.315 66.7597 142.637 70.6711 142.006 71.5157L141.707 71.4542C140.843 71.1727 139.958 70.9172 139.11 70.5874C139.311 69.5063 139.878 65.5436 140.757 64.9551C140.807 64.9218 140.865 64.901 140.918 64.8739ZM117.972 115.357C118.904 115.594 119.83 115.857 120.748 116.146C119.898 118.397 119.212 120.726 118.27 122.94C118.144 123.256 118.065 123.6 117.755 123.778C117.512 123.723 117.427 123.667 117.301 123.442C116.286 121.629 116.872 118.173 117.508 116.317C117.598 116.054 117.738 115.508 117.972 115.357ZM66.4403 86.5859C69.027 87.1988 71.6239 87.7642 74.2309 88.282C76.3068 88.6979 78.452 89.0177 80.4694 89.6664L79.7536 90.55C79.4236 90.8049 79.2067 90.9122 78.7855 90.8621C77.9768 90.7655 66.8717 87.9494 66.3509 87.6946C66.2654 87.3944 66.2325 86.9537 66.3831 86.667C66.3985 86.6376 66.4212 86.6128 66.4403 86.5859ZM117.851 54.274C118.808 54.5894 119.684 55.1095 120.635 55.4169C122.611 56.0559 124.543 56.1123 126.376 57.2233L126.838 58.7069L125.358 58.2362C123.721 57.7007 122.086 57.1477 120.429 56.6797C119.234 56.3422 117.866 56.1366 116.739 55.6228C116.427 55.4806 116.324 55.408 116.159 55.1052C116.206 54.87 116.25 54.766 116.458 54.6311C116.85 54.377 117.389 54.2566 117.851 54.274ZM101.773 122.969C103.429 124.111 104.973 124.693 106.995 124.311C107.571 124.202 108.134 124.034 108.696 123.868L108.928 126.124C107.389 126.734 105.876 126.556 104.382 125.892C103.297 125.409 102.289 124.747 101.868 123.576C101.794 123.371 101.733 123.19 101.773 122.969ZM121.537 126.246C124.001 127.011 125.901 127.036 128.308 126.074C128.22 126.739 128.121 127.356 127.853 127.978C126.875 128.735 125.822 128.96 124.601 128.8C123.414 128.644 122.311 128.139 121.316 127.486C121.327 127.086 121.314 126.699 121.451 126.32L121.537 126.246ZM118.81 124.598C118.523 125.648 118.195 126.66 117.699 127.63C116.088 127.725 114.599 127.584 113.062 127.068C112.82 126.921 112.627 126.87 112.564 126.56C112.481 126.16 112.798 125.539 112.938 125.164C115.007 125.689 116.861 125.426 118.81 124.598ZM168.887 109.594C166.839 112.002 163.71 112.818 160.665 113.043C159.609 113.12 158.216 113.221 157.197 112.887L157.101 112.762L157.407 111.497C160.531 112.052 163.469 111.834 166.441 110.683C167.231 110.376 168.078 109.774 168.887 109.594ZM138.348 64.2664L139.952 64.6883C139.77 65.4349 138.881 70.2312 138.717 70.4418L138.381 70.3632L136.547 69.5984C136.957 68.1505 137.528 65.5149 138.246 64.3053L138.348 64.2664ZM121.352 44.827C123.101 45.1768 126.187 45.7724 127.27 47.3741C127.465 47.6637 127.523 47.8562 127.451 48.1989C127.252 48.3397 127.118 48.4098 126.865 48.3636C126.645 48.3233 126.381 48.1561 126.188 48.0509L126.054 47.99C124.452 47.2665 121.133 46.7078 120.053 45.4468L120.004 45.2193C120.219 44.957 120.514 44.8872 120.839 44.8554C121.008 44.8388 121.182 44.8266 121.352 44.827ZM128.884 57.7805C130.499 58.0938 133.535 58.6185 134.876 59.4282C135.185 59.6149 135.481 59.9737 135.679 60.272C135.826 60.4934 135.986 60.9717 135.947 61.2336C135.937 61.2984 135.907 61.3585 135.887 61.421C135.761 61.4516 135.689 61.4829 135.561 61.4508L128.718 58.922C128.653 58.5728 128.54 58.1886 128.632 57.8405C128.702 57.8222 128.813 57.7815 128.884 57.7805ZM138.532 60.799C139.999 61.2316 142.815 61.6336 143.601 63.0116C143.879 63.4979 143.835 64.0077 143.684 64.5258L143.549 64.5987L143.088 64.3929C141.805 63.7821 138.529 62.8091 137.712 61.9615C137.683 61.6569 137.792 61.1829 138.006 60.9502C138.128 60.8172 138.265 60.7856 138.443 60.7915C138.473 60.7924 138.502 60.7965 138.532 60.799ZM106.739 111.077C107.113 111.469 107.461 111.853 107.784 112.292C106.471 115.063 105.281 117.96 105.485 121.089L105.348 121.171C104.978 120.439 104.841 119.624 104.735 118.818C104.589 117.707 106 112.063 106.669 111.154C106.689 111.126 106.715 111.103 106.739 111.077ZM188.603 91.7461C189.821 92.403 193.518 94.7583 194.276 95.7241C194.035 95.9855 193.713 96.1059 193.386 96.2254C191.283 96.0896 189.498 94.0485 187.992 92.7152C188.124 92.4824 188.388 91.8561 188.603 91.7461ZM185.272 84.8779C186.149 85.1881 186.776 85.5723 187.213 86.4439C187.701 87.4184 187.685 88.6481 187.309 89.6556C187.254 89.8049 187.189 89.9381 187.109 90.0756C186.527 89.9597 186.147 89.8654 185.809 89.3457C185.308 88.5743 185.552 87.4679 185.365 86.6025C185.244 86.0416 184.854 85.5725 184.801 84.9948C184.983 84.8577 185.052 84.89 185.272 84.8779ZM116.341 111.606C118.197 112.197 120.093 112.753 121.997 113.154C121.868 113.64 121.772 114.131 121.495 114.555L121.267 114.605C119.383 114.004 117.468 113.447 115.603 112.792C115.754 112.396 115.876 111.972 116.152 111.645L116.341 111.606ZM129.493 48.0801C132.389 48.2957 134.776 49.0706 136.68 51.4332C136.822 51.6098 136.889 51.7012 136.855 51.9328L136.604 52.0095C135.015 51.295 133.477 50.4753 131.909 49.7181C131.077 49.3169 130.039 48.9829 129.305 48.4277L129.264 48.2565C129.321 48.2107 129.429 48.1112 129.493 48.0801ZM116.063 114.783L117.547 115.238C116.346 117.248 115.673 120.053 115.731 122.396L115.749 123.025L115.662 123.113C114.848 121.801 115.062 118.338 115.387 116.886C115.501 116.38 115.644 115.046 116.063 114.783ZM139.396 51.1804C141.303 51.5504 144.268 52.042 145.448 53.7582C145.641 54.0387 145.764 54.2461 145.708 54.5894C145.482 54.6827 145.44 54.6565 145.2 54.5605C145.085 54.5147 144.966 54.4374 144.86 54.3772C142.704 53.1581 140.45 52.3587 138.086 51.66C138.516 51.4835 138.943 51.2864 139.396 51.1804ZM99.9876 82.2265C100.543 83.2311 100.873 84.7595 100.586 85.8749C100.429 86.4828 100.086 86.9976 99.5414 87.3158C98.9631 87.6542 98.3438 87.6334 97.6987 87.5846L97.3806 87.4462L97.3492 87.3029C98.6504 86.399 99.4664 86.7136 99.8434 84.5767C99.9806 83.7983 99.8498 82.9772 99.9876 82.2265ZM129.359 61.2323C129.405 61.3297 129.469 61.4204 129.496 61.5244C129.634 62.0479 128.447 65.7272 128.201 66.4121C128.124 66.6278 128.05 66.7932 127.914 66.9746L127.295 66.8649L127.122 66.7461C127.22 65.7567 128.497 62.0358 129.082 61.3268L129.359 61.2323ZM144.697 91.5921C145.264 91.8391 145.753 92.1145 145.986 92.7268C146.096 93.0152 146.103 93.3212 145.954 93.5995C145.724 94.0278 145.302 94.1698 144.86 94.2695C144.263 93.9865 143.826 93.7373 143.585 93.0867C143.469 92.772 143.464 92.4926 143.624 92.1884C143.795 91.8641 144.209 91.6955 144.544 91.6218C144.595 91.6107 144.646 91.6021 144.697 91.5921ZM143.576 94.457C144.081 94.6873 144.58 94.9053 145.103 95.0912C144.893 95.8973 144.664 96.6955 144.244 97.4198C143.796 97.3607 143.328 97.3425 142.928 97.1149C142.746 96.8016 142.866 96.3514 142.955 96.0206C143.068 95.6017 143.291 94.7586 143.576 94.457ZM185.141 90.0214L186.869 91.1452C186.676 91.4646 186.476 91.9233 186.102 92.0433C185.577 91.8907 185.039 91.7564 184.531 91.554C184.679 91.0495 184.802 90.5249 185.047 90.0587L185.141 90.0214Z" fill="#F9F871"/>
</svg>
