<svg width="438" height="529" viewBox="0 0 438 529" fill="none" xmlns="http://www.w3.org/2000/svg">
<path d="M154.846 0.159127C155.586 0.0989057 156.326 0.0563977 157.067 0.0316028C169.482 -0.351025 181.832 2.69995 190.997 11.4171C196.317 16.478 204.598 29.5906 203.14 37.2867C202.784 39.1633 200.424 41.1408 200.682 42.8423C200.777 43.4714 201.253 44.2665 201.823 44.5783C203.805 45.6632 208.646 43.8069 210.777 43.2137C212.384 44.0381 214.209 45.0115 214.855 46.8275C215.152 47.6629 215.001 48.505 214.57 49.2588C212.775 52.3947 208.06 53.1198 204.838 53.9128C206.956 61.8755 209.346 69.693 211.663 77.5944C212.834 81.5879 213.698 85.8534 215.27 89.6973C217.002 90.2894 219.008 90.3325 220.644 91.1597C221.435 91.5597 222.052 92.0779 222.444 92.8835C224.555 97.2263 225.457 102.886 226.771 107.546C228.992 115.415 231.451 123.232 233.801 131.065C235.133 131.906 236.684 132.734 236.921 134.467C237.053 135.436 236.492 136.03 236.006 136.798C235.632 139.208 238.143 145.508 238.868 148.148C241.555 147.628 243.973 147.784 246.499 148.907C248.925 149.985 251.324 152.085 252.395 154.551C253.585 157.293 253.175 160.227 253.452 163.12C253.634 165.03 254.124 166.91 254.703 168.735C256.53 174.501 259.642 185.564 262.2 190.634C263.406 193.024 266.011 194.297 266.849 196.946C267.896 200.259 268.259 203.969 269.081 207.374C270.297 212.412 271.835 217.396 273.278 222.374C274.565 226.808 275.734 231.382 277.438 235.674C278.755 235.328 280.845 234.683 282.165 235.011C283.758 238.01 284.284 242.098 285.087 245.387C285.844 248.433 286.66 251.464 287.536 254.479C294.104 277.283 300.398 300.162 306.419 323.117C308.246 329.903 309.875 336.744 311.754 343.517C315.188 355.552 318.516 367.617 321.737 379.711C323.95 387.927 326.639 396.671 327.502 405.141C330.704 404.15 333.798 403.064 336.753 401.468C334.799 394.641 333.228 387.673 331.545 380.773C330.527 380.212 329.503 379.652 328.533 379.009C321.808 374.553 317.774 367.263 319.191 359.108C319.712 356.117 321.023 353.273 321.176 350.217C321.352 346.721 320.055 342.861 319.346 339.445C317.829 332.139 316.965 324.646 316.212 317.227C313.729 292.757 314.953 269.489 323.355 246.213C325.567 240.083 327.876 234.177 331.465 228.696C329.894 226.808 328.345 224.833 326.967 222.8C323.89 218.259 320.372 211.771 321.593 206.076C322.059 203.904 323.247 202.108 325.168 200.963C331.278 197.32 340.99 199.812 347.379 201.499C375.653 208.964 420.244 238.039 435.019 263.722C437.039 267.234 438.817 271.715 437.604 275.784C436.823 278.402 434.82 280.478 432.436 281.731C424.59 285.853 413.385 282.303 405.478 279.803C401.51 288.205 398.035 295.721 396.102 304.929C391.823 325.307 394.665 346.835 397.265 367.233L402.43 407.732C403.423 415.174 404.806 422.662 405.476 430.135C406.727 431.726 407.682 433.361 408.261 435.306C409.347 438.963 408.986 443.222 407.17 446.584C407.546 449.999 407.83 453.421 408.024 456.85C408.987 473.981 403.096 492.493 391.577 505.307C378.98 519.322 361.306 526.372 342.712 527.287C338.419 527.564 333.672 528.253 329.41 527.428C327.333 527.026 325.293 525.824 323.17 525.743C320.43 525.638 317.449 526.248 314.723 526.555C310.77 527.004 306.808 527.33 302.835 527.532C291.946 528.09 280.944 528.428 270.047 528.218C264.222 528.097 258.4 527.88 252.581 527.567C245.875 527.182 194.025 523.605 191.5 521.325L191.634 520.859C195.275 518.424 202.695 518.32 207.035 518.182C216.74 517.873 226.449 519.297 236.149 519.585C258.581 520.249 281.315 520.128 303.69 518.299C294.636 512.516 288.033 505.451 282.54 496.252C279.281 498.11 276.693 501.176 273.237 502.627C270.598 503.736 267.112 503.666 264.498 502.518C261.833 501.348 259.969 498.973 259.029 496.26C257.447 491.694 258.888 487.605 260.894 483.493C257.397 471.478 255.097 459.117 251.529 447.143C248.876 445.534 246.584 443.607 245.345 440.667C244.048 437.587 244.062 433.728 245.357 430.649C246.375 428.231 248.251 426.295 250.713 425.344C254.505 423.88 257.841 425.263 261.305 426.806C260.446 419.55 257.983 411.287 256.264 404.085L246.153 361.873L230.148 294.202C226.64 279.342 223.425 264.451 219.269 249.75C217.501 249.27 215.749 248.699 214.178 247.731C212.698 246.819 211.157 245.389 210.434 243.781C208.494 239.47 207.697 232.588 206.622 227.848L199.523 197.729C198.786 197.47 198.003 197.188 197.354 196.745C196.306 196.028 195.396 194.91 195.162 193.638C194.82 191.781 195.6 190.264 196.563 188.741C190.578 162.043 185.575 135.044 178.958 108.495C177.852 107.741 176.401 106.895 176.01 105.52C175.361 103.239 176.788 100.709 176.812 98.3912C176.848 95.1515 174.735 89.2007 173.87 85.8435C172.564 80.8845 171.409 75.8908 170.405 70.8623C169.142 64.2505 169.349 59.4712 173.223 53.7561C172.39 50.8911 171.454 48.0233 170.171 45.3249C167.708 40.1411 163.956 36.2264 158.459 34.3404C152.901 32.4335 146.853 32.9969 141.345 34.7858C129.711 38.5638 116.411 48.6264 105.917 55.4363C100.219 59.1769 94.3062 62.5397 88.1785 65.5246C80.1996 69.4513 71.9987 72.8404 63.5759 75.6918C58.6555 77.3472 53.6857 78.838 48.6664 80.1642C41.6446 82.0139 7.12425 90.4136 1.88809 88.4254C1.09679 88.1247 0.402051 87.5624 0.137181 86.728C-0.143803 85.8418 0.0274819 84.736 0.463304 83.9381C3.08552 79.1362 9.96995 76.3534 14.2145 73.0574C19.0533 69.3001 22.8393 64.3001 27.969 60.939C36.6562 55.2471 49.1642 54.4845 59.3153 53.8438C64.4223 53.5215 69.7054 53.3505 74.6337 51.87C77.2272 51.0908 79.4455 49.9353 81.6963 48.4393C88.8991 43.6524 95.5893 37.6743 102.497 32.4391C106.855 29.1362 111.655 26.4131 115.95 23.0544C116.825 22.3702 117.515 21.7372 118.043 20.7518C118.079 19.9384 118.14 19.8646 117.677 19.2103C115.619 18.2093 112.598 19.3473 110.532 19.9961C111.226 18.4024 111.959 17.0826 113.137 15.7997C121.378 6.81875 143.101 0.755748 154.846 0.159127ZM155.606 12.2667C132.373 13.3176 113.83 29.2936 96.2741 42.7987C89.6209 47.9162 83.1956 52.8997 75.6137 56.6376C76.6389 59.5082 77.3066 62.5034 78.1217 65.438C87.4871 61.6983 96.3475 56.562 104.808 51.1107L120.357 40.9403C132.908 32.8024 147.061 24.6539 162.261 31.2044C168.79 34.0184 172.566 39.3767 175.065 45.8386C176.806 50.3403 177.971 55.0749 179.217 59.7328C182.321 71.3286 184.717 83.0739 187.714 94.6852C191.337 96.0548 194.005 98.2676 195.603 101.874C198.295 107.951 199.572 115.258 201.128 121.741L208.585 153.125L238.84 280.593L262.978 379.668C264.965 387.693 266.901 395.73 268.786 403.78C269.457 406.594 270.763 410.035 270.852 412.873C269.306 409.962 267.81 402.664 266.855 399.197L256.239 359.507C238.715 292.191 221.595 224.772 204.88 157.251C202.474 147.684 200.214 138.082 198.099 128.446C196.593 121.567 194.707 109.811 191.913 103.722L191.749 103.358C191.716 103.286 191.68 103.215 191.645 103.142C191.041 103.775 190.102 104.532 190.05 105.448C189.903 108.048 192.102 114.294 192.787 117.116L197.475 136.711L214.477 207.879L243.734 332.861C248.756 355.182 253.899 377.474 259.163 399.738C261.065 407.56 262.784 415.508 264.935 423.259C266.615 421.226 268.271 419.319 271.088 419.06C272.844 418.898 274.592 419.537 275.932 420.661C277.755 422.192 278.799 424.47 278.944 426.83C279.135 429.909 277.783 433.121 275.659 435.319C273.774 437.269 271.611 438.072 269.016 438.597C270.033 443.604 271.438 448.556 272.9 453.448C275.729 452.822 278.582 452.373 281.419 451.797C280.641 448.365 279.627 444.876 279.069 441.41C280.357 443.143 281.241 449.421 281.952 451.827C285.642 451.109 295.184 448.394 298.179 450.446C300.284 451.888 301.26 458.236 301.579 460.778C301.788 462.45 301.643 464.124 300.543 465.477C297.581 469.121 286.565 468.535 285.389 470.084C285.25 470.267 285.291 470.534 285.242 470.759L285.043 470.271C284.071 469.698 281.545 470.433 280.357 470.637C279.417 470.862 278.41 471.022 277.531 471.427C277.938 474.361 279.416 477.513 280.465 480.3C285.174 492.813 290.895 504.136 301.845 512.384C307.344 516.527 313.348 519.22 319.645 521.865C317.499 519.833 315.981 517.709 314.677 515.054C305.005 512.835 297.576 505.675 292.492 497.475C291.939 496.564 291.417 495.636 290.926 494.69C290.435 493.744 289.975 492.784 289.547 491.807C289.12 490.831 288.725 489.842 288.364 488.84C288.002 487.838 287.673 486.824 287.379 485.8C287.084 484.776 286.824 483.743 286.597 482.702C286.371 481.661 286.18 480.613 286.023 479.559C285.867 478.505 285.745 477.447 285.659 476.385C285.572 475.323 285.521 474.259 285.505 473.193C287.775 484.581 295.402 495.231 305.03 501.657C307.661 503.401 310.363 505.026 313.137 506.534C314.132 498.662 317.357 489.432 323.857 484.412C328.286 480.992 334.303 479.457 339.84 480.217C340.143 480.256 340.445 480.303 340.745 480.358C341.046 480.412 341.345 480.474 341.642 480.544C341.94 480.613 342.236 480.69 342.53 480.774C342.823 480.859 343.114 480.951 343.403 481.05C343.692 481.149 343.979 481.255 344.262 481.369C344.546 481.483 344.827 481.603 345.104 481.731C345.382 481.859 345.656 481.994 345.927 482.136C346.197 482.277 346.464 482.426 346.727 482.581C346.991 482.736 347.25 482.898 347.505 483.067C347.76 483.235 348.01 483.41 348.256 483.591C348.503 483.772 348.744 483.959 348.981 484.152C349.218 484.345 349.449 484.544 349.676 484.749C349.902 484.954 350.124 485.165 350.34 485.381C350.556 485.597 350.766 485.819 350.971 486.045C351.176 486.272 351.375 486.504 351.568 486.741C351.761 486.978 351.948 487.219 352.129 487.466C354.52 490.673 355.622 494.209 356.671 498.01C352.239 491.756 346.801 486.078 338.924 484.761C338.61 484.707 338.296 484.662 337.98 484.624C337.664 484.586 337.347 484.556 337.03 484.534C336.713 484.513 336.395 484.499 336.077 484.493C335.759 484.488 335.441 484.49 335.123 484.501C334.805 484.511 334.488 484.53 334.171 484.556C333.854 484.583 333.538 484.617 333.223 484.66C332.908 484.703 332.594 484.753 332.281 484.812C331.969 484.87 331.658 484.937 331.349 485.011C331.039 485.085 330.732 485.167 330.427 485.257C330.122 485.347 329.819 485.444 329.519 485.549C329.219 485.654 328.922 485.767 328.627 485.887C328.333 486.008 328.042 486.135 327.754 486.27C327.466 486.405 327.181 486.548 326.901 486.697C326.62 486.846 326.343 487.003 326.07 487.166C325.797 487.329 325.529 487.5 325.265 487.677C325 487.854 324.741 488.037 324.486 488.228C323.242 489.144 322.046 490.144 320.867 491.141C321.029 491.078 321.193 491.015 321.354 490.95C322.771 490.377 324.041 489.508 325.472 488.931C330.866 486.755 336.714 486.678 342.118 488.921C342.416 489.043 342.712 489.172 343.004 489.309C343.297 489.445 343.586 489.589 343.871 489.74C344.156 489.89 344.438 490.048 344.715 490.212C344.993 490.377 345.266 490.548 345.535 490.726C345.804 490.905 346.069 491.089 346.329 491.28C346.589 491.472 346.844 491.669 347.094 491.872C347.345 492.076 347.59 492.286 347.83 492.501C348.07 492.717 348.304 492.939 348.533 493.166C348.762 493.394 348.985 493.627 349.203 493.865C349.421 494.103 349.632 494.347 349.837 494.596C350.043 494.844 350.242 495.098 350.436 495.356C350.628 495.615 350.815 495.878 350.995 496.146C351.175 496.414 351.348 496.686 351.515 496.963C351.682 497.239 351.841 497.519 351.994 497.803C352.147 498.088 352.292 498.375 352.431 498.667C352.57 498.958 352.701 499.253 352.825 499.551C352.949 499.857 353.066 500.167 353.174 500.48C353.283 500.792 353.384 501.107 353.477 501.424C353.57 501.741 353.655 502.061 353.733 502.383C353.81 502.704 353.88 503.028 353.941 503.353C354.002 503.678 354.055 504.004 354.1 504.332C354.145 504.66 354.182 504.988 354.211 505.318C354.239 505.647 354.26 505.977 354.272 506.308C354.284 506.639 354.288 506.969 354.284 507.3C354.28 507.631 354.268 507.961 354.247 508.291C354.226 508.621 354.198 508.951 354.161 509.279C354.124 509.608 354.079 509.936 354.026 510.262C353.972 510.589 353.911 510.914 353.842 511.237C353.772 511.561 353.695 511.882 353.61 512.202C353.525 512.521 353.432 512.839 353.33 513.154C353.229 513.469 353.12 513.781 353.004 514.091C352.887 514.4 352.763 514.706 352.631 515.01C351.339 518.051 349.388 520.648 346.993 522.908C364.312 520.938 379.484 514.126 390.537 500.322C401.11 487.118 406.014 468.721 404.121 451.942C403.968 450.584 403.73 449.282 403.37 447.962C401.659 448.205 399.902 448.386 398.216 448.76C400.259 457.255 398.336 470.392 395.622 478.59C394.87 480.812 393.994 482.984 392.994 485.107C391.995 487.23 390.878 489.289 389.644 491.284C383.837 500.704 375.962 507.489 365.65 511.469C382.251 500.819 391.76 483.282 395.86 464.372C396.976 459.226 397.642 454.09 397.182 448.829C388.504 450.305 379.67 451.089 370.923 452.056C364.586 452.756 358.06 453.781 351.688 453.929C351.493 459.082 350.959 463.287 346.985 467.028C346.767 467.233 346.543 467.432 346.315 467.626C346.087 467.819 345.853 468.007 345.615 468.188C345.378 468.37 345.136 468.546 344.889 468.716C344.642 468.885 344.391 469.048 344.137 469.206C343.882 469.362 343.623 469.513 343.36 469.657C343.098 469.801 342.832 469.938 342.562 470.069C342.293 470.199 342.021 470.323 341.745 470.439C341.47 470.556 341.191 470.666 340.91 470.769C340.629 470.872 340.345 470.968 340.059 471.056C339.773 471.145 339.485 471.226 339.195 471.3C338.905 471.374 338.614 471.441 338.32 471.5C338.026 471.56 337.732 471.612 337.436 471.656C337.14 471.701 336.843 471.738 336.545 471.767C336.247 471.797 335.949 471.819 335.65 471.833C335.351 471.848 335.051 471.855 334.752 471.855C334.453 471.854 334.154 471.846 333.855 471.83C329.493 471.636 325.284 469.878 322.363 466.574C320.76 464.762 319.716 462.705 318.9 460.443C317.565 456.739 316.915 452.708 316.108 448.858C314.931 443.334 313.82 437.796 312.776 432.246C307.912 432.93 303.556 432.915 299.449 429.739C295.109 426.383 292.929 420.999 292.35 415.67C291.754 410.181 292.593 404.072 296.184 399.68C298.402 396.966 301.17 395.413 304.303 393.965C303.028 389.864 301.987 385.714 300.835 381.58C297.847 382.294 292.498 382.899 289.774 381.227C284.569 378.035 281.957 367.93 280.793 362.396C279.854 357.933 279.369 353.063 281.946 349.023C283.234 347.005 285.001 345.526 286.859 344.065C286.373 340.561 285.719 337.117 285.011 333.652C283.988 333.496 283.062 333.457 282.231 332.799C279.88 328.947 275.048 306.923 273.856 306.065C273.257 306.513 272.913 307.556 272.852 308.304C272.491 312.669 277.945 328.458 277.136 330.183C275.614 329.531 274.111 325.74 273.48 324.183C271.317 318.861 268.499 309.682 270.935 304.054C271.779 302.106 273.111 300.469 274.395 298.799C270.275 298.932 267.034 298.432 263.858 295.523C260.225 292.195 258.447 287.337 258.336 282.478C258.326 282.136 258.323 281.793 258.33 281.449C258.336 281.106 258.351 280.764 258.375 280.421C258.398 280.079 258.43 279.738 258.47 279.397C258.511 279.056 258.56 278.717 258.617 278.378C258.674 278.04 258.74 277.704 258.814 277.369C258.888 277.033 258.97 276.701 259.061 276.37C259.151 276.039 259.25 275.71 259.357 275.384C259.464 275.058 259.579 274.735 259.701 274.415C259.825 274.094 259.956 273.777 260.094 273.463C260.233 273.15 260.379 272.84 260.534 272.533C260.688 272.227 260.849 271.924 261.019 271.626C261.188 271.327 261.364 271.033 261.548 270.744C261.732 270.454 261.923 270.169 262.121 269.888C262.318 269.608 262.523 269.333 262.735 269.063C262.947 268.793 263.165 268.529 263.39 268.269C263.615 268.01 263.846 267.756 264.083 267.509C265.076 266.489 266.26 265.51 267.458 264.748L265.767 260.281C262.167 260.857 258.709 260.275 255.757 258.051C255.57 257.912 255.388 257.768 255.209 257.619C255.03 257.471 254.856 257.317 254.685 257.16C254.514 257.002 254.347 256.84 254.185 256.673C254.023 256.507 253.865 256.337 253.711 256.162C253.558 255.987 253.409 255.809 253.265 255.627C253.121 255.444 252.981 255.258 252.847 255.068C252.713 254.879 252.583 254.686 252.459 254.489C252.335 254.293 252.215 254.093 252.101 253.891C251.987 253.688 251.879 253.483 251.775 253.275C251.672 253.067 251.574 252.856 251.482 252.642C251.389 252.429 251.303 252.213 251.222 251.996C251.141 251.778 251.065 251.558 250.995 251.336C250.926 251.114 250.862 250.891 250.804 250.666C250.746 250.441 250.694 250.214 250.648 249.986C250.602 249.758 250.562 249.529 250.528 249.3C250.493 249.07 250.465 248.839 250.443 248.608C250.035 244.675 251.267 241 253.785 237.985C254.451 237.188 255.274 236.405 256.07 235.738C253.824 229.476 252.186 223.033 249.617 216.884C245.833 217.248 242.573 216.645 239.57 214.137C235.365 210.625 233.096 204.869 232.712 199.506C232.408 195.253 233.142 190.806 236.056 187.512C237.418 185.972 238.85 185.172 240.682 184.346C239.051 180.405 237.598 176.496 236.488 172.369C233.789 171.153 231.62 169.62 230.504 166.757C228.981 162.85 229.644 158.47 229.158 154.39C228.86 151.888 228.062 149.407 227.383 146.988L209.716 86.0388C206.671 75.6476 203.072 65.1604 200.705 54.6097C198.793 54.6897 195.892 55.0435 194.199 53.9641L194.03 53.2677C196.44 51.1907 209.963 49.0772 210.336 47.8026C209.142 47.5266 207.533 48.0785 206.313 48.2661C202.824 48.8024 196.611 49.4105 193.709 46.9688L193.738 46.593C194.909 45.9093 196.211 45.9987 197.529 45.9716C193.516 33.9356 185.047 22.5716 173.565 16.7873C167.906 13.9366 161.922 12.471 155.606 12.2667ZM333.905 232.031C331.148 237.811 328.52 243.609 326.451 249.676C318.966 271.621 318.234 295.173 320.511 318.059C321.347 326.455 322.262 334.9 324.009 343.162L326.003 339.455C324.706 334.195 323.712 328.878 323.024 323.504C319.451 296.838 318.245 264.408 335.465 241.84C325.984 264.329 325.479 288.224 327.612 312.179C328.216 319.739 329.107 327.266 330.287 334.758C331.422 333.917 332.552 333.16 333.823 332.536C334.112 332.395 334.405 332.262 334.701 332.136C334.997 332.009 335.296 331.891 335.598 331.78C335.9 331.669 336.204 331.565 336.512 331.468C336.818 331.372 337.128 331.284 337.439 331.204C337.75 331.123 338.064 331.05 338.379 330.984C338.694 330.919 339.01 330.862 339.329 330.813C339.647 330.764 339.965 330.722 340.286 330.689C340.606 330.655 340.926 330.63 341.247 330.613C341.569 330.595 341.89 330.585 342.212 330.584C342.534 330.582 342.855 330.589 343.176 330.603C343.498 330.618 343.819 330.641 344.139 330.671C344.459 330.702 344.779 330.74 345.097 330.786C345.416 330.833 345.732 330.887 346.048 330.949C346.364 331.012 346.678 331.082 346.99 331.159C347.302 331.237 347.612 331.323 347.92 331.416C348.228 331.509 348.534 331.61 348.836 331.719C354.81 333.865 358.759 339.074 361.347 344.657C364.852 352.218 366.602 361.973 368.84 370.13C372.546 383.641 378.521 400.586 379.703 414.221C380.259 420.641 379.681 426.398 377.494 432.453C382.841 432.257 388.195 431.049 393.492 430.345C387.37 399.549 379.002 337.544 385.232 307.732C385.56 307.324 385.872 306.927 386.232 306.548C386.371 307.169 386.486 307.722 386.745 308.307C383.815 334.509 386.922 360.137 390.147 386.127C390.839 391.695 391.274 397.293 391.972 402.86C393.106 411.913 394.618 420.781 395.254 429.901C397.29 429.666 399.296 429.304 401.313 428.941C400.696 420.167 399.178 411.443 397.932 402.742C396.125 390.395 394.514 378.021 393.1 365.622C390.775 345.812 388.304 325.009 391.862 305.194C393.495 296.101 396.898 286.614 401.7 278.71C395.462 275.301 388.444 272.765 381.973 269.163C370.674 262.872 359.981 255.947 350.282 247.369C344.674 242.408 339.527 236.959 333.905 232.031ZM331.406 203.187C329.227 203.708 327.29 204.246 326.006 206.26C325.47 207.101 325.196 208.128 324.924 209.078C326.361 215.529 330.331 220.544 334.415 225.584C345.215 238.914 358.036 249.879 372.505 259.084C385.76 267.517 412.18 282.008 427.967 279.105C430.126 278.422 432.32 277.457 433.39 275.321C434.268 273.568 434.001 271.589 433.358 269.808C431.388 264.349 426.951 259.058 423.122 254.778C406.419 236.111 384.332 221.221 361.547 211.038C352.446 206.97 341.504 202.524 331.406 203.187ZM329.456 408.879C328.662 409.131 328.127 409.143 327.668 409.912C327.029 410.983 326.997 413.265 326.817 414.545C325.823 421.637 322.788 427.109 316.282 430.481C318.2 438.333 319.981 454.078 323.272 460.738C324.382 462.984 326 464.915 328.13 466.256C330.406 467.687 333.076 468.303 335.749 468.233C339.852 467.388 343.664 465.754 346.033 462.067C347.246 460.177 347.798 458.069 347.91 455.843C348.191 450.27 344.974 439.483 343.618 433.747C337.436 430.198 331.802 425.133 329.851 418.011C329.601 417.089 329.434 416.152 329.351 415.2C329.267 414.248 329.268 413.297 329.354 412.345C329.406 411.754 329.877 409.777 329.723 409.327C329.668 409.163 329.545 409.029 329.456 408.879ZM362.737 364.363C361.272 370.593 359.317 376.014 353.627 379.568C348.151 382.989 342.105 382.938 335.921 382.017C336.858 387.697 338.804 393.35 340.431 398.874C347.683 396.719 354.036 396.202 360.867 399.959C366.312 402.954 370.324 407.521 371.989 413.56C373.216 418.008 372.872 422.69 370.513 426.71C370.063 427.48 369.554 428.208 368.985 428.896C368.416 429.583 367.796 430.22 367.125 430.806C361.408 435.164 356.717 435.633 349.686 435.318C353.36 437.889 357.467 440.075 362.133 439.302C366.161 438.635 369.721 436.184 372.002 432.835C377.151 425.276 376.089 415.802 374.411 407.33C372.586 398.112 369.689 389.304 367.183 380.276C365.894 375.632 365.07 370.791 363.634 366.202C363.436 365.569 363.239 364.823 362.737 364.363ZM332.992 490.935C328.061 491.617 323.508 493.256 320.383 497.393C317.889 500.696 316.314 505.366 316.95 509.495C317.645 514.004 320.771 518.625 324.495 521.218C327.735 523.475 331.13 523.992 334.956 524.18C339.769 523.591 343.992 521.536 346.992 517.637C349.654 514.178 351.166 509.56 350.54 505.2C350.498 504.924 350.449 504.65 350.393 504.376C350.338 504.103 350.275 503.831 350.206 503.56C350.137 503.29 350.061 503.021 349.978 502.755C349.896 502.488 349.807 502.223 349.711 501.961C349.615 501.699 349.513 501.44 349.405 501.183C349.296 500.925 349.181 500.671 349.06 500.419C348.939 500.168 348.812 499.919 348.679 499.674C348.545 499.429 348.406 499.188 348.26 498.949C348.115 498.711 347.963 498.476 347.806 498.246C347.649 498.015 347.486 497.789 347.318 497.566C347.15 497.343 346.976 497.125 346.797 496.911C346.618 496.697 346.433 496.487 346.244 496.282C346.054 496.078 345.86 495.877 345.66 495.682C345.461 495.487 345.257 495.297 345.048 495.111C344.839 494.926 344.625 494.747 344.408 494.572C344.19 494.398 343.968 494.229 343.742 494.065C340.871 492.001 336.565 490.613 332.992 490.935ZM348.465 400.724C343.907 401.21 338.867 403.057 335.965 406.775C334.003 409.29 333.058 412.566 333.565 415.731C334.36 420.699 338.01 425.196 342.06 427.989C346.145 430.806 350.396 431.533 355.263 431.592C359.422 431.332 363.35 430.004 366.233 426.82C366.369 426.67 366.501 426.517 366.63 426.36C366.759 426.204 366.884 426.044 367.004 425.882C367.125 425.719 367.242 425.553 367.354 425.385C367.467 425.216 367.575 425.045 367.679 424.871C367.783 424.697 367.883 424.521 367.978 424.342C368.074 424.164 368.164 423.983 368.251 423.799C368.337 423.616 368.419 423.431 368.496 423.243C368.573 423.056 368.646 422.867 368.713 422.676C368.781 422.485 368.844 422.293 368.903 422.098C368.961 421.904 369.014 421.709 369.063 421.512C369.111 421.315 369.155 421.118 369.193 420.919C369.232 420.72 369.266 420.52 369.295 420.32C369.324 420.119 369.348 419.918 369.367 419.716C369.385 419.514 369.399 419.313 369.409 419.11C369.417 418.907 369.421 418.705 369.42 418.503C369.418 418.3 369.412 418.097 369.401 417.895C369.14 413.344 366.366 408.888 362.972 405.961C359.272 402.769 353.671 400.377 348.713 400.698C348.63 400.703 348.548 400.716 348.465 400.724ZM336.075 348.558C331.818 349.25 327.678 350.852 325.114 354.538C323.003 357.571 322.226 361.564 322.943 365.179C323.806 369.528 326.665 373.367 330.374 375.73C334.874 378.598 340.105 379.595 345.356 378.881C350.096 377.521 354.256 375.484 356.71 370.923C356.81 370.74 356.905 370.555 356.996 370.369C357.086 370.181 357.172 369.992 357.253 369.801C357.334 369.609 357.41 369.416 357.481 369.221C357.552 369.025 357.618 368.829 357.68 368.63C357.741 368.432 357.797 368.232 357.848 368.03C357.899 367.829 357.945 367.626 357.987 367.422C358.027 367.219 358.063 367.014 358.094 366.809C358.125 366.603 358.15 366.397 358.17 366.19C358.191 365.983 358.206 365.776 358.216 365.568C358.225 365.361 358.23 365.153 358.229 364.945C358.228 364.737 358.223 364.53 358.211 364.322C358.2 364.115 358.184 363.908 358.162 363.701C358.141 363.494 358.114 363.288 358.082 363.083C358.05 362.878 358.013 362.673 357.971 362.47C357.928 362.266 357.881 362.064 357.829 361.863C357.776 361.662 357.719 361.462 357.656 361.264C356.178 356.519 352.386 352.769 348.004 350.596C344.216 348.718 340.261 348.109 336.075 348.558ZM304.767 332.804C302.459 333.474 300.152 334.207 297.805 334.729C299.584 342.57 315.421 393.93 314.393 397.529C313.732 398.342 312.912 398.514 311.921 398.626C311.411 398.684 310.907 398.711 310.393 398.7C310.792 401.16 311.294 407.503 312.584 409.394L313.04 409.477C316.671 408.324 320.318 407.226 323.981 406.181C322.347 398.006 305.765 333.656 304.767 332.804ZM399.349 433.287C394.532 433.867 389.728 434.535 384.936 435.292C381.492 435.851 378.005 436.605 374.538 436.959C369.794 440.93 365.68 443.872 359.137 443.26C355.553 442.924 352.346 441.598 349.13 440.058C349.547 441.874 350.548 449.243 351.424 450.294C358.738 449.616 365.995 448.512 373.297 447.752C383.129 446.73 395.156 446.229 404.549 443.404C404.909 440.773 405.525 436.96 403.915 434.639C403.384 433.873 402.569 433.338 401.643 433.199C400.893 433.085 400.097 433.205 399.349 433.287ZM340.577 334.461C335.685 335.44 331.838 337.441 328.998 341.697C327.468 343.989 326.306 346.573 325.274 349.12C330.72 345.419 336.093 343.999 342.636 345.223C346.489 345.945 349.868 347.449 353.19 349.492C357.36 352.742 359.548 355.692 362.164 360.224C360.063 352.018 357.769 341.038 349.813 336.439C346.949 334.784 343.855 334.187 340.577 334.461ZM262.202 237.014C259.034 238.141 256.431 239.606 254.957 242.816C253.816 245.301 253.89 247.997 254.907 250.51C255.961 253.114 257.734 255.31 260.369 256.407C261.471 256.865 262.501 256.961 263.671 256.743C266.684 255.481 270.076 253.821 271.386 250.598C272.346 248.238 271.73 245.5 270.747 243.252C269.684 240.822 267.763 238.329 265.233 237.316C264.222 236.911 263.269 236.95 262.202 237.014ZM183.533 108.95C184.376 115.851 186.472 122.942 188.023 129.73C190.213 139.325 192.137 148.976 194.275 158.581C195.618 164.623 197.308 170.707 198.389 176.789L201.466 175.717C201.888 175.219 202.007 175.135 201.979 174.445C201.903 172.602 201.112 170.379 200.693 168.565L196.96 152.799L190.618 126.377C189.42 121.229 188.492 115.895 187.037 110.819C186.865 110.221 186.691 109.878 186.328 109.385C185.472 108.795 184.527 108.937 183.533 108.95ZM294.646 453.44C292.651 453.669 283.427 454.922 282.406 455.991L282.597 457.063L282.421 457.143L281.942 455.961C279.878 455.501 276.147 456.61 273.98 456.988C274.263 459.416 275.412 465.947 276.855 467.768C277.512 467.781 278.012 467.674 278.644 467.519C280.404 467.142 282.947 466.922 284.52 466.137C284.456 465.655 284.389 465.209 284.245 464.744L284.471 464.419C284.733 465.108 284.734 465.623 285.423 465.954C289.439 465.809 294.622 464.444 298.314 462.947C297.808 460.4 297.246 455.373 295.398 453.417C295.195 453.418 294.837 453.385 294.646 453.44ZM268.436 268.729C264.877 271.882 262.774 275.785 262.504 280.567C262.284 284.472 263.302 288.784 265.994 291.715C267.523 293.379 269.3 294.373 271.479 294.894C273.485 294.471 275.282 293.945 277.138 293.064C275.36 287.185 271.659 272.919 268.436 268.729ZM154.826 4.25458C144.042 5.40345 132.996 8.00713 123.778 13.9358L126.129 16.3889C131.49 14.1276 136.666 11.5211 142.257 9.84721C153.2 7.17643 163.12 7.89003 173.581 12.0521C174.28 10.4448 174.966 8.837 175.774 7.28045C169.363 4.84458 161.691 3.44904 154.826 4.25458ZM289.715 281.21C287.438 281.725 285.135 282.189 282.882 282.8C285.846 291.546 289.026 300.114 291.62 308.988C293.829 308.378 296.068 307.817 298.254 307.127L293.759 290.511C292.949 287.514 292.327 284.038 291.01 281.243C290.406 281.041 290.311 281.078 289.715 281.21ZM241.257 188.434C238.681 190.075 237.249 192.113 236.598 195.124C235.666 199.426 236.626 204.274 239.002 207.965C240.599 210.447 242.605 212.028 245.466 212.726L248.643 211.98C249.318 211.463 249.675 211.368 249.878 210.523C248.03 206.667 244.963 203.99 243.737 199.692C244.655 197.394 246.034 195.494 247.528 193.542C246.417 191.483 245.388 189.484 242.992 188.739C242.429 188.563 241.841 188.495 241.257 188.434ZM263.956 437.909C262.545 438.788 261.152 439.711 259.661 440.45C260.598 443.057 261.483 445.663 262.191 448.344C263.387 452.877 268.556 476.317 270.109 478.532L270.561 478.522C272.001 478.4 273.427 478.275 274.854 478.037C272.998 471.8 271.275 465.527 269.685 459.217C268.171 453.062 266.888 446.802 265.145 440.707C264.957 440.05 264.549 438.236 263.956 437.909ZM240.615 152.33C238.137 153.102 236.233 154.057 234.927 156.446C234.801 156.674 234.687 156.908 234.585 157.148C234.484 157.389 234.395 157.633 234.318 157.883C234.241 158.132 234.178 158.384 234.127 158.64C234.077 158.896 234.039 159.154 234.016 159.413C233.992 159.673 233.981 159.933 233.984 160.194C233.987 160.455 234.003 160.715 234.033 160.974C234.062 161.233 234.105 161.49 234.161 161.744C234.218 161.999 234.287 162.25 234.369 162.498C234.452 162.741 234.548 162.979 234.656 163.213C234.763 163.446 234.883 163.674 235.014 163.895C235.145 164.116 235.287 164.33 235.44 164.537C235.593 164.743 235.757 164.942 235.93 165.131C236.104 165.321 236.286 165.502 236.478 165.673C236.67 165.844 236.871 166.005 237.079 166.156C237.288 166.306 237.504 166.445 237.727 166.574C237.949 166.702 238.178 166.819 238.413 166.924C239.974 167.639 241.399 167.557 243.063 167.477C245.547 166.583 247.76 165.365 248.985 162.908C249.092 162.692 249.186 162.472 249.27 162.247C249.353 162.022 249.425 161.793 249.486 161.561C249.546 161.328 249.594 161.093 249.63 160.855C249.666 160.618 249.69 160.38 249.701 160.14C249.713 159.9 249.712 159.66 249.699 159.42C249.686 159.18 249.661 158.942 249.623 158.704C249.586 158.467 249.536 158.232 249.475 158C249.413 157.768 249.339 157.54 249.254 157.315C248.55 155.414 247.099 153.922 245.259 153.09C243.758 152.41 242.242 152.269 240.615 152.33ZM206.625 196.399L203.508 197.751L210.767 227.367C211.956 232.317 212.903 237.361 214.307 242.254C215.038 242.868 215.757 243.52 216.551 244.048L217.535 244.334C217.968 244.027 218.077 243.981 218.157 243.416C218.32 242.265 208.22 198.99 207.233 196.728C206.761 196.435 206.972 196.527 206.625 196.399ZM278.579 238.914C277.043 239.577 275.513 240.274 273.959 240.893C275.534 245.384 280.947 268.276 282.861 270.284L287.492 268.941C285.973 263.029 284.386 257.135 282.733 251.258C281.616 247.16 280.62 242.976 279.279 238.947C279.042 238.92 278.814 238.87 278.579 238.914ZM264.407 207.545C262.91 208.741 261.413 209.613 259.683 210.434C261.552 216.878 264.397 228.121 267.642 233.622C268.353 234.827 269.373 235.748 270.276 236.801C270.679 237.184 270.675 237.37 271.262 237.351C272.017 237.327 272.747 237.028 273.454 236.788C272.105 232.216 265.892 209.62 264.407 207.545ZM298.691 310.456C296.542 311.005 294.418 311.581 292.305 312.26C293.305 315.737 295.944 328.964 297.409 330.95L297.869 331.006C300.036 330.591 302.136 330.045 304.259 329.446C303.335 325.699 300.906 312.958 298.922 310.485L298.691 310.456ZM308.696 414.98L296.884 418.351C298.026 421.949 299.942 424.771 302.794 427.25C306.057 429.085 308.614 428.774 312.083 427.806C311.58 424.237 310.958 418.269 309.323 415.148C309.144 415.095 308.88 414.983 308.696 414.98ZM292.517 361.778C290.21 362.394 287.88 362.968 285.606 363.698C286.643 368.296 287.612 375.292 291.332 378.499C293.496 378.565 295.535 378.409 297.686 378.215C297.214 374.678 295.894 364.402 293.864 361.826C293.333 361.645 293.064 361.666 292.517 361.778ZM256.664 193.413C254.543 194.066 252.808 194.942 251.688 196.958C251.577 197.157 251.477 197.36 251.388 197.569C251.299 197.778 251.221 197.991 251.154 198.208C251.087 198.425 251.032 198.645 250.989 198.868C250.945 199.091 250.914 199.316 250.894 199.542C250.875 199.768 250.867 199.995 250.871 200.222C250.876 200.449 250.892 200.675 250.92 200.9C250.949 201.126 250.989 201.349 251.041 201.57C251.093 201.791 251.157 202.009 251.232 202.223C251.869 204.086 253.231 205.525 255.003 206.359C256.075 206.865 257.096 206.962 258.265 206.942C260.067 206.45 261.46 205.805 262.933 204.658C263.897 202.264 264.283 200.09 263.215 197.612C262.432 195.793 261.008 194.468 259.143 193.806C258.335 193.519 257.516 193.424 256.664 193.413ZM305.445 398.128C301.556 399.883 298.479 402.372 296.912 406.484C295.908 409.121 295.785 411.801 295.947 414.586L298.461 413.817C301.87 412.675 305.327 411.686 308.775 410.671C308.247 408.201 306.88 399.559 305.445 398.128ZM288.206 313.493L280.525 315.51C281.437 319.067 283.321 326.767 285.434 329.539L286.27 329.833C288.525 330.124 290.79 330.474 293.066 330.515C292.421 327.732 289.832 314.614 288.206 313.493ZM249.896 168.819C248.337 169.854 246.792 170.891 245.151 171.793C245.858 174.288 251.151 190.213 252.561 191.45C254.125 190.866 255.686 190.255 257.265 189.713C256.354 186.496 252.162 170.493 250.089 168.847L249.896 168.819ZM183.105 10.6215C182.412 12.4609 181.705 14.2271 180.779 15.9621C187.943 21.2111 193.27 27.2929 197.571 35.0748L198.197 35.6858C198.98 34.2663 197.789 30.4899 197.322 28.9268C195.103 21.4997 189.147 15.168 183.105 10.6215ZM282.288 293.793C281.162 295.233 280.049 296.498 278.631 297.665C277.325 302.907 278.578 307.172 279.886 312.247L282.695 311.472L287.648 310.106C286.524 305.903 284.867 296.946 282.288 293.793ZM174.774 59.741C174.278 61.2144 173.656 62.7473 173.695 64.3211C173.796 68.4156 178.556 89.843 180.016 94.0765C180.663 94.5191 181.567 94.3276 182.346 94.2906L182.891 94.0307C183.022 90.9019 176.301 63.2169 174.774 59.741ZM290.09 346.181C286.957 347.771 285.102 350.036 284.036 353.415C283.599 354.801 283.017 357.05 283.719 358.407C284.017 358.982 284.503 359.497 285.15 359.672C285.766 359.838 286.508 359.621 287.112 359.478C289.417 358.926 291.723 358.316 294.041 357.821C293.522 355.491 292.233 347.601 290.477 346.252L290.09 346.181ZM322.829 410.831L313.113 413.707C313.807 417.653 314.576 421.773 315.703 425.616L315.986 426.049C316.838 426.001 317.681 425.086 318.232 424.494C321.649 420.831 323.114 416.128 323.615 411.24L323.459 410.853C323.287 410.842 322.993 410.793 322.829 410.831ZM216.61 94.555C218.186 102.118 220.782 109.65 222.977 117.061C224.671 122.779 226.105 129.016 228.376 134.528C229.007 134.844 229.427 134.87 230.117 134.906C228.756 127.613 226.242 120.239 224.209 113.089C222.56 107.291 221.107 100.587 218.775 95.077C218.057 94.8894 217.335 94.7154 216.61 94.555ZM270.722 422.887C268.23 424.649 266.873 427.059 266.366 430.075C266.148 431.37 265.979 433.213 266.917 434.292C267.452 434.905 268.287 435.098 269.07 435.059C269.629 435.032 270.179 434.831 270.705 434.651C272.977 432.666 274.653 430.646 275.867 427.849C275.135 426.066 274.478 424.109 272.564 423.286C271.948 423.021 271.395 422.903 270.722 422.887ZM256.256 212.386C256.215 212.458 256.175 212.532 256.132 212.603C255.701 213.312 253.811 214.694 253.652 215.14C253.598 215.288 253.831 216.357 253.872 216.531C254.938 221.062 257.444 229.809 259.597 233.793L260.072 234.057C261.02 233.813 261.977 233.586 262.916 233.306C260.627 226.407 259.051 219.074 256.256 212.386ZM288.898 333.997C289.151 337.137 289.763 340.156 290.483 343.218C291.804 343.043 293.017 342.738 294.188 343.564C297.891 346.18 296.156 355.37 299.776 357.316C300.163 355.322 294.653 337.667 293.756 334.124L288.898 333.997ZM268.072 484.556C265.662 485.445 263.953 486.624 262.898 489.056C262.063 490.978 262.032 493.222 262.911 495.135C263.769 497.001 265.503 498.741 267.466 499.413C267.658 499.479 267.854 499.536 268.052 499.583C268.251 499.629 268.451 499.665 268.653 499.69C268.855 499.716 269.058 499.731 269.262 499.736C269.465 499.741 269.668 499.735 269.871 499.718C270.074 499.701 270.276 499.675 270.477 499.637C270.677 499.6 270.875 499.552 271.07 499.494C271.265 499.436 271.457 499.368 271.645 499.29C271.833 499.212 272.017 499.125 272.196 499.028C273.046 498.573 273.64 498.025 274.059 497.15L273.902 496.583C272.709 496.231 271.997 496.701 270.924 497.21C269.188 497.245 267.517 497.239 266.161 495.992C264.977 494.903 264.671 493.388 264.343 491.885C264.801 490.014 265.391 488.042 267.175 487C268.264 486.365 269.701 486.326 270.882 486.707C271.802 487.004 272.64 487.524 273.463 488.02L275.36 487.006C272.885 485.02 271.325 484.308 268.072 484.556ZM288.37 272.663C284.101 273.908 279.742 275.049 275.546 276.514C275.96 277.637 276.382 279.431 277.437 280.1C281.714 279.444 285.95 278.587 290.145 277.526C289.809 276.092 289.523 273.66 288.37 272.663ZM255.525 443.18C256.354 448.369 263.053 478.773 264.751 481.292L265.845 481.624C265.784 478.689 257.837 446.338 256.484 443.695C256.129 443.421 255.968 443.339 255.525 443.18ZM273.514 254.702C272.01 255.848 270.517 257.009 268.959 258.083C269.428 259.572 270.271 263.447 271.569 264.282C273.037 263.857 274.502 263.41 275.981 263.025C275.378 260.405 274.931 256.994 273.514 254.702ZM252.528 428.763C250.465 430.345 249.378 432.057 249.03 434.674C248.729 436.934 249.109 440.215 250.573 442.056C250.785 442.322 251.032 442.507 251.301 442.711L251.793 442.598L252.037 442.155L253.418 439.168C252.28 437.339 251.153 435.585 251.648 433.323C252.041 431.525 254.554 429.4 254.233 428.85C253.656 428.788 253.109 428.746 252.528 428.763ZM299.927 360.423C299.747 363.334 301.87 375.296 303.706 377.516C304.357 377.698 304.843 377.685 305.51 377.657C304.919 374.774 302.635 362.398 300.953 360.862C300.681 360.614 300.272 360.517 299.927 360.423ZM229.918 138.51C229.445 139.271 229.422 139.54 229.592 140.422C229.954 142.304 232.113 150.804 232.994 151.949L233.438 151.75C233.99 151.217 234.886 150.673 234.895 149.846C234.922 147.539 232.834 140.665 231.692 138.691C231.068 138.534 230.561 138.498 229.918 138.51ZM261.503 430.687C259.744 431.277 256.628 431.97 255.753 433.807C255.391 434.564 255.563 435.357 255.928 436.068C256.21 436.62 256.64 437.099 257.041 437.567C258.91 436.936 261.008 436.178 261.943 434.28C262.497 433.155 262.361 432.169 262.115 430.984C261.633 430.678 261.853 430.732 261.503 430.687ZM184.717 98.7885C184.654 98.8392 184.591 98.8911 184.526 98.9408C183.057 100.057 181.313 99.534 180.331 101.336C180.231 102.158 180.446 103.254 181.092 103.852C181.567 104.291 182.475 104.399 183.094 104.528C184.97 104.104 186.179 103.584 187.226 101.889C187.595 101.291 187.644 100.856 187.606 100.172C187.071 99.3475 186.613 99.1013 185.659 98.9032C185.327 98.8348 185.057 98.8012 184.717 98.7885ZM204.769 189.083C202.95 189.443 200.37 189.546 199.187 191.133C199.082 192.151 199.304 192.708 199.955 193.491C200.058 193.614 200.162 193.734 200.266 193.855C202.237 193.426 204.102 192.901 206.008 192.24C205.933 191.213 205.953 190.14 205.44 189.222C205.234 189.172 204.98 189.078 204.769 189.083ZM305.144 381.161C305.351 383.974 306.926 391.064 308.8 393.229C309.08 393.304 309.378 393.408 309.665 393.44C309.478 390.249 308.342 384.013 306.304 381.441C305.908 381.32 305.557 381.221 305.144 381.161ZM276.622 266.248C275.469 266.76 274.267 267.228 273.17 267.85C273.664 269.308 274.076 270.847 274.885 272.164L275.517 272.336L278.564 271.295C278.216 270.057 277.683 266.956 276.622 266.248ZM279.033 489.246C277.322 489.683 275.908 490.296 274.398 491.216C275.162 492.303 275.707 493.027 276.863 493.703C278.346 493.633 279.318 493.483 280.377 492.371C280.686 492.045 280.797 491.707 280.916 491.285C280.743 490.584 280.569 490.078 279.921 489.665C279.6 489.46 279.372 489.383 279.033 489.246ZM203.005 180.111C201.865 180.96 200.737 181.832 199.576 182.651C199.992 183.516 200.421 184.783 201.317 185.233L204.898 185.074C204.559 183.443 204.356 181.236 203.005 180.111ZM269.151 489.876C268.687 490.71 268.371 491.232 268.427 492.203C268.88 493.221 269.459 493.6 270.472 494.003C270.811 493.306 271.21 492.594 271.026 491.79C270.817 490.867 269.901 490.335 269.151 489.876Z" fill="black"/>
</svg>
